NotoAmalgamated-Condensed.ufo
<glyph name="exclam.sans" format="2">
  <advance width="235"/>
  <unicode hex="0021"/>
  <outline>
    <contour>
      <point x="148" y="201" type="line"/>
      <point x="166" y="714" type="line"/>
      <point x="68" y="714" type="line"/>
      <point x="87" y="201" type="line"/>
    </contour>
    <contour>
      <point x="64" y="55" type="curve" smooth="yes"/>
      <point x="64" y="13"/>
      <point x="83" y="-9"/>
      <point x="118" y="-9" type="curve" smooth="yes"/>
      <point x="149" y="-9"/>
      <point x="172" y="11"/>
      <point x="172" y="55" type="curve" smooth="yes"/>
      <point x="172" y="100"/>
      <point x="151" y="119"/>
      <point x="118" y="119" type="curve" smooth="yes"/>
      <point x="82" y="119"/>
      <point x="64" y="97"/>
    </contour>
  </outline>
</glyph>
<glyph name="quotedbl.mono" format="2">
  <advance width="500"/>
  <unicode hex="0022"/>
  <outline>
    <contour>
      <point x="305" y="456" type="line"/>
      <point x="366" y="456" type="line"/>
      <point x="382" y="714" type="line"/>
      <point x="288" y="714" type="line"/>
    </contour>
    <contour>
      <point x="135" y="456" type="line"/>
      <point x="196" y="456" type="line"/>
      <point x="212" y="714" type="line"/>
      <point x="118" y="714" type="line"/>
    </contour>
  </outline>
</glyph>
<glyph name="dollar.serif" format="2">
  <advance width="442"/>
  <unicode hex="0024"/>
  <outline>
    <contour>
      <point x="203" y="40" type="curve"/>
      <point x="203" y="-79" type="line"/>
      <point x="241" y="-79" type="line"/>
      <point x="241" y="42" type="line"/>
      <point x="331" y="55"/>
      <point x="390" y="115"/>
      <point x="390" y="210" type="curve" smooth="yes"/>
      <point x="390" y="293"/>
      <point x="342" y="351"/>
      <point x="241" y="405" type="curve"/>
      <point x="241" y="644" type="line"/>
      <point x="292" y="641"/>
      <point x="308" y="577"/>
      <point x="308" y="514" type="curve"/>
      <point x="351" y="514"/>
      <point x="374" y="540"/>
      <point x="374" y="577" type="curve" smooth="yes"/>
      <point x="374" y="634"/>
      <point x="331" y="683"/>
      <point x="241" y="684" type="curve"/>
      <point x="241" y="760" type="line"/>
      <point x="203" y="760" type="line"/>
      <point x="203" y="683" type="line"/>
      <point x="124" y="672"/>
      <point x="65" y="617"/>
      <point x="65" y="527" type="curve" smooth="yes"/>
      <point x="65" y="440"/>
      <point x="101" y="389"/>
      <point x="203" y="336" type="curve"/>
      <point x="203" y="83" type="line"/>
      <point x="140" y="93"/>
      <point x="113" y="145"/>
      <point x="107" y="240" type="curve"/>
      <point x="69" y="240"/>
      <point x="46" y="213"/>
      <point x="46" y="176" type="curve" smooth="yes"/>
      <point x="46" y="96"/>
      <point x="102" y="46"/>
    </contour>
    <contour>
      <point x="241" y="84" type="curve"/>
      <point x="241" y="317" type="line"/>
      <point x="295" y="285"/>
      <point x="319" y="247"/>
      <point x="319" y="191" type="curve" smooth="yes"/>
      <point x="319" y="134"/>
      <point x="291" y="93"/>
    </contour>
    <contour>
      <point x="203" y="644" type="curve"/>
      <point x="203" y="427" type="line"/>
      <point x="156" y="456"/>
      <point x="136" y="486"/>
      <point x="136" y="546" type="curve" smooth="yes"/>
      <point x="136" y="598"/>
      <point x="162" y="636"/>
    </contour>
  </outline>
</glyph>
<glyph name="ampersand.serif" format="2">
  <advance width="600"/>
  <unicode hex="0026"/>
  <outline>
    <contour>
      <point x="217" y="-10" type="curve" smooth="yes"/>
      <point x="301" y="-10"/>
      <point x="356" y="36"/>
      <point x="391" y="91" type="curve"/>
      <point x="456" y="0" type="line"/>
      <point x="592" y="0" type="line"/>
      <point x="592" y="41" type="line"/>
      <point x="584" y="41" type="line" smooth="yes"/>
      <point x="550" y="41"/>
      <point x="530" y="46"/>
      <point x="514" y="67" type="curve" smooth="yes"/>
      <point x="437" y="164" type="line"/>
      <point x="456" y="214"/>
      <point x="468" y="269"/>
      <point x="477" y="317" type="curve" smooth="yes"/>
      <point x="489" y="378"/>
      <point x="523" y="380"/>
      <point x="558" y="380" type="curve" smooth="yes"/>
      <point x="567" y="380" type="line"/>
      <point x="567" y="421" type="line"/>
      <point x="419" y="421" type="line"/>
      <point x="419" y="382" type="line" smooth="yes"/>
      <point x="419" y="330"/>
      <point x="414" y="264"/>
      <point x="399" y="206" type="curve"/>
      <point x="265" y="399" type="line"/>
      <point x="354" y="444"/>
      <point x="394" y="496"/>
      <point x="394" y="582" type="curve" smooth="yes"/>
      <point x="394" y="654"/>
      <point x="354" y="724"/>
      <point x="251" y="724" type="curve" smooth="yes"/>
      <point x="147" y="724"/>
      <point x="101" y="659"/>
      <point x="101" y="572" type="curve" smooth="yes"/>
      <point x="101" y="502"/>
      <point x="121" y="459"/>
      <point x="162" y="403" type="curve"/>
      <point x="88" y="365"/>
      <point x="29" y="311"/>
      <point x="29" y="198" type="curve" smooth="yes"/>
      <point x="29" y="73"/>
      <point x="98" y="-10"/>
    </contour>
    <contour>
      <point x="234" y="45" type="curve" smooth="yes"/>
      <point x="165" y="45"/>
      <point x="117" y="96"/>
      <point x="117" y="200" type="curve" smooth="yes"/>
      <point x="117" y="292"/>
      <point x="148" y="339"/>
      <point x="190" y="368" type="curve"/>
      <point x="363" y="127" type="line"/>
      <point x="335" y="80"/>
      <point x="291" y="45"/>
    </contour>
    <contour>
      <point x="236" y="433" type="curve"/>
      <point x="196" y="490"/>
      <point x="179" y="529"/>
      <point x="179" y="580" type="curve" smooth="yes"/>
      <point x="179" y="640"/>
      <point x="205" y="679"/>
      <point x="254" y="679" type="curve" smooth="yes"/>
      <point x="302" y="679"/>
      <point x="326" y="636"/>
      <point x="326" y="581" type="curve" smooth="yes"/>
      <point x="326" y="510"/>
      <point x="299" y="467"/>
    </contour>
  </outline>
</glyph>
<glyph name="parenleft.mono" format="2">
  <advance width="500"/>
  <unicode hex="0028"/>
  <outline>
    <contour>
      <point x="301" y="-164" type="curve"/>
      <point x="371" y="-164" type="line"/>
      <point x="287" y="-40"/>
      <point x="241" y="116"/>
      <point x="241" y="272" type="curve" smooth="yes"/>
      <point x="241" y="430"/>
      <point x="285" y="583"/>
      <point x="372" y="714" type="curve"/>
      <point x="301" y="714" type="line"/>
      <point x="210" y="598"/>
      <point x="159" y="440"/>
      <point x="159" y="271" type="curve" smooth="yes"/>
      <point x="159" y="104"/>
      <point x="207" y="-50"/>
    </contour>
  </outline>
</glyph>
<glyph name="asterisk.mono" format="2">
  <advance width="500"/>
  <unicode hex="002A"/>
  <outline>
    <contour>
      <point x="309" y="428" type="line"/>
      <point x="378" y="469" type="line"/>
      <point x="293" y="580" type="line"/>
      <point x="412" y="589" type="line"/>
      <point x="397" y="667" type="line"/>
      <point x="277" y="631" type="line"/>
      <point x="292" y="761" type="line"/>
      <point x="208" y="761" type="line"/>
      <point x="222" y="631" type="line"/>
      <point x="103" y="666" type="line"/>
      <point x="87" y="588" type="line"/>
      <point x="204" y="580" type="line"/>
      <point x="122" y="469" type="line"/>
      <point x="189" y="428" type="line"/>
      <point x="250" y="550" type="line"/>
    </contour>
  </outline>
</glyph>
<glyph name="plus.mono" format="2">
  <advance width="500"/>
  <unicode hex="002B"/>
  <outline>
    <contour>
      <point x="216" y="119" type="line"/>
      <point x="285" y="119" type="line"/>
      <point x="285" y="319" type="line"/>
      <point x="434" y="319" type="line"/>
      <point x="434" y="387" type="line"/>
      <point x="285" y="387" type="line"/>
      <point x="285" y="588" type="line"/>
      <point x="216" y="588" type="line"/>
      <point x="216" y="387" type="line"/>
      <point x="66" y="387" type="line"/>
      <point x="66" y="319" type="line"/>
      <point x="216" y="319" type="line"/>
    </contour>
  </outline>
</glyph>
<glyph name="comma.mono" format="2">
  <advance width="500"/>
  <unicode hex="002C"/>
  <outline>
    <contour>
      <point x="159" y="-131" type="curve"/>
      <point x="222" y="-131" type="line"/>
      <point x="254" y="-59"/>
      <point x="284" y="27"/>
      <point x="303" y="104" type="curve"/>
      <point x="296" y="115" type="line"/>
      <point x="206" y="115" type="line"/>
      <point x="198" y="44"/>
      <point x="179" y="-52"/>
    </contour>
  </outline>
</glyph>
<glyph name="comma.sans" format="2">
  <advance width="226"/>
  <unicode hex="002C"/>
  <outline>
    <contour>
      <point x="167" y="114" type="line"/>
      <point x="81" y="114" type="line"/>
      <point x="74" y="42"/>
      <point x="57" y="-51"/>
      <point x="36" y="-132" type="curve"/>
      <point x="98" y="-132" type="line"/>
      <point x="130" y="-60"/>
      <point x="154" y="19"/>
      <point x="174" y="103" type="curve"/>
    </contour>
  </outline>
</glyph>
<glyph name="hyphen.mono" format="2">
  <advance width="500"/>
  <unicode hex="002D"/>
  <outline>
    <contour>
      <point x="124" y="232" type="line"/>
      <point x="375" y="232" type="line"/>
      <point x="375" y="310" type="line"/>
      <point x="124" y="310" type="line"/>
    </contour>
  </outline>
</glyph>
<glyph name="slash.mono" format="2">
  <advance width="500"/>
  <unicode hex="002F"/>
  <outline>
    <contour>
      <point x="19" y="-3" type="line"/>
      <point x="96" y="-3" type="line"/>
      <point x="358" y="717" type="line"/>
      <point x="282" y="717" type="line"/>
    </contour>
  </outline>
</glyph>
<glyph name="zero.sans" format="2">
  <advance width="429"/>
  <unicode hex="0030"/>
  <outline>
    <contour>
      <point x="387" y="357" type="curve" smooth="yes"/>
      <point x="387" y="603"/>
      <point x="331" y="724"/>
      <point x="214" y="724" type="curve" smooth="yes"/>
      <point x="98" y="724"/>
      <point x="41" y="604"/>
      <point x="41" y="357" type="curve" smooth="yes"/>
      <point x="41" y="71"/>
      <point x="106" y="-10"/>
      <point x="214" y="-10" type="curve" smooth="yes"/>
      <point x="337" y="-10"/>
      <point x="387" y="126"/>
    </contour>
    <contour>
      <point x="126" y="357" type="curve" smooth="yes"/>
      <point x="126" y="553"/>
      <point x="151" y="648"/>
      <point x="214" y="648" type="curve" smooth="yes"/>
      <point x="276" y="648"/>
      <point x="303" y="551"/>
      <point x="303" y="357" type="curve" smooth="yes"/>
      <point x="303" y="162"/>
      <point x="276" y="66"/>
      <point x="214" y="66" type="curve" smooth="yes"/>
      <point x="151" y="66"/>
      <point x="126" y="161"/>
    </contour>
  </outline>
</glyph>
<glyph name="seven.mono" format="2">
  <advance width="500"/>
  <unicode hex="0037"/>
  <outline>
    <contour>
      <point x="126" y="0" type="line"/>
      <point x="219" y="0" type="line"/>
      <point x="447" y="644" type="line"/>
      <point x="447" y="714" type="line"/>
      <point x="50" y="714" type="line"/>
      <point x="50" y="635" type="line"/>
      <point x="355" y="635" type="line"/>
    </contour>
  </outline>
</glyph>
<glyph name="seven.sans" format="2">
  <advance width="429"/>
  <unicode hex="0037"/>
  <outline>
    <contour>
      <point x="93" y="0" type="line"/>
      <point x="180" y="0" type="line"/>
      <point x="393" y="652" type="line"/>
      <point x="393" y="714" type="line"/>
      <point x="31" y="714" type="line"/>
      <point x="31" y="637" type="line"/>
      <point x="309" y="637" type="line"/>
    </contour>
  </outline>
</glyph>
<glyph name="colon.serif" format="2">
  <advance width="220"/>
  <unicode hex="003A"/>
  <outline>
    <contour>
      <point x="110" y="409" type="curve" smooth="yes"/>
      <point x="137" y="409"/>
      <point x="161" y="423"/>
      <point x="161" y="470" type="curve" smooth="yes"/>
      <point x="161" y="517"/>
      <point x="137" y="531"/>
      <point x="110" y="531" type="curve" smooth="yes"/>
      <point x="81" y="531"/>
      <point x="59" y="517"/>
      <point x="59" y="470" type="curve" smooth="yes"/>
      <point x="59" y="423"/>
      <point x="81" y="409"/>
    </contour>
    <contour>
      <point x="110" y="-7" type="curve" smooth="yes"/>
      <point x="137" y="-7"/>
      <point x="161" y="8"/>
      <point x="161" y="55" type="curve" smooth="yes"/>
      <point x="161" y="102"/>
      <point x="137" y="117"/>
      <point x="110" y="117" type="curve" smooth="yes"/>
      <point x="81" y="117"/>
      <point x="59" y="102"/>
      <point x="59" y="55" type="curve" smooth="yes"/>
      <point x="59" y="8"/>
      <point x="81" y="-7"/>
    </contour>
  </outline>
</glyph>
<glyph name="equal.mono" format="2">
  <advance width="500"/>
  <unicode hex="003D"/>
  <outline>
    <contour>
      <point x="50" y="415" type="line"/>
      <point x="450" y="415" type="line"/>
      <point x="450" y="493" type="line"/>
      <point x="50" y="493" type="line"/>
    </contour>
    <contour>
      <point x="50" y="211" type="line"/>
      <point x="450" y="211" type="line"/>
      <point x="450" y="289" type="line"/>
      <point x="50" y="289" type="line"/>
    </contour>
  </outline>
</glyph>
<glyph name="greater.mono" format="2">
  <advance width="500"/>
  <unicode hex="003E"/>
  <outline>
    <contour>
      <point x="64" y="132" type="line"/>
      <point x="435" y="332" type="line"/>
      <point x="435" y="380" type="line"/>
      <point x="64" y="578" type="line"/>
      <point x="64" y="500" type="line"/>
      <point x="343" y="355" type="line"/>
      <point x="64" y="210" type="line"/>
    </contour>
  </outline>
</glyph>
<glyph name="at.serif" format="2">
  <advance width="728"/>
  <unicode hex="0040"/>
  <outline>
    <contour>
      <point x="344" y="-142" type="curve" smooth="yes"/>
      <point x="447" y="-142"/>
      <point x="518" y="-94"/>
      <point x="574" y="-45" type="curve"/>
      <point x="555" y="-11" type="line"/>
      <point x="509" y="-53"/>
      <point x="441" y="-96"/>
      <point x="351" y="-96" type="curve" smooth="yes"/>
      <point x="204" y="-96"/>
      <point x="108" y="-3"/>
      <point x="108" y="214" type="curve" smooth="yes"/>
      <point x="108" y="486"/>
      <point x="249" y="673"/>
      <point x="414" y="673" type="curve" smooth="yes"/>
      <point x="546" y="673"/>
      <point x="640" y="568"/>
      <point x="640" y="386" type="curve" smooth="yes"/>
      <point x="640" y="219"/>
      <point x="580" y="122"/>
      <point x="534" y="122" type="curve" smooth="yes"/>
      <point x="512" y="122"/>
      <point x="489" y="144"/>
      <point x="489" y="198" type="curve" smooth="yes"/>
      <point x="489" y="217"/>
      <point x="491" y="245"/>
      <point x="496" y="277" type="curve" smooth="yes"/>
      <point x="534" y="520" type="line"/>
      <point x="515" y="520" type="line"/>
      <point x="484" y="499" type="line"/>
      <point x="468" y="514"/>
      <point x="438" y="529"/>
      <point x="407" y="529" type="curve" smooth="yes"/>
      <point x="272" y="529"/>
      <point x="205" y="373"/>
      <point x="205" y="248" type="curve" smooth="yes"/>
      <point x="205" y="134"/>
      <point x="257" y="77"/>
      <point x="320" y="77" type="curve" smooth="yes"/>
      <point x="376" y="77"/>
      <point x="410" y="122"/>
      <point x="432" y="174" type="curve"/>
      <point x="436" y="174" type="line"/>
      <point x="448" y="110"/>
      <point x="482" y="77"/>
      <point x="528" y="77" type="curve" smooth="yes"/>
      <point x="606" y="77"/>
      <point x="686" y="201"/>
      <point x="686" y="390" type="curve" smooth="yes"/>
      <point x="686" y="579"/>
      <point x="589" y="714"/>
      <point x="419" y="714" type="curve" smooth="yes"/>
      <point x="220" y="714"/>
      <point x="52" y="516"/>
      <point x="52" y="212" type="curve" smooth="yes"/>
      <point x="52" y="-28"/>
      <point x="177" y="-142"/>
    </contour>
    <contour>
      <point x="340" y="122" type="curve" smooth="yes"/>
      <point x="302" y="122"/>
      <point x="277" y="155"/>
      <point x="277" y="232" type="curve" smooth="yes"/>
      <point x="277" y="335"/>
      <point x="314" y="493"/>
      <point x="405" y="493" type="curve" smooth="yes"/>
      <point x="430" y="493"/>
      <point x="451" y="479"/>
      <point x="459" y="463" type="curve"/>
      <point x="423" y="245" type="line" smooth="yes"/>
      <point x="414" y="192"/>
      <point x="387" y="122"/>
    </contour>
  </outline>
</glyph>
<glyph name="A.serif" format="2">
  <advance width="568"/>
  <unicode hex="0041"/>
  <anchor x="464" y="0" name="bottom"/>
  <anchor x="284" y="714" name="top"/>
  <anchor x="458" y="714" name="topright"/>
  <outline>
    <contour>
      <point x="2" y="0" type="line"/>
      <point x="198" y="0" type="line"/>
      <point x="198" y="41" type="line"/>
      <point x="177" y="41" type="line" smooth="yes"/>
      <point x="141" y="41"/>
      <point x="127" y="59"/>
      <point x="127" y="86" type="curve" smooth="yes"/>
      <point x="127" y="104"/>
      <point x="134" y="129"/>
      <point x="138" y="145" type="curve" smooth="yes"/>
      <point x="163" y="240" type="line"/>
      <point x="366" y="240" type="line"/>
      <point x="393" y="138" type="line" smooth="yes"/>
      <point x="398" y="118"/>
      <point x="404" y="93"/>
      <point x="404" y="80" type="curve" smooth="yes"/>
      <point x="404" y="56"/>
      <point x="389" y="41"/>
      <point x="357" y="41" type="curve" smooth="yes"/>
      <point x="339" y="41" type="line"/>
      <point x="339" y="0" type="line"/>
      <point x="568" y="0" type="line"/>
      <point x="568" y="41" type="line"/>
      <point x="560" y="41" type="line" smooth="yes"/>
      <point x="527" y="41"/>
      <point x="512" y="51"/>
      <point x="502" y="87" type="curve" smooth="yes"/>
      <point x="324" y="714" type="line"/>
      <point x="250" y="714" type="line"/>
      <point x="76" y="119" type="line" smooth="yes"/>
      <point x="57" y="55"/>
      <point x="44" y="41"/>
      <point x="15" y="41" type="curve" smooth="yes"/>
      <point x="2" y="41" type="line"/>
    </contour>
    <contour>
      <point x="179" y="289" type="line"/>
      <point x="234" y="490" type="line" smooth="yes"/>
      <point x="247" y="539"/>
      <point x="259" y="587"/>
      <point x="267" y="624" type="curve"/>
      <point x="274" y="587"/>
      <point x="287" y="540"/>
      <point x="302" y="480" type="curve" smooth="yes"/>
      <point x="352" y="289" type="line"/>
    </contour>
  </outline>
</glyph>
<glyph name="B.serif" format="2">
  <advance width="529"/>
  <unicode hex="0042"/>
  <anchor x="265" y="0" name="bottom"/>
  <anchor x="265" y="714" name="top"/>
  <anchor x="509" y="714" name="topright"/>
  <outline>
    <contour>
      <point x="28" y="0" type="line"/>
      <point x="274" y="0" type="line" smooth="yes"/>
      <point x="416" y="0"/>
      <point x="484" y="64"/>
      <point x="484" y="193" type="curve" smooth="yes"/>
      <point x="484" y="303"/>
      <point x="432" y="365"/>
      <point x="355" y="377" type="curve"/>
      <point x="355" y="382" type="line"/>
      <point x="413" y="403"/>
      <point x="461" y="453"/>
      <point x="461" y="541" type="curve" smooth="yes"/>
      <point x="461" y="661"/>
      <point x="390" y="714"/>
      <point x="251" y="714" type="curve" smooth="yes"/>
      <point x="28" y="714" type="line"/>
      <point x="28" y="673" type="line"/>
      <point x="45" y="673" type="line" smooth="yes"/>
      <point x="77" y="673"/>
      <point x="103" y="665"/>
      <point x="103" y="606" type="curve" smooth="yes"/>
      <point x="103" y="112" type="line" smooth="yes"/>
      <point x="103" y="53"/>
      <point x="82" y="41"/>
      <point x="45" y="41" type="curve" smooth="yes"/>
      <point x="28" y="41" type="line"/>
    </contour>
    <contour>
      <point x="267" y="49" type="curve" smooth="yes"/>
      <point x="194" y="49" type="line"/>
      <point x="194" y="350" type="line"/>
      <point x="268" y="350" type="line" smooth="yes"/>
      <point x="356" y="350"/>
      <point x="387" y="300"/>
      <point x="387" y="196" type="curve" smooth="yes"/>
      <point x="387" y="88"/>
      <point x="351" y="49"/>
    </contour>
    <contour>
      <point x="246" y="399" type="curve" smooth="yes"/>
      <point x="194" y="399" type="line"/>
      <point x="194" y="665" type="line"/>
      <point x="245" y="665" type="line" smooth="yes"/>
      <point x="329" y="665"/>
      <point x="365" y="634"/>
      <point x="365" y="535" type="curve" smooth="yes"/>
      <point x="365" y="443"/>
      <point x="333" y="399"/>
    </contour>
  </outline>
</glyph>
<glyph name="C.serif" format="2">
  <advance width="498"/>
  <unicode hex="0043"/>
  <anchor x="289" y="0" name="bottom"/>
  <anchor x="299" y="714" name="top"/>
  <anchor x="478" y="714" name="topright"/>
  <outline>
    <contour>
      <point x="291" y="-10" type="curve" smooth="yes"/>
      <point x="416" y="-10"/>
      <point x="467" y="58"/>
      <point x="467" y="103" type="curve" smooth="yes"/>
      <point x="467" y="118"/>
      <point x="462" y="132"/>
      <point x="454" y="138" type="curve"/>
      <point x="424" y="89"/>
      <point x="386" y="46"/>
      <point x="306" y="46" type="curve" smooth="yes"/>
      <point x="192" y="46"/>
      <point x="144" y="162"/>
      <point x="144" y="358" type="curve" smooth="yes"/>
      <point x="144" y="552"/>
      <point x="187" y="672"/>
      <point x="292" y="672" type="curve" smooth="yes"/>
      <point x="369" y="672"/>
      <point x="395" y="609"/>
      <point x="395" y="545" type="curve"/>
      <point x="440" y="545"/>
      <point x="469" y="570"/>
      <point x="469" y="610" type="curve" smooth="yes"/>
      <point x="469" y="671"/>
      <point x="408" y="724"/>
      <point x="301" y="724" type="curve" smooth="yes"/>
      <point x="131" y="724"/>
      <point x="44" y="579"/>
      <point x="44" y="358" type="curve" smooth="yes"/>
      <point x="44" y="137"/>
      <point x="129" y="-10"/>
    </contour>
  </outline>
</glyph>
<glyph name="D.serif" format="2">
  <advance width="584"/>
  <unicode hex="0044"/>
  <anchor x="282" y="0" name="bottom"/>
  <anchor x="292" y="357" name="center"/>
  <anchor x="292" y="714" name="top"/>
  <anchor x="564" y="714" name="topright"/>
  <outline>
    <contour>
      <point x="28" y="0" type="line"/>
      <point x="275" y="0" type="line" smooth="yes"/>
      <point x="451" y="0"/>
      <point x="539" y="137"/>
      <point x="539" y="356" type="curve" smooth="yes"/>
      <point x="539" y="583"/>
      <point x="441" y="714"/>
      <point x="275" y="714" type="curve" smooth="yes"/>
      <point x="28" y="714" type="line"/>
      <point x="28" y="673" type="line"/>
      <point x="44" y="673" type="line" smooth="yes"/>
      <point x="79" y="673"/>
      <point x="103" y="662"/>
      <point x="103" y="605" type="curve" smooth="yes"/>
      <point x="103" y="112" type="line" smooth="yes"/>
      <point x="103" y="54"/>
      <point x="81" y="41"/>
      <point x="47" y="41" type="curve" smooth="yes"/>
      <point x="28" y="41" type="line"/>
    </contour>
    <contour>
      <point x="257" y="50" type="curve" smooth="yes"/>
      <point x="195" y="50" type="line"/>
      <point x="195" y="665" type="line"/>
      <point x="258" y="665" type="line" smooth="yes"/>
      <point x="378" y="665"/>
      <point x="439" y="556"/>
      <point x="439" y="356" type="curve" smooth="yes"/>
      <point x="439" y="158"/>
      <point x="378" y="50"/>
    </contour>
  </outline>
</glyph>
<glyph name="E.display" format="2">
  <advance width="391"/>
  <unicode hex="0045"/>
  <anchor x="214" y="0" name="bottom"/>
  <anchor x="210" y="714" name="top"/>
  <anchor x="372" y="714" name="topright"/>
  <outline>
    <contour>
      <point x="348" y="0" type="line"/>
      <point x="348" y="76" type="line"/>
      <point x="155" y="76" type="line"/>
      <point x="155" y="335" type="line"/>
      <point x="336" y="335" type="line"/>
      <point x="336" y="410" type="line"/>
      <point x="155" y="410" type="line"/>
      <point x="155" y="639" type="line"/>
      <point x="348" y="639" type="line"/>
      <point x="348" y="714" type="line"/>
      <point x="70" y="714" type="line"/>
      <point x="70" y="0" type="line"/>
    </contour>
  </outline>
</glyph>
<glyph name="E.serif" format="2">
  <advance width="499"/>
  <unicode hex="0045"/>
  <anchor x="250" y="0" name="bottom"/>
  <anchor x="250" y="714" name="top"/>
  <anchor x="479" y="714" name="topright"/>
  <outline>
    <contour>
      <point x="28" y="0" type="line"/>
      <point x="463" y="0" type="line"/>
      <point x="468" y="174" type="line"/>
      <point x="422" y="174" type="line"/>
      <point x="418" y="132" type="line" smooth="yes"/>
      <point x="412" y="88"/>
      <point x="392" y="49"/>
      <point x="341" y="49" type="curve" smooth="yes"/>
      <point x="195" y="49" type="line"/>
      <point x="195" y="350" type="line"/>
      <point x="384" y="350" type="line"/>
      <point x="384" y="398" type="line"/>
      <point x="195" y="398" type="line"/>
      <point x="195" y="665" type="line"/>
      <point x="322" y="665" type="line" smooth="yes"/>
      <point x="371" y="665"/>
      <point x="389" y="626"/>
      <point x="392" y="582" type="curve" smooth="yes"/>
      <point x="396" y="540" type="line"/>
      <point x="442" y="540" type="line"/>
      <point x="438" y="714" type="line"/>
      <point x="28" y="714" type="line"/>
      <point x="28" y="673" type="line"/>
      <point x="45" y="673" type="line" smooth="yes"/>
      <point x="78" y="673"/>
      <point x="103" y="664"/>
      <point x="103" y="602" type="curve" smooth="yes"/>
      <point x="103" y="107" type="line" smooth="yes"/>
      <point x="103" y="52"/>
      <point x="81" y="41"/>
      <point x="45" y="41" type="curve" smooth="yes"/>
      <point x="28" y="41" type="line"/>
    </contour>
  </outline>
</glyph>
<glyph name="F.mono" format="2">
  <advance width="500"/>
  <unicode hex="0046"/>
  <anchor x="258" y="0" name="bottom"/>
  <anchor x="258" y="714" name="top"/>
  <anchor x="480" y="714" name="topright"/>
  <outline>
    <contour>
      <point x="65" y="0" type="line"/>
      <point x="149" y="0" type="line"/>
      <point x="149" y="305" type="line"/>
      <point x="428" y="305" type="line"/>
      <point x="428" y="383" type="line"/>
      <point x="149" y="383" type="line"/>
      <point x="149" y="636" type="line"/>
      <point x="440" y="636" type="line"/>
      <point x="440" y="714" type="line"/>
      <point x="65" y="714" type="line"/>
    </contour>
  </outline>
</glyph>
<glyph name="F.serif" format="2">
  <advance width="474"/>
  <unicode hex="0046"/>
  <anchor x="150" y="0" name="bottom"/>
  <anchor x="237" y="714" name="top"/>
  <anchor x="454" y="714" name="topright"/>
  <outline>
    <contour>
      <point x="28" y="0" type="line"/>
      <point x="285" y="0" type="line"/>
      <point x="285" y="41" type="line"/>
      <point x="261" y="41" type="line" smooth="yes"/>
      <point x="221" y="41"/>
      <point x="195" y="53"/>
      <point x="195" y="111" type="curve" smooth="yes"/>
      <point x="195" y="326" type="line"/>
      <point x="385" y="326" type="line"/>
      <point x="385" y="375" type="line"/>
      <point x="195" y="375" type="line"/>
      <point x="195" y="665" type="line"/>
      <point x="323" y="665" type="line" smooth="yes"/>
      <point x="369" y="665"/>
      <point x="388" y="626"/>
      <point x="392" y="583" type="curve" smooth="yes"/>
      <point x="396" y="540" type="line"/>
      <point x="442" y="540" type="line"/>
      <point x="437" y="714" type="line"/>
      <point x="28" y="714" type="line"/>
      <point x="28" y="673" type="line"/>
      <point x="45" y="673" type="line" smooth="yes"/>
      <point x="79" y="673"/>
      <point x="103" y="662"/>
      <point x="103" y="606" type="curve" smooth="yes"/>
      <point x="103" y="107" type="line" smooth="yes"/>
      <point x="103" y="51"/>
      <point x="81" y="41"/>
      <point x="41" y="41" type="curve" smooth="yes"/>
      <point x="28" y="41" type="line"/>
    </contour>
  </outline>
</glyph>
<glyph name="H.serif" format="2">
  <advance width="633"/>
  <unicode hex="0048"/>
  <anchor x="317" y="0" name="bottom"/>
  <anchor x="317" y="367" name="center"/>
  <anchor x="317" y="714" name="top"/>
  <anchor x="613" y="714" name="topright"/>
  <outline>
    <contour>
      <point x="28" y="0" type="line"/>
      <point x="264" y="0" type="line"/>
      <point x="264" y="41" type="line"/>
      <point x="251" y="41" type="line" smooth="yes"/>
      <point x="216" y="41"/>
      <point x="196" y="53"/>
      <point x="196" y="111" type="curve" smooth="yes"/>
      <point x="196" y="349" type="line"/>
      <point x="438" y="349" type="line"/>
      <point x="438" y="112" type="line" smooth="yes"/>
      <point x="438" y="53"/>
      <point x="417" y="41"/>
      <point x="381" y="41" type="curve" smooth="yes"/>
      <point x="369" y="41" type="line"/>
      <point x="369" y="0" type="line"/>
      <point x="605" y="0" type="line"/>
      <point x="605" y="41" type="line"/>
      <point x="587" y="41" type="line" smooth="yes"/>
      <point x="553" y="41"/>
      <point x="530" y="52"/>
      <point x="530" y="108" type="curve" smooth="yes"/>
      <point x="530" y="603" type="line" smooth="yes"/>
      <point x="530" y="662"/>
      <point x="552" y="673"/>
      <point x="587" y="673" type="curve" smooth="yes"/>
      <point x="605" y="673" type="line"/>
      <point x="605" y="714" type="line"/>
      <point x="369" y="714" type="line"/>
      <point x="369" y="673" type="line"/>
      <point x="381" y="673" type="line" smooth="yes"/>
      <point x="417" y="673"/>
      <point x="438" y="662"/>
      <point x="438" y="603" type="curve" smooth="yes"/>
      <point x="438" y="398" type="line"/>
      <point x="196" y="398" type="line"/>
      <point x="196" y="604" type="line" smooth="yes"/>
      <point x="196" y="662"/>
      <point x="216" y="673"/>
      <point x="251" y="673" type="curve" smooth="yes"/>
      <point x="264" y="673" type="line"/>
      <point x="264" y="714" type="line"/>
      <point x="28" y="714" type="line"/>
      <point x="28" y="673" type="line"/>
      <point x="43" y="673" type="line" smooth="yes"/>
      <point x="78" y="673"/>
      <point x="103" y="662"/>
      <point x="103" y="605" type="curve" smooth="yes"/>
      <point x="103" y="111" type="line" smooth="yes"/>
      <point x="103" y="53"/>
      <point x="81" y="41"/>
      <point x="47" y="41" type="curve" smooth="yes"/>
      <point x="28" y="41" type="line"/>
    </contour>
  </outline>
</glyph>
<glyph name="I.mono" format="2">
  <advance width="500"/>
  <unicode hex="0049"/>
  <anchor x="250" y="0" name="bottom"/>
  <anchor x="316" y="10" name="ogonek"/>
  <anchor x="250" y="714" name="top"/>
  <anchor x="20" y="714" name="topleft"/>
  <anchor x="480" y="714" name="topright"/>
  <outline>
    <contour>
      <point x="75" y="0" type="line"/>
      <point x="425" y="0" type="line"/>
      <point x="425" y="59" type="line"/>
      <point x="290" y="69" type="line"/>
      <point x="290" y="645" type="line"/>
      <point x="425" y="655" type="line"/>
      <point x="425" y="714" type="line"/>
      <point x="75" y="714" type="line"/>
      <point x="75" y="655" type="line"/>
      <point x="208" y="645" type="line"/>
      <point x="208" y="69" type="line"/>
      <point x="75" y="59" type="line"/>
    </contour>
  </outline>
</glyph>
<glyph name="I.serif" format="2">
  <advance width="297"/>
  <unicode hex="0049"/>
  <anchor x="149" y="0" name="bottom"/>
  <anchor x="149" y="714" name="top"/>
  <anchor x="277" y="714" name="topright"/>
  <outline>
    <contour>
      <point x="28" y="0" type="line"/>
      <point x="270" y="0" type="line"/>
      <point x="270" y="41" type="line"/>
      <point x="251" y="41" type="line" smooth="yes"/>
      <point x="218" y="41"/>
      <point x="195" y="53"/>
      <point x="195" y="111" type="curve" smooth="yes"/>
      <point x="195" y="602" type="line" smooth="yes"/>
      <point x="195" y="662"/>
      <point x="217" y="673"/>
      <point x="251" y="673" type="curve" smooth="yes"/>
      <point x="270" y="673" type="line"/>
      <point x="270" y="714" type="line"/>
      <point x="28" y="714" type="line"/>
      <point x="28" y="673" type="line"/>
      <point x="47" y="673" type="line" smooth="yes"/>
      <point x="78" y="673"/>
      <point x="103" y="662"/>
      <point x="103" y="602" type="curve" smooth="yes"/>
      <point x="103" y="110" type="line" smooth="yes"/>
      <point x="103" y="52"/>
      <point x="78" y="41"/>
      <point x="47" y="41" type="curve" smooth="yes"/>
      <point x="28" y="41" type="line"/>
    </contour>
  </outline>
</glyph>
<glyph name="J.serif" format="2">
  <advance width="296"/>
  <unicode hex="004A"/>
  <anchor x="95" y="-240" name="bottom"/>
  <anchor x="150" y="714" name="top"/>
  <anchor x="272" y="714" name="topright"/>
  <outline>
    <contour>
      <point x="-7" y="-240" type="line"/>
      <point x="11" y="-240" type="line" smooth="yes"/>
      <point x="113" y="-240"/>
      <point x="199" y="-188"/>
      <point x="199" y="-9" type="curve" smooth="yes"/>
      <point x="199" y="602" type="line" smooth="yes"/>
      <point x="199" y="662"/>
      <point x="224" y="673"/>
      <point x="256" y="673" type="curve" smooth="yes"/>
      <point x="274" y="673" type="line"/>
      <point x="274" y="714" type="line"/>
      <point x="33" y="714" type="line"/>
      <point x="33" y="673" type="line"/>
      <point x="50" y="673" type="line" smooth="yes"/>
      <point x="82" y="673"/>
      <point x="107" y="662"/>
      <point x="107" y="606" type="curve" smooth="yes"/>
      <point x="107" y="-10" type="line" smooth="yes"/>
      <point x="107" y="-151"/>
      <point x="65" y="-194"/>
      <point x="2" y="-194" type="curve" smooth="yes"/>
      <point x="-7" y="-194" type="line"/>
    </contour>
  </outline>
</glyph>
<glyph name="K.serif" format="2">
  <advance width="568"/>
  <unicode hex="004B"/>
  <anchor x="320" y="0" name="bottom"/>
  <anchor x="310" y="714" name="top"/>
  <anchor x="548" y="714" name="topright"/>
  <outline>
    <contour>
      <point x="28" y="0" type="line"/>
      <point x="264" y="0" type="line"/>
      <point x="264" y="41" type="line"/>
      <point x="255" y="41" type="line" smooth="yes"/>
      <point x="219" y="41"/>
      <point x="196" y="52"/>
      <point x="196" y="110" type="curve" smooth="yes"/>
      <point x="196" y="255" type="line"/>
      <point x="259" y="344" type="line"/>
      <point x="389" y="105" type="line" smooth="yes"/>
      <point x="434" y="19"/>
      <point x="458" y="0"/>
      <point x="546" y="0" type="curve" smooth="yes"/>
      <point x="577" y="0" type="line"/>
      <point x="577" y="41" type="line"/>
      <point x="574" y="41" type="line" smooth="yes"/>
      <point x="545" y="41"/>
      <point x="519" y="70"/>
      <point x="489" y="122" type="curve" smooth="yes"/>
      <point x="318" y="414" type="line"/>
      <point x="433" y="582" type="line" smooth="yes"/>
      <point x="473" y="641"/>
      <point x="503" y="674"/>
      <point x="541" y="674" type="curve"/>
      <point x="541" y="714" type="line"/>
      <point x="358" y="714" type="line"/>
      <point x="358" y="674" type="line"/>
      <point x="388" y="674"/>
      <point x="401" y="669"/>
      <point x="401" y="653" type="curve" smooth="yes"/>
      <point x="401" y="634"/>
      <point x="387" y="609"/>
      <point x="353" y="557" type="curve" smooth="yes"/>
      <point x="196" y="306" type="line"/>
      <point x="196" y="604" type="line" smooth="yes"/>
      <point x="196" y="662"/>
      <point x="217" y="673"/>
      <point x="252" y="673" type="curve" smooth="yes"/>
      <point x="264" y="673" type="line"/>
      <point x="264" y="714" type="line"/>
      <point x="28" y="714" type="line"/>
      <point x="28" y="673" type="line"/>
      <point x="45" y="673" type="line" smooth="yes"/>
      <point x="79" y="673"/>
      <point x="103" y="662"/>
      <point x="103" y="607" type="curve" smooth="yes"/>
      <point x="103" y="107" type="line" smooth="yes"/>
      <point x="103" y="51"/>
      <point x="78" y="41"/>
      <point x="43" y="41" type="curve" smooth="yes"/>
      <point x="28" y="41" type="line"/>
    </contour>
  </outline>
</glyph>
<glyph name="L.mono" format="2">
  <advance width="500"/>
  <unicode hex="004C"/>
  <anchor x="270" y="0" name="bottom"/>
  <anchor x="250" y="357" name="center"/>
  <anchor x="119" y="714" name="top"/>
  <anchor x="363" y="714" name="topright"/>
  <outline>
    <contour>
      <point x="75" y="0" type="line"/>
      <point x="440" y="0" type="line"/>
      <point x="440" y="80" type="line"/>
      <point x="159" y="80" type="line"/>
      <point x="159" y="714" type="line"/>
      <point x="75" y="714" type="line"/>
    </contour>
  </outline>
</glyph>
<glyph name="L.serif" format="2">
  <advance width="498"/>
  <unicode hex="004C"/>
  <anchor x="249" y="0" name="bottom"/>
  <anchor x="152" y="357" name="center"/>
  <anchor x="147" y="714" name="top"/>
  <anchor x="478" y="714" name="topright"/>
  <outline>
    <contour>
      <point x="28" y="0" type="line"/>
      <point x="463" y="0" type="line"/>
      <point x="468" y="214" type="line"/>
      <point x="429" y="214" type="line"/>
      <point x="420" y="139" type="line" smooth="yes"/>
      <point x="413" y="84"/>
      <point x="395" y="49"/>
      <point x="349" y="49" type="curve" smooth="yes"/>
      <point x="195" y="49" type="line"/>
      <point x="195" y="606" type="line" smooth="yes"/>
      <point x="195" y="662"/>
      <point x="215" y="673"/>
      <point x="253" y="673" type="curve" smooth="yes"/>
      <point x="270" y="673" type="line"/>
      <point x="270" y="714" type="line"/>
      <point x="28" y="714" type="line"/>
      <point x="28" y="673" type="line"/>
      <point x="44" y="673" type="line" smooth="yes"/>
      <point x="78" y="673"/>
      <point x="103" y="662"/>
      <point x="103" y="603" type="curve" smooth="yes"/>
      <point x="103" y="110" type="line" smooth="yes"/>
      <point x="103" y="52"/>
      <point x="78" y="41"/>
      <point x="47" y="41" type="curve" smooth="yes"/>
      <point x="28" y="41" type="line"/>
    </contour>
  </outline>
</glyph>
<glyph name="M.serif" format="2">
  <advance width="745"/>
  <unicode hex="004D"/>
  <anchor x="363" y="0" name="bottom"/>
  <anchor x="373" y="714" name="top"/>
  <anchor x="725" y="714" name="topright"/>
  <outline>
    <contour>
      <point x="28" y="0" type="line"/>
      <point x="220" y="0" type="line"/>
      <point x="220" y="41" type="line"/>
      <point x="211" y="41" type="line" smooth="yes"/>
      <point x="176" y="41"/>
      <point x="154" y="50"/>
      <point x="154" y="113" type="curve" smooth="yes"/>
      <point x="154" y="640" type="line"/>
      <point x="329" y="0" type="line"/>
      <point x="383" y="0" type="line"/>
      <point x="555" y="642" type="line"/>
      <point x="555" y="113" type="line" smooth="yes"/>
      <point x="555" y="52"/>
      <point x="537" y="41"/>
      <point x="497" y="41" type="curve"/>
      <point x="486" y="41" type="line"/>
      <point x="486" y="0" type="line"/>
      <point x="717" y="0" type="line"/>
      <point x="717" y="41" type="line"/>
      <point x="702" y="41" type="line" smooth="yes"/>
      <point x="665" y="41"/>
      <point x="643" y="52"/>
      <point x="643" y="110" type="curve" smooth="yes"/>
      <point x="643" y="604" type="line" smooth="yes"/>
      <point x="643" y="662"/>
      <point x="667" y="673"/>
      <point x="699" y="673" type="curve" smooth="yes"/>
      <point x="717" y="673" type="line"/>
      <point x="717" y="714" type="line"/>
      <point x="525" y="714" type="line"/>
      <point x="373" y="133" type="line"/>
      <point x="220" y="714" type="line"/>
      <point x="28" y="714" type="line"/>
      <point x="28" y="673" type="line"/>
      <point x="45" y="673" type="line" smooth="yes"/>
      <point x="78" y="673"/>
      <point x="103" y="662"/>
      <point x="103" y="605" type="curve" smooth="yes"/>
      <point x="103" y="108" type="line" smooth="yes"/>
      <point x="103" y="51"/>
      <point x="78" y="41"/>
      <point x="40" y="41" type="curve" smooth="yes"/>
      <point x="28" y="41" type="line"/>
    </contour>
  </outline>
</glyph>
<glyph name="N.serif" format="2">
  <advance width="608"/>
  <unicode hex="004E"/>
  <anchor x="305" y="0" name="bottom"/>
  <anchor x="305" y="714" name="top"/>
  <anchor x="588" y="714" name="topright"/>
  <outline>
    <contour>
      <point x="28" y="0" type="line"/>
      <point x="229" y="0" type="line"/>
      <point x="229" y="41" type="line"/>
      <point x="213" y="41" type="line" smooth="yes"/>
      <point x="176" y="41"/>
      <point x="154" y="50"/>
      <point x="154" y="113" type="curve" smooth="yes"/>
      <point x="154" y="594" type="line"/>
      <point x="451" y="0" type="line"/>
      <point x="514" y="0" type="line"/>
      <point x="514" y="601" type="line" smooth="yes"/>
      <point x="514" y="662"/>
      <point x="538" y="673"/>
      <point x="574" y="673" type="curve" smooth="yes"/>
      <point x="589" y="673" type="line"/>
      <point x="589" y="714" type="line"/>
      <point x="389" y="714" type="line"/>
      <point x="389" y="673" type="line"/>
      <point x="403" y="673" type="line" smooth="yes"/>
      <point x="439" y="673"/>
      <point x="463" y="663"/>
      <point x="463" y="605" type="curve" smooth="yes"/>
      <point x="463" y="150" type="line"/>
      <point x="186" y="714" type="line"/>
      <point x="28" y="714" type="line"/>
      <point x="28" y="673" type="line"/>
      <point x="43" y="673" type="line" smooth="yes"/>
      <point x="78" y="673"/>
      <point x="103" y="664"/>
      <point x="103" y="605" type="curve" smooth="yes"/>
      <point x="103" y="113" type="line" smooth="yes"/>
      <point x="103" y="50"/>
      <point x="79" y="41"/>
      <point x="40" y="41" type="curve" smooth="yes"/>
      <point x="28" y="41" type="line"/>
    </contour>
  </outline>
</glyph>
<glyph name="O.serif" format="2">
  <advance width="597"/>
  <unicode hex="004F"/>
  <anchor x="299" y="0" name="bottom"/>
  <anchor x="299" y="357" name="center"/>
  <anchor x="299" y="714" name="top"/>
  <anchor x="577" y="714" name="topright"/>
  <outline>
    <contour>
      <point x="298" y="-10" type="curve" smooth="yes"/>
      <point x="461" y="-10"/>
      <point x="552" y="137"/>
      <point x="552" y="358" type="curve" smooth="yes"/>
      <point x="552" y="580"/>
      <point x="461" y="725"/>
      <point x="299" y="725" type="curve" smooth="yes"/>
      <point x="127" y="725"/>
      <point x="44" y="580"/>
      <point x="44" y="359" type="curve" smooth="yes"/>
      <point x="44" y="137"/>
      <point x="127" y="-10"/>
    </contour>
    <contour>
      <point x="298" y="43" type="curve" smooth="yes"/>
      <point x="190" y="43"/>
      <point x="144" y="160"/>
      <point x="144" y="358" type="curve" smooth="yes"/>
      <point x="144" y="557"/>
      <point x="190" y="672"/>
      <point x="299" y="672" type="curve" smooth="yes"/>
      <point x="412" y="672"/>
      <point x="452" y="557"/>
      <point x="452" y="358" type="curve" smooth="yes"/>
      <point x="452" y="160"/>
      <point x="412" y="43"/>
    </contour>
  </outline>
</glyph>
<glyph name="P.mono" format="2">
  <advance width="500"/>
  <unicode hex="0050"/>
  <anchor x="250" y="0" name="bottom"/>
  <anchor x="250" y="714" name="top"/>
  <anchor x="500" y="714" name="topright"/>
  <outline>
    <contour>
      <point x="65" y="0" type="line"/>
      <point x="147" y="0" type="line"/>
      <point x="147" y="278" type="line"/>
      <point x="239" y="278" type="line" smooth="yes"/>
      <point x="395" y="278"/>
      <point x="455" y="374"/>
      <point x="455" y="505" type="curve" smooth="yes"/>
      <point x="455" y="638"/>
      <point x="390" y="714"/>
      <point x="249" y="714" type="curve" smooth="yes"/>
      <point x="65" y="714" type="line"/>
    </contour>
    <contour>
      <point x="231" y="355" type="curve" smooth="yes"/>
      <point x="147" y="355" type="line"/>
      <point x="147" y="637" type="line"/>
      <point x="246" y="637" type="line" smooth="yes"/>
      <point x="331" y="637"/>
      <point x="369" y="593"/>
      <point x="369" y="500" type="curve" smooth="yes"/>
      <point x="369" y="394"/>
      <point x="325" y="355"/>
    </contour>
  </outline>
</glyph>
<glyph name="P.serif" format="2">
  <advance width="485"/>
  <unicode hex="0050"/>
  <anchor x="150" y="0" name="bottom"/>
  <anchor x="243" y="714" name="top"/>
  <anchor x="486" y="714" name="topright"/>
  <outline>
    <contour>
      <point x="28" y="0" type="line"/>
      <point x="281" y="0" type="line"/>
      <point x="281" y="41" type="line"/>
      <point x="258" y="41" type="line" smooth="yes"/>
      <point x="224" y="41"/>
      <point x="196" y="49"/>
      <point x="196" y="108" type="curve" smooth="yes"/>
      <point x="196" y="278" type="line"/>
      <point x="241" y="278" type="line" smooth="yes"/>
      <point x="404" y="278"/>
      <point x="462" y="384"/>
      <point x="462" y="505" type="curve" smooth="yes"/>
      <point x="462" y="638"/>
      <point x="398" y="714"/>
      <point x="259" y="714" type="curve" smooth="yes"/>
      <point x="28" y="714" type="line"/>
      <point x="28" y="673" type="line"/>
      <point x="44" y="673" type="line" smooth="yes"/>
      <point x="77" y="673"/>
      <point x="103" y="664"/>
      <point x="103" y="605" type="curve" smooth="yes"/>
      <point x="103" y="113" type="line" smooth="yes"/>
      <point x="103" y="50"/>
      <point x="78" y="41"/>
      <point x="42" y="41" type="curve" smooth="yes"/>
      <point x="28" y="41" type="line"/>
    </contour>
    <contour>
      <point x="234" y="324" type="curve" smooth="yes"/>
      <point x="195" y="324" type="line"/>
      <point x="195" y="667" type="line"/>
      <point x="246" y="667" type="line" smooth="yes"/>
      <point x="331" y="667"/>
      <point x="365" y="614"/>
      <point x="365" y="501" type="curve" smooth="yes"/>
      <point x="365" y="373"/>
      <point x="327" y="324"/>
    </contour>
  </outline>
</glyph>
<glyph name="Q.mono" format="2">
  <advance width="500"/>
  <unicode hex="0051"/>
  <anchor x="250" y="-220" name="bottom"/>
  <anchor x="250" y="714" name="top"/>
  <anchor x="500" y="714" name="topright"/>
  <outline>
    <contour>
      <point x="379" y="-180" type="line"/>
      <point x="469" y="-180" type="line"/>
      <point x="347" y="92" type="line"/>
      <point x="290" y="27" type="line"/>
    </contour>
    <component base="O"/>
  </outline>
</glyph>
<glyph name="Q.serif" format="2">
  <advance width="597"/>
  <unicode hex="0051"/>
  <anchor x="299" y="-228" name="bottom"/>
  <anchor x="299" y="714" name="top"/>
  <anchor x="577" y="714" name="topright"/>
  <outline>
    <contour>
      <point x="446" y="-228" type="curve" smooth="yes"/>
      <point x="487" y="-228" type="line"/>
      <point x="487" y="-182" type="line"/>
      <point x="474" y="-182" type="line" smooth="yes"/>
      <point x="412" y="-182"/>
      <point x="366" y="-140"/>
      <point x="357" y="-5" type="curve"/>
      <point x="482" y="24"/>
      <point x="552" y="162"/>
      <point x="552" y="358" type="curve" smooth="yes"/>
      <point x="552" y="580"/>
      <point x="461" y="725"/>
      <point x="299" y="725" type="curve" smooth="yes"/>
      <point x="127" y="725"/>
      <point x="44" y="580"/>
      <point x="44" y="359" type="curve" smooth="yes"/>
      <point x="44" y="151"/>
      <point x="114" y="10"/>
      <point x="258" y="-9" type="curve"/>
      <point x="268" y="-180"/>
      <point x="360" y="-228"/>
    </contour>
    <contour>
      <point x="298" y="43" type="curve" smooth="yes"/>
      <point x="187" y="43"/>
      <point x="144" y="160"/>
      <point x="144" y="358" type="curve" smooth="yes"/>
      <point x="144" y="557"/>
      <point x="187" y="672"/>
      <point x="299" y="672" type="curve" smooth="yes"/>
      <point x="412" y="672"/>
      <point x="452" y="557"/>
      <point x="452" y="358" type="curve" smooth="yes"/>
      <point x="452" y="160"/>
      <point x="412" y="43"/>
    </contour>
  </outline>
</glyph>
<glyph name="R.serif" format="2">
  <advance width="532"/>
  <unicode hex="0052"/>
  <anchor x="284" y="0" name="bottom"/>
  <anchor x="266" y="714" name="top"/>
  <anchor x="512" y="714" name="topright"/>
  <outline>
    <contour>
      <point x="28" y="0" type="line"/>
      <point x="264" y="0" type="line"/>
      <point x="264" y="41" type="line"/>
      <point x="255" y="41" type="line" smooth="yes"/>
      <point x="219" y="41"/>
      <point x="196" y="49"/>
      <point x="196" y="108" type="curve" smooth="yes"/>
      <point x="196" y="315" type="line"/>
      <point x="261" y="315" type="line"/>
      <point x="365" y="90" type="line" smooth="yes"/>
      <point x="397" y="16"/>
      <point x="436" y="0"/>
      <point x="520" y="0" type="curve" smooth="yes"/>
      <point x="535" y="0" type="line"/>
      <point x="535" y="41" type="line"/>
      <point x="532" y="41" type="line" smooth="yes"/>
      <point x="500" y="41"/>
      <point x="477" y="69"/>
      <point x="451" y="121" type="curve" smooth="yes"/>
      <point x="345" y="336" type="line"/>
      <point x="409" y="360"/>
      <point x="463" y="414"/>
      <point x="463" y="526" type="curve" smooth="yes"/>
      <point x="463" y="657"/>
      <point x="399" y="714"/>
      <point x="252" y="714" type="curve" smooth="yes"/>
      <point x="28" y="714" type="line"/>
      <point x="28" y="673" type="line"/>
      <point x="42" y="673" type="line" smooth="yes"/>
      <point x="75" y="673"/>
      <point x="103" y="664"/>
      <point x="103" y="605" type="curve" smooth="yes"/>
      <point x="103" y="108" type="line" smooth="yes"/>
      <point x="103" y="49"/>
      <point x="76" y="41"/>
      <point x="42" y="41" type="curve" smooth="yes"/>
      <point x="28" y="41" type="line"/>
    </contour>
    <contour>
      <point x="237" y="361" type="curve" smooth="yes"/>
      <point x="196" y="361" type="line"/>
      <point x="196" y="667" type="line"/>
      <point x="246" y="667" type="line" smooth="yes"/>
      <point x="331" y="667"/>
      <point x="366" y="618"/>
      <point x="366" y="522" type="curve" smooth="yes"/>
      <point x="366" y="418"/>
      <point x="326" y="361"/>
    </contour>
  </outline>
</glyph>
<glyph name="S.serif" format="2">
  <advance width="435"/>
  <unicode hex="0053"/>
  <anchor x="218" y="0" name="bottom"/>
  <anchor x="228" y="714" name="top"/>
  <anchor x="415" y="714" name="topright"/>
  <outline>
    <contour>
      <point x="213" y="-10" type="curve" smooth="yes"/>
      <point x="323" y="-10"/>
      <point x="401" y="60"/>
      <point x="401" y="187" type="curve" smooth="yes"/>
      <point x="401" y="294"/>
      <point x="350" y="348"/>
      <point x="253" y="401" type="curve" smooth="yes"/>
      <point x="159" y="452"/>
      <point x="130" y="487"/>
      <point x="130" y="559" type="curve" smooth="yes"/>
      <point x="130" y="631"/>
      <point x="161" y="677"/>
      <point x="220" y="677" type="curve" smooth="yes"/>
      <point x="284" y="677"/>
      <point x="315" y="617"/>
      <point x="315" y="550" type="curve"/>
      <point x="360" y="550"/>
      <point x="384" y="568"/>
      <point x="384" y="611" type="curve" smooth="yes"/>
      <point x="384" y="666"/>
      <point x="329" y="724"/>
      <point x="229" y="724" type="curve" smooth="yes"/>
      <point x="130" y="724"/>
      <point x="53" y="654"/>
      <point x="53" y="548" type="curve" smooth="yes"/>
      <point x="53" y="439"/>
      <point x="99" y="381"/>
      <point x="192" y="328" type="curve" smooth="yes"/>
      <point x="279" y="279"/>
      <point x="323" y="243"/>
      <point x="323" y="160" type="curve" smooth="yes"/>
      <point x="323" y="81"/>
      <point x="286" y="36"/>
      <point x="219" y="36" type="curve" smooth="yes"/>
      <point x="150" y="36"/>
      <point x="106" y="100"/>
      <point x="101" y="195" type="curve"/>
      <point x="63" y="195"/>
      <point x="36" y="168"/>
      <point x="36" y="126" type="curve" smooth="yes"/>
      <point x="36" y="45"/>
      <point x="91" y="-10"/>
    </contour>
  </outline>
</glyph>
<glyph name="T.mono" format="2">
  <advance width="500"/>
  <unicode hex="0054"/>
  <anchor x="250" y="0" name="bottom"/>
  <anchor x="250" y="357" name="center"/>
  <anchor x="250" y="714" name="top"/>
  <anchor x="480" y="714" name="topright"/>
  <outline>
    <contour>
      <point x="207" y="0" type="line"/>
      <point x="291" y="0" type="line"/>
      <point x="291" y="636" type="line"/>
      <point x="465" y="636" type="line"/>
      <point x="465" y="714" type="line"/>
      <point x="35" y="714" type="line"/>
      <point x="35" y="636" type="line"/>
      <point x="207" y="636" type="line"/>
    </contour>
  </outline>
</glyph>
<glyph name="T.serif" format="2">
  <advance width="494"/>
  <unicode hex="0054"/>
  <anchor x="247" y="0" name="bottom"/>
  <anchor x="247" y="357" name="center"/>
  <anchor x="247" y="714" name="top"/>
  <anchor x="474" y="714" name="topright"/>
  <outline>
    <contour>
      <point x="116" y="0" type="line"/>
      <point x="375" y="0" type="line"/>
      <point x="375" y="41" type="line"/>
      <point x="360" y="41" type="line" smooth="yes"/>
      <point x="322" y="41"/>
      <point x="292" y="50"/>
      <point x="292" y="113" type="curve" smooth="yes"/>
      <point x="292" y="665" type="line"/>
      <point x="365" y="665" type="line" smooth="yes"/>
      <point x="412" y="665"/>
      <point x="427" y="626"/>
      <point x="431" y="582" type="curve" smooth="yes"/>
      <point x="436" y="541" type="line"/>
      <point x="479" y="541" type="line"/>
      <point x="475" y="714" type="line"/>
      <point x="18" y="714" type="line"/>
      <point x="14" y="541" type="line"/>
      <point x="58" y="541" type="line"/>
      <point x="62" y="582" type="line" smooth="yes"/>
      <point x="66" y="626"/>
      <point x="81" y="665"/>
      <point x="127" y="665" type="curve" smooth="yes"/>
      <point x="200" y="665" type="line"/>
      <point x="200" y="108" type="line" smooth="yes"/>
      <point x="200" y="49"/>
      <point x="169" y="41"/>
      <point x="131" y="41" type="curve" smooth="yes"/>
      <point x="116" y="41" type="line"/>
    </contour>
  </outline>
</glyph>
<glyph name="U.serif" format="2">
  <advance width="573"/>
  <unicode hex="0055"/>
  <anchor x="287" y="0" name="bottom"/>
  <anchor x="302" y="714" name="top"/>
  <anchor x="563" y="714" name="topright"/>
  <outline>
    <contour>
      <point x="288" y="-10" type="curve" smooth="yes"/>
      <point x="419" y="-10"/>
      <point x="486" y="73"/>
      <point x="486" y="206" type="curve" smooth="yes"/>
      <point x="486" y="601" type="line" smooth="yes"/>
      <point x="486" y="664"/>
      <point x="512" y="673"/>
      <point x="550" y="673" type="curve" smooth="yes"/>
      <point x="561" y="673" type="line"/>
      <point x="561" y="714" type="line"/>
      <point x="361" y="714" type="line"/>
      <point x="361" y="673" type="line"/>
      <point x="371" y="673" type="line" smooth="yes"/>
      <point x="409" y="673"/>
      <point x="434" y="664"/>
      <point x="434" y="605" type="curve" smooth="yes"/>
      <point x="434" y="208" type="line" smooth="yes"/>
      <point x="434" y="118"/>
      <point x="392" y="49"/>
      <point x="307" y="49" type="curve" smooth="yes"/>
      <point x="231" y="49"/>
      <point x="179" y="93"/>
      <point x="179" y="210" type="curve" smooth="yes"/>
      <point x="179" y="601" type="line" smooth="yes"/>
      <point x="179" y="664"/>
      <point x="205" y="673"/>
      <point x="243" y="673" type="curve" smooth="yes"/>
      <point x="253" y="673" type="line"/>
      <point x="253" y="714" type="line"/>
      <point x="12" y="714" type="line"/>
      <point x="12" y="673" type="line"/>
      <point x="23" y="673" type="line" smooth="yes"/>
      <point x="60" y="673"/>
      <point x="87" y="664"/>
      <point x="87" y="605" type="curve" smooth="yes"/>
      <point x="87" y="216" type="line" smooth="yes"/>
      <point x="87" y="53"/>
      <point x="165" y="-10"/>
    </contour>
  </outline>
</glyph>
<glyph name="V.serif" format="2">
  <advance width="538"/>
  <unicode hex="0056"/>
  <anchor x="270" y="0" name="bottom"/>
  <anchor x="290" y="714" name="top"/>
  <anchor x="518" y="714" name="topright"/>
  <outline>
    <contour>
      <point x="67" y="620" type="curve" smooth="yes"/>
      <point x="231" y="0" type="line"/>
      <point x="305" y="0" type="line"/>
      <point x="463" y="595" type="line" smooth="yes"/>
      <point x="481" y="660"/>
      <point x="492" y="673"/>
      <point x="526" y="673" type="curve" smooth="yes"/>
      <point x="538" y="673" type="line"/>
      <point x="538" y="714" type="line"/>
      <point x="346" y="714" type="line"/>
      <point x="346" y="673" type="line"/>
      <point x="365" y="673" type="line" smooth="yes"/>
      <point x="399" y="673"/>
      <point x="415" y="661"/>
      <point x="415" y="635" type="curve" smooth="yes"/>
      <point x="415" y="618"/>
      <point x="410" y="598"/>
      <point x="405" y="578" type="curve"/>
      <point x="322" y="259" type="line" smooth="yes"/>
      <point x="305" y="194"/>
      <point x="295" y="153"/>
      <point x="286" y="105" type="curve"/>
      <point x="278" y="152"/>
      <point x="268" y="195"/>
      <point x="252" y="258" type="curve" smooth="yes"/>
      <point x="171" y="586" type="line" smooth="yes"/>
      <point x="166" y="604"/>
      <point x="162" y="622"/>
      <point x="162" y="637" type="curve" smooth="yes"/>
      <point x="162" y="660"/>
      <point x="176" y="673"/>
      <point x="208" y="673" type="curve" smooth="yes"/>
      <point x="226" y="673" type="line"/>
      <point x="226" y="714" type="line"/>
      <point x="0" y="714" type="line"/>
      <point x="0" y="673" type="line"/>
      <point x="13" y="673" type="line" smooth="yes"/>
      <point x="43" y="673"/>
      <point x="55" y="662"/>
    </contour>
  </outline>
</glyph>
<glyph name="W.mono" format="2">
  <advance width="500"/>
  <unicode hex="0057"/>
  <anchor x="250" y="0" name="bottom"/>
  <anchor x="250" y="714" name="top"/>
  <anchor x="480" y="714" name="topright"/>
  <outline>
    <contour>
      <point x="77" y="0" type="line"/>
      <point x="175" y="0" type="line"/>
      <point x="229" y="326" type="line" smooth="yes"/>
      <point x="239" y="387"/>
      <point x="244" y="416"/>
      <point x="249" y="444" type="curve"/>
      <point x="252" y="444" type="line"/>
      <point x="257" y="416"/>
      <point x="263" y="387"/>
      <point x="273" y="327" type="curve" smooth="yes"/>
      <point x="328" y="0" type="line"/>
      <point x="427" y="0" type="line"/>
      <point x="485" y="714" type="line"/>
      <point x="410" y="714" type="line"/>
      <point x="402" y="608"/>
      <point x="394" y="503"/>
      <point x="386" y="397" type="curve" smooth="yes"/>
      <point x="382" y="344"/>
      <point x="375" y="125"/>
      <point x="374" y="79" type="curve"/>
      <point x="370" y="79" type="line"/>
      <point x="365" y="125"/>
      <point x="350" y="232"/>
      <point x="337" y="301" type="curve" smooth="yes"/>
      <point x="292" y="536" type="line"/>
      <point x="207" y="536" type="line"/>
      <point x="165" y="303" type="line" smooth="yes"/>
      <point x="154" y="241"/>
      <point x="139" y="124"/>
      <point x="134" y="79" type="curve"/>
      <point x="131" y="79" type="line"/>
      <point x="130" y="125"/>
      <point x="117" y="335"/>
      <point x="112" y="396" type="curve" smooth="yes"/>
      <point x="103" y="502"/>
      <point x="93" y="608"/>
      <point x="84" y="714" type="curve"/>
      <point x="15" y="714" type="line"/>
    </contour>
  </outline>
</glyph>
<glyph name="W.serif" format="2">
  <advance width="832"/>
  <unicode hex="0057"/>
  <anchor x="416" y="0" name="bottom"/>
  <anchor x="435" y="714" name="top"/>
  <anchor x="812" y="714" name="topright"/>
  <outline>
    <contour>
      <point x="72" y="620" type="curve" smooth="yes"/>
      <point x="205" y="0" type="line"/>
      <point x="294" y="0" type="line"/>
      <point x="419" y="571" type="line"/>
      <point x="534" y="0" type="line"/>
      <point x="623" y="0" type="line"/>
      <point x="752" y="595" type="line" smooth="yes"/>
      <point x="767" y="661"/>
      <point x="781" y="673"/>
      <point x="812" y="673" type="curve" smooth="yes"/>
      <point x="828" y="673" type="line"/>
      <point x="828" y="714" type="line"/>
      <point x="631" y="714" type="line"/>
      <point x="631" y="673" type="line"/>
      <point x="649" y="673" type="line" smooth="yes"/>
      <point x="684" y="673"/>
      <point x="701" y="664"/>
      <point x="701" y="637" type="curve" smooth="yes"/>
      <point x="701" y="622"/>
      <point x="696" y="591"/>
      <point x="692" y="572" type="curve" smooth="yes"/>
      <point x="623" y="247" type="line" smooth="yes"/>
      <point x="610" y="184"/>
      <point x="602" y="145"/>
      <point x="595" y="98" type="curve"/>
      <point x="588" y="149"/>
      <point x="576" y="202"/>
      <point x="563" y="269" type="curve" smooth="yes"/>
      <point x="475" y="707" type="line"/>
      <point x="403" y="707" type="line"/>
      <point x="307" y="287" type="line" smooth="yes"/>
      <point x="291" y="215"/>
      <point x="277" y="153"/>
      <point x="269" y="100" type="curve"/>
      <point x="263" y="148"/>
      <point x="253" y="199"/>
      <point x="241" y="260" type="curve" smooth="yes"/>
      <point x="176" y="590" type="line" smooth="yes"/>
      <point x="173" y="606"/>
      <point x="169" y="625"/>
      <point x="169" y="638" type="curve" smooth="yes"/>
      <point x="169" y="660"/>
      <point x="185" y="673"/>
      <point x="217" y="673" type="curve" smooth="yes"/>
      <point x="235" y="673" type="line"/>
      <point x="235" y="714" type="line"/>
      <point x="6" y="714" type="line"/>
      <point x="6" y="673" type="line"/>
      <point x="16" y="673" type="line" smooth="yes"/>
      <point x="47" y="673"/>
      <point x="63" y="663"/>
    </contour>
  </outline>
</glyph>
<glyph name="X.mono" format="2">
  <advance width="500"/>
  <unicode hex="0058"/>
  <anchor x="250" y="0" name="bottom"/>
  <anchor x="250" y="714" name="top"/>
  <anchor x="480" y="714" name="topright"/>
  <outline>
    <contour>
      <point x="20" y="0" type="line"/>
      <point x="109" y="0" type="line"/>
      <point x="245" y="301" type="line"/>
      <point x="388" y="0" type="line"/>
      <point x="480" y="0" type="line"/>
      <point x="295" y="370" type="line"/>
      <point x="467" y="714" type="line"/>
      <point x="377" y="714" type="line"/>
      <point x="250" y="444" type="line"/>
      <point x="124" y="714" type="line"/>
      <point x="33" y="714" type="line"/>
      <point x="199" y="373" type="line"/>
    </contour>
  </outline>
</glyph>
<glyph name="X.serif" format="2">
  <advance width="537"/>
  <unicode hex="0058"/>
  <anchor x="269" y="0" name="bottom"/>
  <anchor x="269" y="714" name="top"/>
  <anchor x="517" y="714" name="topright"/>
  <outline>
    <contour>
      <point x="6" y="0" type="line"/>
      <point x="198" y="0" type="line"/>
      <point x="198" y="41" type="line"/>
      <point x="195" y="41" type="line" smooth="yes"/>
      <point x="160" y="41"/>
      <point x="145" y="50"/>
      <point x="145" y="72" type="curve" smooth="yes"/>
      <point x="145" y="93"/>
      <point x="157" y="121"/>
      <point x="170" y="148" type="curve" smooth="yes"/>
      <point x="250" y="310" type="line"/>
      <point x="329" y="143" type="line" smooth="yes"/>
      <point x="351" y="99"/>
      <point x="356" y="89"/>
      <point x="356" y="74" type="curve" smooth="yes"/>
      <point x="356" y="52"/>
      <point x="339" y="41"/>
      <point x="308" y="41" type="curve" smooth="yes"/>
      <point x="305" y="41" type="line"/>
      <point x="305" y="0" type="line"/>
      <point x="530" y="0" type="line"/>
      <point x="530" y="41" type="line"/>
      <point x="519" y="41" type="line" smooth="yes"/>
      <point x="499" y="41"/>
      <point x="476" y="54"/>
      <point x="456" y="94" type="curve" smooth="yes"/>
      <point x="314" y="383" type="line"/>
      <point x="425" y="601" type="line" smooth="yes"/>
      <point x="455" y="658"/>
      <point x="473" y="673"/>
      <point x="504" y="673" type="curve" smooth="yes"/>
      <point x="511" y="673" type="line"/>
      <point x="511" y="714" type="line"/>
      <point x="336" y="714" type="line"/>
      <point x="336" y="673" type="line"/>
      <point x="338" y="673" type="line" smooth="yes"/>
      <point x="363" y="673"/>
      <point x="382" y="668"/>
      <point x="382" y="644" type="curve" smooth="yes"/>
      <point x="382" y="626"/>
      <point x="373" y="607"/>
      <point x="362" y="583" type="curve" smooth="yes"/>
      <point x="289" y="429" type="line"/>
      <point x="217" y="585" type="line" smooth="yes"/>
      <point x="208" y="606"/>
      <point x="197" y="630"/>
      <point x="197" y="644" type="curve" smooth="yes"/>
      <point x="197" y="660"/>
      <point x="206" y="673"/>
      <point x="242" y="673" type="curve" smooth="yes"/>
      <point x="245" y="673" type="line"/>
      <point x="245" y="714" type="line"/>
      <point x="19" y="714" type="line"/>
      <point x="19" y="673" type="line"/>
      <point x="29" y="673" type="line" smooth="yes"/>
      <point x="60" y="673"/>
      <point x="78" y="659"/>
      <point x="96" y="620" type="curve" smooth="yes"/>
      <point x="225" y="356" type="line"/>
      <point x="94" y="110" type="line" smooth="yes"/>
      <point x="66" y="57"/>
      <point x="50" y="41"/>
      <point x="11" y="41" type="curve" smooth="yes"/>
      <point x="6" y="41" type="line"/>
    </contour>
  </outline>
</glyph>
<glyph name="Y.serif" format="2">
  <advance width="508"/>
  <unicode hex="0059"/>
  <anchor x="254" y="0" name="bottom"/>
  <anchor x="254" y="714" name="top"/>
  <anchor x="488" y="714" name="topright"/>
  <outline>
    <contour>
      <point x="127" y="0" type="line"/>
      <point x="385" y="0" type="line"/>
      <point x="385" y="41" type="line"/>
      <point x="367" y="41" type="line" smooth="yes"/>
      <point x="332" y="41"/>
      <point x="302" y="52"/>
      <point x="302" y="116" type="curve" smooth="yes"/>
      <point x="302" y="305" type="line"/>
      <point x="436" y="596" type="line" smooth="yes"/>
      <point x="463" y="655"/>
      <point x="479" y="673"/>
      <point x="503" y="673" type="curve" smooth="yes"/>
      <point x="511" y="673" type="line"/>
      <point x="511" y="714" type="line"/>
      <point x="319" y="714" type="line"/>
      <point x="319" y="673" type="line"/>
      <point x="336" y="673" type="line" smooth="yes"/>
      <point x="367" y="673"/>
      <point x="388" y="664"/>
      <point x="388" y="635" type="curve" smooth="yes"/>
      <point x="388" y="619"/>
      <point x="381" y="595"/>
      <point x="370" y="570" type="curve" smooth="yes"/>
      <point x="320" y="458" type="line" smooth="yes"/>
      <point x="302" y="416"/>
      <point x="287" y="380"/>
      <point x="277" y="353" type="curve"/>
      <point x="268" y="384"/>
      <point x="254" y="419"/>
      <point x="236" y="459" type="curve" smooth="yes"/>
      <point x="177" y="590" type="line" smooth="yes"/>
      <point x="170" y="604"/>
      <point x="163" y="628"/>
      <point x="163" y="643" type="curve" smooth="yes"/>
      <point x="163" y="659"/>
      <point x="172" y="673"/>
      <point x="201" y="673" type="curve" smooth="yes"/>
      <point x="222" y="673" type="line"/>
      <point x="222" y="714" type="line"/>
      <point x="-3" y="714" type="line"/>
      <point x="-3" y="673" type="line"/>
      <point x="7" y="673" type="line" smooth="yes"/>
      <point x="35" y="673"/>
      <point x="46" y="659"/>
      <point x="64" y="620" type="curve" smooth="yes"/>
      <point x="209" y="305" type="line"/>
      <point x="209" y="111" type="line" smooth="yes"/>
      <point x="209" y="52"/>
      <point x="179" y="41"/>
      <point x="142" y="41" type="curve" smooth="yes"/>
      <point x="127" y="41" type="line"/>
    </contour>
  </outline>
</glyph>
<glyph name="Z.serif" format="2">
  <advance width="483"/>
  <unicode hex="005A"/>
  <anchor x="242" y="0" name="bottom"/>
  <anchor x="242" y="714" name="top"/>
  <anchor x="463" y="714" name="topright"/>
  <outline>
    <contour>
      <point x="29" y="0" type="line"/>
      <point x="446" y="0" type="line"/>
      <point x="449" y="172" type="line"/>
      <point x="404" y="172" type="line"/>
      <point x="401" y="130" type="line" smooth="yes"/>
      <point x="397" y="85"/>
      <point x="382" y="49"/>
      <point x="330" y="49" type="curve" smooth="yes"/>
      <point x="133" y="49" type="line"/>
      <point x="436" y="674" type="line"/>
      <point x="436" y="714" type="line"/>
      <point x="49" y="714" type="line"/>
      <point x="45" y="542" type="line"/>
      <point x="90" y="542" type="line"/>
      <point x="94" y="585" type="line" smooth="yes"/>
      <point x="97" y="627"/>
      <point x="111" y="665"/>
      <point x="159" y="665" type="curve" smooth="yes"/>
      <point x="331" y="665" type="line"/>
      <point x="29" y="39" type="line"/>
    </contour>
  </outline>
</glyph>
<glyph name="bracketleft.mono" format="2">
  <advance width="500"/>
  <unicode hex="005B"/>
  <outline>
    <contour>
      <point x="181" y="-161" type="line"/>
      <point x="390" y="-161" type="line"/>
      <point x="390" y="-93" type="line"/>
      <point x="258" y="-93" type="line"/>
      <point x="258" y="652" type="line"/>
      <point x="390" y="652" type="line"/>
      <point x="390" y="720" type="line"/>
      <point x="181" y="720" type="line"/>
    </contour>
  </outline>
</glyph>
<glyph name="asciicircum.mono" format="2">
  <advance width="500"/>
  <unicode hex="005E"/>
  <outline>
    <contour>
      <point x="43" y="332" type="line"/>
      <point x="121" y="332" type="line"/>
      <point x="249" y="609" type="line"/>
      <point x="377" y="332" type="line"/>
      <point x="456" y="332" type="line"/>
      <point x="273" y="713" type="line"/>
      <point x="225" y="713" type="line"/>
    </contour>
  </outline>
</glyph>
<glyph name="grave.mono" format="2">
  <advance width="500"/>
  <unicode hex="0060"/>
  <outline>
    <contour>
      <point x="240" y="606" type="curve"/>
      <point x="292" y="606" type="line"/>
      <point x="292" y="617" type="line"/>
      <point x="264" y="654"/>
      <point x="224" y="720"/>
      <point x="203" y="766" type="curve"/>
      <point x="106" y="766" type="line"/>
      <point x="106" y="757" type="line"/>
      <point x="132" y="714"/>
      <point x="200" y="640"/>
    </contour>
  </outline>
</glyph>
<glyph name="grave.serif" format="2">
  <advance width="251"/>
  <unicode hex="0060"/>
  <outline>
    <contour>
      <point x="175" y="606" type="curve"/>
      <point x="211" y="606" type="line"/>
      <point x="211" y="619" type="line"/>
      <point x="188" y="657"/>
      <point x="151" y="721"/>
      <point x="135" y="766" type="curve"/>
      <point x="40" y="766" type="line"/>
      <point x="40" y="756" type="line"/>
      <point x="60" y="721"/>
      <point x="130" y="642"/>
    </contour>
  </outline>
</glyph>
<glyph name="a.serif" format="2">
  <advance width="454"/>
  <unicode hex="0061"/>
  <anchor x="355" y="0" name="bottom"/>
  <anchor x="227" y="536" name="top"/>
  <anchor x="434" y="536" name="topright"/>
  <outline>
    <contour>
      <point x="159" y="-10" type="curve" smooth="yes"/>
      <point x="226" y="-10"/>
      <point x="251" y="31"/>
      <point x="285" y="88" type="curve"/>
      <point x="291" y="88" type="line"/>
      <point x="303" y="0" type="line"/>
      <point x="422" y="0" type="line"/>
      <point x="422" y="41" type="line"/>
      <point x="419" y="41" type="line" smooth="yes"/>
      <point x="383" y="41"/>
      <point x="370" y="57"/>
      <point x="370" y="113" type="curve" smooth="yes"/>
      <point x="370" y="372" type="line" smooth="yes"/>
      <point x="370" y="499"/>
      <point x="319" y="546"/>
      <point x="220" y="546" type="curve" smooth="yes"/>
      <point x="130" y="546"/>
      <point x="71" y="510"/>
      <point x="71" y="450" type="curve" smooth="yes"/>
      <point x="71" y="409"/>
      <point x="96" y="388"/>
      <point x="145" y="388" type="curve"/>
      <point x="145" y="453"/>
      <point x="157" y="497"/>
      <point x="213" y="497" type="curve" smooth="yes"/>
      <point x="272" y="497"/>
      <point x="283" y="448"/>
      <point x="283" y="373" type="curve" smooth="yes"/>
      <point x="283" y="312" type="line"/>
      <point x="218" y="309" type="line" smooth="yes"/>
      <point x="97" y="304"/>
      <point x="38" y="256"/>
      <point x="38" y="150" type="curve" smooth="yes"/>
      <point x="38" y="41"/>
      <point x="92" y="-10"/>
    </contour>
    <contour>
      <point x="187" y="42" type="curve" smooth="yes"/>
      <point x="146" y="42"/>
      <point x="128" y="82"/>
      <point x="128" y="144" type="curve" smooth="yes"/>
      <point x="128" y="223"/>
      <point x="155" y="265"/>
      <point x="238" y="270" type="curve" smooth="yes"/>
      <point x="284" y="273" type="line"/>
      <point x="284" y="191" type="line" smooth="yes"/>
      <point x="284" y="106"/>
      <point x="246" y="42"/>
    </contour>
  </outline>
</glyph>
<glyph name="c.serif" format="2">
  <advance width="397"/>
  <unicode hex="0063"/>
  <anchor x="219" y="0" name="bottom"/>
  <anchor x="224" y="536" name="top"/>
  <anchor x="377" y="536" name="topright"/>
  <outline>
    <contour>
      <point x="227" y="-10" type="curve" smooth="yes"/>
      <point x="328" y="-10"/>
      <point x="366" y="47"/>
      <point x="366" y="89" type="curve" smooth="yes"/>
      <point x="366" y="108"/>
      <point x="360" y="119"/>
      <point x="350" y="127" type="curve"/>
      <point x="332" y="84"/>
      <point x="296" y="45"/>
      <point x="239" y="45" type="curve" smooth="yes"/>
      <point x="164" y="45"/>
      <point x="130" y="123"/>
      <point x="130" y="266" type="curve" smooth="yes"/>
      <point x="130" y="445"/>
      <point x="167" y="497"/>
      <point x="224" y="497" type="curve" smooth="yes"/>
      <point x="274" y="497"/>
      <point x="287" y="446"/>
      <point x="287" y="384" type="curve"/>
      <point x="343" y="384"/>
      <point x="366" y="398"/>
      <point x="366" y="444" type="curve" smooth="yes"/>
      <point x="366" y="509"/>
      <point x="313" y="546"/>
      <point x="223" y="546" type="curve" smooth="yes"/>
      <point x="121" y="546"/>
      <point x="42" y="479"/>
      <point x="42" y="265" type="curve" smooth="yes"/>
      <point x="42" y="70"/>
      <point x="118" y="-10"/>
    </contour>
  </outline>
</glyph>
<glyph name="d.serif" format="2">
  <advance width="493"/>
  <unicode hex="0064"/>
  <anchor x="247" y="0" name="bottom"/>
  <anchor x="247" y="268" name="center"/>
  <anchor x="365" y="760" name="top"/>
  <anchor x="466" y="760" name="topright"/>
  <outline>
    <contour>
      <point x="200" y="-10" type="curve" smooth="yes"/>
      <point x="264" y="-10"/>
      <point x="300" y="29"/>
      <point x="325" y="92" type="curve"/>
      <point x="327" y="92" type="line"/>
      <point x="337" y="0" type="line"/>
      <point x="479" y="0" type="line"/>
      <point x="479" y="41" type="line"/>
      <point x="471" y="41" type="line" smooth="yes"/>
      <point x="434" y="41"/>
      <point x="409" y="52"/>
      <point x="409" y="111" type="curve" smooth="yes"/>
      <point x="409" y="760" type="line"/>
      <point x="252" y="760" type="line"/>
      <point x="252" y="719" type="line"/>
      <point x="258" y="719" type="line" smooth="yes"/>
      <point x="293" y="719"/>
      <point x="323" y="710"/>
      <point x="323" y="650" type="curve" smooth="yes"/>
      <point x="323" y="563" type="line" smooth="yes"/>
      <point x="323" y="526"/>
      <point x="323" y="489"/>
      <point x="325" y="458" type="curve"/>
      <point x="321" y="458" type="line"/>
      <point x="298" y="510"/>
      <point x="264" y="546"/>
      <point x="203" y="546" type="curve" smooth="yes"/>
      <point x="98" y="546"/>
      <point x="41" y="460"/>
      <point x="41" y="267" type="curve" smooth="yes"/>
      <point x="41" y="75"/>
      <point x="98" y="-10"/>
    </contour>
    <contour>
      <point x="222" y="45" type="curve" smooth="yes"/>
      <point x="156" y="45"/>
      <point x="130" y="118"/>
      <point x="130" y="266" type="curve" smooth="yes"/>
      <point x="130" y="411"/>
      <point x="156" y="491"/>
      <point x="221" y="491" type="curve" smooth="yes"/>
      <point x="298" y="491"/>
      <point x="323" y="411"/>
      <point x="323" y="267" type="curve" smooth="yes"/>
      <point x="323" y="132"/>
      <point x="294" y="45"/>
    </contour>
  </outline>
</glyph>
<glyph name="e.serif" format="2">
  <advance width="431"/>
  <unicode hex="0065"/>
  <anchor x="226" y="0" name="bottom"/>
  <anchor x="226" y="536" name="top"/>
  <anchor x="411" y="536" name="topright"/>
  <outline>
    <contour>
      <point x="231" y="-10" type="curve" smooth="yes"/>
      <point x="333" y="-10"/>
      <point x="378" y="50"/>
      <point x="378" y="91" type="curve" smooth="yes"/>
      <point x="378" y="109"/>
      <point x="369" y="119"/>
      <point x="358" y="124" type="curve"/>
      <point x="339" y="81"/>
      <point x="304" y="45"/>
      <point x="249" y="45" type="curve" smooth="yes"/>
      <point x="173" y="45"/>
      <point x="131" y="114"/>
      <point x="130" y="264" type="curve"/>
      <point x="393" y="264" type="line"/>
      <point x="393" y="304" type="line" smooth="yes"/>
      <point x="393" y="462"/>
      <point x="329" y="546"/>
      <point x="223" y="546" type="curve" smooth="yes"/>
      <point x="108" y="546"/>
      <point x="42" y="452"/>
      <point x="42" y="264" type="curve" smooth="yes"/>
      <point x="42" y="90"/>
      <point x="109" y="-10"/>
    </contour>
    <contour>
      <point x="307" y="313" type="curve"/>
      <point x="131" y="313" type="line"/>
      <point x="134" y="430"/>
      <point x="165" y="496"/>
      <point x="225" y="496" type="curve" smooth="yes"/>
      <point x="284" y="496"/>
      <point x="306" y="422"/>
    </contour>
  </outline>
</glyph>
<glyph name="f.serif" format="2">
  <advance width="299"/>
  <unicode hex="0066"/>
  <anchor x="150" y="0" name="bottom"/>
  <anchor x="217" y="770" name="top"/>
  <anchor x="355" y="770" name="topright"/>
  <outline>
    <contour>
      <point x="20" y="0" type="line"/>
      <point x="275" y="0" type="line"/>
      <point x="275" y="41" type="line"/>
      <point x="244" y="41" type="line" smooth="yes"/>
      <point x="209" y="41"/>
      <point x="181" y="50"/>
      <point x="181" y="113" type="curve" smooth="yes"/>
      <point x="181" y="488" type="line"/>
      <point x="292" y="488" type="line"/>
      <point x="292" y="536" type="line"/>
      <point x="181" y="536" type="line"/>
      <point x="181" y="596" type="line" smooth="yes"/>
      <point x="181" y="679"/>
      <point x="197" y="726"/>
      <point x="239" y="726" type="curve" smooth="yes"/>
      <point x="277" y="726"/>
      <point x="286" y="685"/>
      <point x="286" y="644" type="curve"/>
      <point x="332" y="644"/>
      <point x="353" y="668"/>
      <point x="353" y="701" type="curve" smooth="yes"/>
      <point x="353" y="740"/>
      <point x="325" y="770"/>
      <point x="246" y="770" type="curve" smooth="yes"/>
      <point x="147" y="770"/>
      <point x="95" y="706"/>
      <point x="95" y="587" type="curve" smooth="yes"/>
      <point x="95" y="536" type="line"/>
      <point x="23" y="536" type="line"/>
      <point x="23" y="488" type="line"/>
      <point x="95" y="488" type="line"/>
      <point x="95" y="113" type="line" smooth="yes"/>
      <point x="95" y="50"/>
      <point x="64" y="41"/>
      <point x="32" y="41" type="curve" smooth="yes"/>
      <point x="20" y="41" type="line"/>
    </contour>
  </outline>
</glyph>
<glyph name="h.serif" format="2">
  <advance width="509"/>
  <unicode hex="0068"/>
  <anchor x="254" y="0" name="bottom"/>
  <anchor x="254" y="268" name="center"/>
  <anchor x="126" y="760" name="top"/>
  <anchor x="446" y="760" name="topright"/>
  <outline>
    <contour>
      <point x="14" y="0" type="line"/>
      <point x="234" y="0" type="line"/>
      <point x="234" y="41" type="line"/>
      <point x="232" y="41" type="line" smooth="yes"/>
      <point x="197" y="41"/>
      <point x="170" y="48"/>
      <point x="170" y="108" type="curve" smooth="yes"/>
      <point x="170" y="321" type="line" smooth="yes"/>
      <point x="170" y="421"/>
      <point x="196" y="484"/>
      <point x="259" y="484" type="curve" smooth="yes"/>
      <point x="318" y="484"/>
      <point x="339" y="434"/>
      <point x="339" y="347" type="curve" smooth="yes"/>
      <point x="339" y="0" type="line"/>
      <point x="487" y="0" type="line"/>
      <point x="487" y="41" type="line"/>
      <point x="485" y="41" type="line" smooth="yes"/>
      <point x="449" y="41"/>
      <point x="426" y="50"/>
      <point x="426" y="113" type="curve" smooth="yes"/>
      <point x="426" y="349" type="line" smooth="yes"/>
      <point x="426" y="486"/>
      <point x="380" y="546"/>
      <point x="295" y="546" type="curve" smooth="yes"/>
      <point x="226" y="546"/>
      <point x="189" y="501"/>
      <point x="170" y="454" type="curve"/>
      <point x="167" y="454" type="line"/>
      <point x="167" y="462"/>
      <point x="170" y="499"/>
      <point x="170" y="531" type="curve" smooth="yes"/>
      <point x="170" y="760" type="line"/>
      <point x="14" y="760" type="line"/>
      <point x="14" y="719" type="line"/>
      <point x="21" y="719" type="line" smooth="yes"/>
      <point x="52" y="719"/>
      <point x="83" y="710"/>
      <point x="83" y="651" type="curve" smooth="yes"/>
      <point x="83" y="113" type="line" smooth="yes"/>
      <point x="83" y="50"/>
      <point x="55" y="41"/>
      <point x="21" y="41" type="curve" smooth="yes"/>
      <point x="14" y="41" type="line"/>
    </contour>
  </outline>
</glyph>
<glyph name="i.serif" format="2">
  <advance width="260"/>
  <unicode hex="0069"/>
  <anchor x="133" y="0" name="bottom"/>
  <anchor x="130" y="755" name="top"/>
  <anchor x="222" y="755" name="topright"/>
  <outline>
    <contour>
      <point x="17" y="0" type="line"/>
      <point x="249" y="0" type="line"/>
      <point x="249" y="41" type="line"/>
      <point x="239" y="41" type="line" smooth="yes"/>
      <point x="200" y="41"/>
      <point x="176" y="52"/>
      <point x="176" y="115" type="curve" smooth="yes"/>
      <point x="176" y="536" type="line"/>
      <point x="22" y="536" type="line"/>
      <point x="22" y="495" type="line"/>
      <point x="32" y="495" type="line" smooth="yes"/>
      <point x="69" y="495"/>
      <point x="90" y="484"/>
      <point x="90" y="425" type="curve" smooth="yes"/>
      <point x="90" y="110" type="line" smooth="yes"/>
      <point x="90" y="51"/>
      <point x="65" y="41"/>
      <point x="27" y="41" type="curve" smooth="yes"/>
      <point x="17" y="41" type="line"/>
    </contour>
    <contour>
      <point x="129" y="641" type="curve" smooth="yes"/>
      <point x="158" y="641"/>
      <point x="181" y="656"/>
      <point x="181" y="698" type="curve" smooth="yes"/>
      <point x="181" y="740"/>
      <point x="158" y="755"/>
      <point x="129" y="755" type="curve" smooth="yes"/>
      <point x="100" y="755"/>
      <point x="79" y="740"/>
      <point x="79" y="698" type="curve" smooth="yes"/>
      <point x="79" y="656"/>
      <point x="100" y="641"/>
    </contour>
  </outline>
</glyph>
<glyph name="j.serif" format="2">
  <advance width="257"/>
  <unicode hex="006A"/>
  <anchor x="87" y="-240" name="bottom"/>
  <anchor x="131" y="755" name="top"/>
  <anchor x="226" y="755" name="topright"/>
  <outline>
    <contour>
      <point x="-3" y="-240" type="line"/>
      <point x="10" y="-240" type="line" smooth="yes"/>
      <point x="109" y="-240"/>
      <point x="178" y="-187"/>
      <point x="178" y="-8" type="curve" smooth="yes"/>
      <point x="178" y="536" type="line"/>
      <point x="25" y="536" type="line"/>
      <point x="25" y="495" type="line"/>
      <point x="32" y="495" type="line" smooth="yes"/>
      <point x="67" y="495"/>
      <point x="92" y="486"/>
      <point x="92" y="427" type="curve" smooth="yes"/>
      <point x="92" y="-10" type="line" smooth="yes"/>
      <point x="92" y="-152"/>
      <point x="59" y="-194"/>
      <point x="2" y="-194" type="curve" smooth="yes"/>
      <point x="-3" y="-194" type="line"/>
    </contour>
    <contour>
      <point x="131" y="641" type="curve" smooth="yes"/>
      <point x="159" y="641"/>
      <point x="183" y="656"/>
      <point x="183" y="698" type="curve" smooth="yes"/>
      <point x="183" y="740"/>
      <point x="159" y="755"/>
      <point x="131" y="755" type="curve" smooth="yes"/>
      <point x="103" y="755"/>
      <point x="80" y="740"/>
      <point x="80" y="698" type="curve" smooth="yes"/>
      <point x="80" y="656"/>
      <point x="103" y="641"/>
    </contour>
  </outline>
</glyph>
<glyph name="l.mono" format="2">
  <advance width="500"/>
  <unicode hex="006C"/>
  <anchor x="252" y="0" name="bottom"/>
  <anchor x="252" y="370" name="center"/>
  <anchor x="250" y="760" name="top"/>
  <anchor x="411" y="760" name="topright"/>
  <outline>
    <contour>
      <point x="75" y="0" type="line"/>
      <point x="425" y="0" type="line"/>
      <point x="425" y="59" type="line"/>
      <point x="292" y="69" type="line"/>
      <point x="292" y="760" type="line"/>
      <point x="78" y="760" type="line"/>
      <point x="78" y="701" type="line"/>
      <point x="210" y="691" type="line"/>
      <point x="210" y="69" type="line"/>
      <point x="75" y="59" type="line"/>
    </contour>
  </outline>
</glyph>
<glyph name="l.serif" format="2">
  <advance width="253"/>
  <unicode hex="006C"/>
  <anchor x="127" y="0" name="bottom"/>
  <anchor x="127" y="268" name="center"/>
  <anchor x="127" y="760" name="top"/>
  <anchor x="219" y="760" name="topright"/>
  <outline>
    <contour>
      <point x="11" y="0" type="line"/>
      <point x="242" y="0" type="line"/>
      <point x="242" y="41" type="line"/>
      <point x="233" y="41" type="line" smooth="yes"/>
      <point x="194" y="41"/>
      <point x="170" y="52"/>
      <point x="170" y="115" type="curve" smooth="yes"/>
      <point x="170" y="760" type="line"/>
      <point x="11" y="760" type="line"/>
      <point x="11" y="719" type="line"/>
      <point x="21" y="719" type="line" smooth="yes"/>
      <point x="52" y="719"/>
      <point x="83" y="710"/>
      <point x="83" y="651" type="curve" smooth="yes"/>
      <point x="83" y="115" type="line" smooth="yes"/>
      <point x="83" y="52"/>
      <point x="59" y="41"/>
      <point x="21" y="41" type="curve" smooth="yes"/>
      <point x="11" y="41" type="line"/>
    </contour>
  </outline>
</glyph>
<glyph name="m.serif" format="2">
  <advance width="755"/>
  <unicode hex="006D"/>
  <anchor x="409" y="0" name="bottom"/>
  <anchor x="392" y="536" name="top"/>
  <anchor x="735" y="536" name="topright"/>
  <outline>
    <contour>
      <point x="20" y="0" type="line"/>
      <point x="241" y="0" type="line"/>
      <point x="241" y="41" type="line"/>
      <point x="239" y="41" type="line" smooth="yes"/>
      <point x="204" y="41"/>
      <point x="177" y="48"/>
      <point x="177" y="108" type="curve" smooth="yes"/>
      <point x="177" y="321" type="line" smooth="yes"/>
      <point x="177" y="407"/>
      <point x="202" y="484"/>
      <point x="266" y="484" type="curve" smooth="yes"/>
      <point x="320" y="484"/>
      <point x="340" y="434"/>
      <point x="340" y="347" type="curve" smooth="yes"/>
      <point x="340" y="0" type="line"/>
      <point x="487" y="0" type="line"/>
      <point x="487" y="41" type="line"/>
      <point x="484" y="41" type="line" smooth="yes"/>
      <point x="449" y="41"/>
      <point x="426" y="50"/>
      <point x="426" y="113" type="curve" smooth="yes"/>
      <point x="426" y="335" type="line" smooth="yes"/>
      <point x="426" y="414"/>
      <point x="447" y="484"/>
      <point x="512" y="484" type="curve" smooth="yes"/>
      <point x="566" y="484"/>
      <point x="586" y="434"/>
      <point x="586" y="347" type="curve" smooth="yes"/>
      <point x="586" y="0" type="line"/>
      <point x="734" y="0" type="line"/>
      <point x="734" y="41" type="line"/>
      <point x="732" y="41" type="line" smooth="yes"/>
      <point x="696" y="41"/>
      <point x="673" y="50"/>
      <point x="673" y="113" type="curve" smooth="yes"/>
      <point x="673" y="349" type="line" smooth="yes"/>
      <point x="673" y="486"/>
      <point x="624" y="546"/>
      <point x="542" y="546" type="curve" smooth="yes"/>
      <point x="486" y="546"/>
      <point x="443" y="522"/>
      <point x="417" y="448" type="curve"/>
      <point x="414" y="448" type="line"/>
      <point x="394" y="522"/>
      <point x="351" y="546"/>
      <point x="299" y="546" type="curve" smooth="yes"/>
      <point x="241" y="546"/>
      <point x="204" y="522"/>
      <point x="178" y="454" type="curve"/>
      <point x="173" y="454" type="line"/>
      <point x="162" y="536" type="line"/>
      <point x="28" y="536" type="line"/>
      <point x="28" y="495" type="line"/>
      <point x="30" y="495" type="line" smooth="yes"/>
      <point x="65" y="495"/>
      <point x="90" y="486"/>
      <point x="90" y="426" type="curve" smooth="yes"/>
      <point x="90" y="113" type="line" smooth="yes"/>
      <point x="90" y="50"/>
      <point x="67" y="41"/>
      <point x="32" y="41" type="curve" smooth="yes"/>
      <point x="20" y="41" type="line"/>
    </contour>
  </outline>
</glyph>
<glyph name="n.serif" format="2">
  <advance width="515"/>
  <unicode hex="006E"/>
  <anchor x="258" y="0" name="bottom"/>
  <anchor x="264" y="536" name="top"/>
  <anchor x="495" y="536" name="topright"/>
  <outline>
    <contour>
      <point x="20" y="0" type="line"/>
      <point x="241" y="0" type="line"/>
      <point x="241" y="41" type="line"/>
      <point x="236" y="41" type="line" smooth="yes"/>
      <point x="201" y="41"/>
      <point x="176" y="48"/>
      <point x="176" y="108" type="curve" smooth="yes"/>
      <point x="176" y="321" type="line" smooth="yes"/>
      <point x="176" y="405"/>
      <point x="198" y="485"/>
      <point x="269" y="485" type="curve" smooth="yes"/>
      <point x="325" y="485"/>
      <point x="345" y="432"/>
      <point x="345" y="347" type="curve" smooth="yes"/>
      <point x="345" y="0" type="line"/>
      <point x="493" y="0" type="line"/>
      <point x="493" y="41" type="line"/>
      <point x="489" y="41" type="line" smooth="yes"/>
      <point x="454" y="41"/>
      <point x="431" y="50"/>
      <point x="431" y="113" type="curve" smooth="yes"/>
      <point x="431" y="349" type="line" smooth="yes"/>
      <point x="431" y="486"/>
      <point x="384" y="546"/>
      <point x="300" y="546" type="curve" smooth="yes"/>
      <point x="242" y="546"/>
      <point x="204" y="522"/>
      <point x="177" y="454" type="curve"/>
      <point x="173" y="454" type="line"/>
      <point x="163" y="536" type="line"/>
      <point x="24" y="536" type="line"/>
      <point x="24" y="495" type="line"/>
      <point x="29" y="495" type="line" smooth="yes"/>
      <point x="63" y="495"/>
      <point x="90" y="486"/>
      <point x="90" y="427" type="curve" smooth="yes"/>
      <point x="90" y="113" type="line" smooth="yes"/>
      <point x="90" y="50"/>
      <point x="63" y="41"/>
      <point x="27" y="41" type="curve" smooth="yes"/>
      <point x="20" y="41" type="line"/>
    </contour>
  </outline>
</glyph>
<glyph name="o.serif" format="2">
  <advance width="464"/>
  <unicode hex="006F"/>
  <anchor x="232" y="0" name="bottom"/>
  <anchor x="232" y="268" name="center"/>
  <anchor x="232" y="536" name="top"/>
  <anchor x="446" y="536" name="topright"/>
  <outline>
    <contour>
      <point x="231" y="-10" type="curve" smooth="yes"/>
      <point x="356" y="-10"/>
      <point x="422" y="81"/>
      <point x="422" y="269" type="curve" smooth="yes"/>
      <point x="422" y="456"/>
      <point x="350" y="546"/>
      <point x="234" y="546" type="curve" smooth="yes"/>
      <point x="107" y="546"/>
      <point x="42" y="456"/>
      <point x="42" y="269" type="curve" smooth="yes"/>
      <point x="42" y="81"/>
      <point x="114" y="-10"/>
    </contour>
    <contour>
      <point x="233" y="41" type="curve" smooth="yes"/>
      <point x="159" y="41"/>
      <point x="131" y="119"/>
      <point x="131" y="269" type="curve" smooth="yes"/>
      <point x="131" y="418"/>
      <point x="158" y="494"/>
      <point x="232" y="494" type="curve" smooth="yes"/>
      <point x="307" y="494"/>
      <point x="333" y="418"/>
      <point x="333" y="269" type="curve" smooth="yes"/>
      <point x="333" y="119"/>
      <point x="307" y="41"/>
    </contour>
  </outline>
</glyph>
<glyph name="p.serif" format="2">
  <advance width="493"/>
  <unicode hex="0070"/>
  <anchor x="129" y="-236" name="bottom"/>
  <anchor x="247" y="536" name="top"/>
  <anchor x="475" y="536" name="topright"/>
  <outline>
    <contour>
      <point x="14" y="-236" type="line"/>
      <point x="248" y="-236" type="line"/>
      <point x="248" y="-195" type="line"/>
      <point x="231" y="-195" type="line" smooth="yes"/>
      <point x="200" y="-195"/>
      <point x="170" y="-187"/>
      <point x="170" y="-128" type="curve" smooth="yes"/>
      <point x="170" y="-33" type="line" smooth="yes"/>
      <point x="170" y="13"/>
      <point x="169" y="52"/>
      <point x="168" y="81" type="curve"/>
      <point x="171" y="81" type="line"/>
      <point x="193" y="25"/>
      <point x="229" y="-11"/>
      <point x="287" y="-11" type="curve" smooth="yes"/>
      <point x="393" y="-11"/>
      <point x="450" y="76"/>
      <point x="450" y="269" type="curve" smooth="yes"/>
      <point x="450" y="461"/>
      <point x="393" y="546"/>
      <point x="289" y="546" type="curve" smooth="yes"/>
      <point x="227" y="546"/>
      <point x="191" y="507"/>
      <point x="168" y="451" type="curve"/>
      <point x="165" y="451" type="line"/>
      <point x="155" y="536" type="line"/>
      <point x="12" y="536" type="line"/>
      <point x="12" y="495" type="line"/>
      <point x="22" y="495" type="line" smooth="yes"/>
      <point x="56" y="495"/>
      <point x="82" y="486"/>
      <point x="82" y="427" type="curve" smooth="yes"/>
      <point x="82" y="-123" type="line" smooth="yes"/>
      <point x="82" y="-186"/>
      <point x="52" y="-195"/>
      <point x="20" y="-195" type="curve" smooth="yes"/>
      <point x="14" y="-195" type="line"/>
    </contour>
    <contour>
      <point x="270" y="44" type="curve" smooth="yes"/>
      <point x="192" y="44"/>
      <point x="170" y="128"/>
      <point x="170" y="272" type="curve" smooth="yes"/>
      <point x="170" y="409"/>
      <point x="192" y="492"/>
      <point x="270" y="492" type="curve" smooth="yes"/>
      <point x="336" y="492"/>
      <point x="361" y="416"/>
      <point x="361" y="273" type="curve" smooth="yes"/>
      <point x="361" y="128"/>
      <point x="336" y="44"/>
    </contour>
  </outline>
</glyph>
<glyph name="q.serif" format="2">
  <advance width="492"/>
  <unicode hex="0071"/>
  <anchor x="370" y="-236" name="bottom"/>
  <anchor x="247" y="536" name="top"/>
  <anchor x="485" y="536" name="topright"/>
  <outline>
    <contour>
      <point x="239" y="-236" type="line"/>
      <point x="476" y="-236" type="line"/>
      <point x="476" y="-195" type="line"/>
      <point x="474" y="-195" type="line" smooth="yes"/>
      <point x="438" y="-195"/>
      <point x="409" y="-186"/>
      <point x="409" y="-126" type="curve" smooth="yes"/>
      <point x="409" y="423" type="line" smooth="yes"/>
      <point x="409" y="486"/>
      <point x="438" y="495"/>
      <point x="472" y="495" type="curve" smooth="yes"/>
      <point x="479" y="495" type="line"/>
      <point x="479" y="536" type="line"/>
      <point x="344" y="536" type="line"/>
      <point x="329" y="458" type="line"/>
      <point x="326" y="458" type="line"/>
      <point x="303" y="510"/>
      <point x="264" y="546"/>
      <point x="206" y="546" type="curve" smooth="yes"/>
      <point x="98" y="546"/>
      <point x="41" y="460"/>
      <point x="41" y="267" type="curve" smooth="yes"/>
      <point x="41" y="75"/>
      <point x="98" y="-10"/>
      <point x="199" y="-10" type="curve" smooth="yes"/>
      <point x="264" y="-10"/>
      <point x="298" y="29"/>
      <point x="323" y="92" type="curve"/>
      <point x="326" y="92" type="line"/>
      <point x="324" y="67"/>
      <point x="323" y="7"/>
      <point x="323" y="-37" type="curve" smooth="yes"/>
      <point x="323" y="-122" type="line" smooth="yes"/>
      <point x="323" y="-186"/>
      <point x="293" y="-195"/>
      <point x="258" y="-195" type="curve" smooth="yes"/>
      <point x="239" y="-195" type="line"/>
    </contour>
    <contour>
      <point x="222" y="45" type="curve" smooth="yes"/>
      <point x="156" y="45"/>
      <point x="130" y="117"/>
      <point x="130" y="266" type="curve" smooth="yes"/>
      <point x="130" y="420"/>
      <point x="156" y="491"/>
      <point x="221" y="491" type="curve" smooth="yes"/>
      <point x="298" y="491"/>
      <point x="323" y="411"/>
      <point x="323" y="267" type="curve" smooth="yes"/>
      <point x="323" y="116"/>
      <point x="289" y="45"/>
    </contour>
  </outline>
</glyph>
<glyph name="r.serif" format="2">
  <advance width="383"/>
  <unicode hex="0072"/>
  <anchor x="136" y="0" name="bottom"/>
  <anchor x="206" y="536" name="top"/>
  <anchor x="376" y="536" name="topright"/>
  <outline>
    <contour>
      <point x="23" y="0" type="line"/>
      <point x="257" y="0" type="line"/>
      <point x="257" y="41" type="line"/>
      <point x="238" y="41" type="line" smooth="yes"/>
      <point x="204" y="41"/>
      <point x="177" y="49"/>
      <point x="177" y="108" type="curve" smooth="yes"/>
      <point x="177" y="276" type="line" smooth="yes"/>
      <point x="177" y="370"/>
      <point x="202" y="483"/>
      <point x="251" y="483" type="curve" smooth="yes"/>
      <point x="282" y="483"/>
      <point x="292" y="460"/>
      <point x="292" y="405" type="curve"/>
      <point x="347" y="405"/>
      <point x="371" y="431"/>
      <point x="371" y="471" type="curve" smooth="yes"/>
      <point x="371" y="516"/>
      <point x="345" y="546"/>
      <point x="292" y="546" type="curve" smooth="yes"/>
      <point x="227" y="546"/>
      <point x="196" y="492"/>
      <point x="174" y="428" type="curve"/>
      <point x="171" y="428" type="line"/>
      <point x="158" y="536" type="line"/>
      <point x="24" y="536" type="line"/>
      <point x="24" y="495" type="line"/>
      <point x="27" y="495" type="line" smooth="yes"/>
      <point x="62" y="495"/>
      <point x="89" y="486"/>
      <point x="89" y="427" type="curve" smooth="yes"/>
      <point x="89" y="113" type="line" smooth="yes"/>
      <point x="89" y="50"/>
      <point x="61" y="41"/>
      <point x="26" y="41" type="curve" smooth="yes"/>
      <point x="23" y="41" type="line"/>
    </contour>
  </outline>
</glyph>
<glyph name="s.serif" format="2">
  <advance width="361"/>
  <unicode hex="0073"/>
  <anchor x="181" y="0" name="bottom"/>
  <anchor x="181" y="536" name="top"/>
  <anchor x="333" y="536" name="topright"/>
  <outline>
    <contour>
      <point x="173" y="-10" type="curve" smooth="yes"/>
      <point x="272" y="-10"/>
      <point x="330" y="49"/>
      <point x="330" y="143" type="curve" smooth="yes"/>
      <point x="330" y="227"/>
      <point x="290" y="268"/>
      <point x="209" y="310" type="curve" smooth="yes"/>
      <point x="139" y="347"/>
      <point x="113" y="368"/>
      <point x="113" y="423" type="curve" smooth="yes"/>
      <point x="113" y="470"/>
      <point x="137" y="502"/>
      <point x="182" y="502" type="curve" smooth="yes"/>
      <point x="231" y="502"/>
      <point x="260" y="465"/>
      <point x="260" y="395" type="curve"/>
      <point x="296" y="395"/>
      <point x="316" y="417"/>
      <point x="316" y="452" type="curve" smooth="yes"/>
      <point x="316" y="502"/>
      <point x="274" y="545"/>
      <point x="189" y="545" type="curve" smooth="yes"/>
      <point x="102" y="545"/>
      <point x="43" y="495"/>
      <point x="43" y="405" type="curve" smooth="yes"/>
      <point x="43" y="321"/>
      <point x="80" y="285"/>
      <point x="170" y="235" type="curve" smooth="yes"/>
      <point x="236" y="198"/>
      <point x="258" y="174"/>
      <point x="258" y="125" type="curve" smooth="yes"/>
      <point x="258" y="67"/>
      <point x="231" y="34"/>
      <point x="175" y="34" type="curve" smooth="yes"/>
      <point x="115" y="34"/>
      <point x="87" y="86"/>
      <point x="87" y="157" type="curve"/>
      <point x="58" y="157"/>
      <point x="30" y="140"/>
      <point x="30" y="94" type="curve" smooth="yes"/>
      <point x="30" y="24"/>
      <point x="84" y="-10"/>
    </contour>
  </outline>
</glyph>
<glyph name="t.serif" format="2">
  <advance width="291"/>
  <unicode hex="0074"/>
  <anchor x="179" y="0" name="bottom"/>
  <anchor x="126" y="268" name="center"/>
  <anchor x="141" y="659" name="top"/>
  <anchor x="176" y="960" name="topright"/>
  <outline>
    <contour>
      <point x="187" y="-10" type="curve" smooth="yes"/>
      <point x="226" y="-10"/>
      <point x="256" y="-2"/>
      <point x="273" y="5" type="curve"/>
      <point x="273" y="51" type="line"/>
      <point x="255" y="46"/>
      <point x="239" y="43"/>
      <point x="217" y="43" type="curve" smooth="yes"/>
      <point x="178" y="43"/>
      <point x="162" y="72"/>
      <point x="162" y="144" type="curve" smooth="yes"/>
      <point x="162" y="490" type="line"/>
      <point x="265" y="490" type="line"/>
      <point x="265" y="536" type="line"/>
      <point x="162" y="536" type="line"/>
      <point x="162" y="659" type="line"/>
      <point x="116" y="659" type="line"/>
      <point x="108" y="603"/>
      <point x="98" y="580"/>
      <point x="82" y="560" type="curve" smooth="yes"/>
      <point x="66" y="539"/>
      <point x="46" y="527"/>
      <point x="15" y="521" type="curve"/>
      <point x="15" y="490" type="line"/>
      <point x="76" y="490" type="line"/>
      <point x="76" y="145" type="line" smooth="yes"/>
      <point x="76" y="30"/>
      <point x="112" y="-10"/>
    </contour>
  </outline>
</glyph>
<glyph name="v.serif" format="2">
  <advance width="464"/>
  <unicode hex="0076"/>
  <anchor x="234" y="0" name="bottom"/>
  <anchor x="254" y="536" name="top"/>
  <anchor x="459" y="536" name="topright"/>
  <outline>
    <contour>
      <point x="66" y="442" type="curve" smooth="yes"/>
      <point x="192" y="0" type="line"/>
      <point x="273" y="0" type="line"/>
      <point x="395" y="417" type="line" smooth="yes"/>
      <point x="412" y="479"/>
      <point x="420" y="495"/>
      <point x="451" y="495" type="curve" smooth="yes"/>
      <point x="462" y="495" type="line"/>
      <point x="462" y="536" type="line"/>
      <point x="299" y="536" type="line"/>
      <point x="299" y="495" type="line"/>
      <point x="307" y="495" type="line" smooth="yes"/>
      <point x="335" y="495"/>
      <point x="350" y="483"/>
      <point x="350" y="460" type="curve" smooth="yes"/>
      <point x="350" y="438"/>
      <point x="346" y="418"/>
      <point x="336" y="384" type="curve" smooth="yes"/>
      <point x="287" y="208" type="line" smooth="yes"/>
      <point x="270" y="149"/>
      <point x="258" y="97"/>
      <point x="251" y="71" type="curve"/>
      <point x="245" y="105"/>
      <point x="230" y="170"/>
      <point x="216" y="220" type="curve" smooth="yes"/>
      <point x="165" y="405" type="line" smooth="yes"/>
      <point x="160" y="423"/>
      <point x="156" y="441"/>
      <point x="156" y="459" type="curve" smooth="yes"/>
      <point x="156" y="481"/>
      <point x="168" y="495"/>
      <point x="198" y="495" type="curve" smooth="yes"/>
      <point x="209" y="495" type="line"/>
      <point x="209" y="536" type="line"/>
      <point x="5" y="536" type="line"/>
      <point x="5" y="495" type="line"/>
      <point x="38" y="495"/>
      <point x="54" y="485"/>
    </contour>
  </outline>
</glyph>
<glyph name="w.serif" format="2">
  <advance width="681"/>
  <unicode hex="0077"/>
  <anchor x="340" y="0" name="bottom"/>
  <anchor x="350" y="536" name="top"/>
  <anchor x="683" y="536" name="topright"/>
  <outline>
    <contour>
      <point x="60" y="442" type="curve" smooth="yes"/>
      <point x="164" y="0" type="line"/>
      <point x="231" y="0" type="line"/>
      <point x="337" y="427" type="line"/>
      <point x="440" y="0" type="line"/>
      <point x="509" y="0" type="line"/>
      <point x="611" y="417" type="line" smooth="yes"/>
      <point x="627" y="484"/>
      <point x="640" y="495"/>
      <point x="670" y="495" type="curve" smooth="yes"/>
      <point x="681" y="495" type="line"/>
      <point x="681" y="536" type="line"/>
      <point x="513" y="536" type="line"/>
      <point x="513" y="495" type="line"/>
      <point x="518" y="495" type="line" smooth="yes"/>
      <point x="550" y="495"/>
      <point x="565" y="480"/>
      <point x="565" y="446" type="curve" smooth="yes"/>
      <point x="565" y="435"/>
      <point x="562" y="413"/>
      <point x="558" y="396" type="curve" smooth="yes"/>
      <point x="520" y="233" type="line" smooth="yes"/>
      <point x="506" y="171"/>
      <point x="496" y="117"/>
      <point x="492" y="84" type="curve"/>
      <point x="490" y="84" type="line"/>
      <point x="486" y="118"/>
      <point x="469" y="195"/>
      <point x="458" y="237" type="curve" smooth="yes"/>
      <point x="381" y="533" type="line"/>
      <point x="333" y="533" type="line"/>
      <point x="250" y="230" type="line" smooth="yes"/>
      <point x="238" y="185"/>
      <point x="222" y="117"/>
      <point x="218" y="85" type="curve"/>
      <point x="215" y="85" type="line"/>
      <point x="211" y="117"/>
      <point x="198" y="190"/>
      <point x="188" y="238" type="curve" smooth="yes"/>
      <point x="154" y="410" type="line" smooth="yes"/>
      <point x="150" y="425"/>
      <point x="147" y="442"/>
      <point x="147" y="453" type="curve" smooth="yes"/>
      <point x="147" y="486"/>
      <point x="163" y="495"/>
      <point x="195" y="495" type="curve" smooth="yes"/>
      <point x="200" y="495" type="line"/>
      <point x="200" y="536" type="line"/>
      <point x="1" y="536" type="line"/>
      <point x="1" y="495" type="line"/>
      <point x="3" y="495" type="line"/>
      <point x="34" y="495"/>
      <point x="51" y="485"/>
    </contour>
  </outline>
</glyph>
<glyph name="x.mono" format="2">
  <advance width="500"/>
  <unicode hex="0078"/>
  <anchor x="250" y="0" name="bottom"/>
  <anchor x="250" y="536" name="top"/>
  <anchor x="480" y="536" name="topright"/>
  <outline>
    <contour>
      <point x="30" y="0" type="line"/>
      <point x="126" y="0" type="line"/>
      <point x="250" y="213" type="line"/>
      <point x="373" y="0" type="line"/>
      <point x="470" y="0" type="line"/>
      <point x="297" y="272" type="line"/>
      <point x="462" y="536" type="line"/>
      <point x="368" y="536" type="line"/>
      <point x="248" y="336" type="line"/>
      <point x="134" y="536" type="line"/>
      <point x="39" y="536" type="line"/>
      <point x="200" y="275" type="line"/>
    </contour>
  </outline>
</glyph>
<glyph name="x.serif" format="2">
  <advance width="470"/>
  <unicode hex="0078"/>
  <anchor x="235" y="0" name="bottom"/>
  <anchor x="235" y="536" name="top"/>
  <anchor x="450" y="536" name="topright"/>
  <outline>
    <contour>
      <point x="5" y="0" type="line"/>
      <point x="196" y="0" type="line"/>
      <point x="196" y="41" type="line"/>
      <point x="194" y="41" type="line" smooth="yes"/>
      <point x="159" y="41"/>
      <point x="145" y="51"/>
      <point x="145" y="73" type="curve" smooth="yes"/>
      <point x="145" y="95"/>
      <point x="155" y="113"/>
      <point x="166" y="136" type="curve" smooth="yes"/>
      <point x="220" y="237" type="line"/>
      <point x="271" y="143" type="line" smooth="yes"/>
      <point x="295" y="101"/>
      <point x="302" y="89"/>
      <point x="302" y="74" type="curve" smooth="yes"/>
      <point x="302" y="52"/>
      <point x="286" y="41"/>
      <point x="254" y="41" type="curve" smooth="yes"/>
      <point x="250" y="41" type="line"/>
      <point x="250" y="0" type="line"/>
      <point x="466" y="0" type="line"/>
      <point x="466" y="41" type="line"/>
      <point x="456" y="41" type="line" smooth="yes"/>
      <point x="437" y="41"/>
      <point x="416" y="55"/>
      <point x="393" y="94" type="curve" smooth="yes"/>
      <point x="278" y="290" type="line"/>
      <point x="359" y="431" type="line" smooth="yes"/>
      <point x="391" y="486"/>
      <point x="407" y="495"/>
      <point x="438" y="495" type="curve" smooth="yes"/>
      <point x="445" y="495" type="line"/>
      <point x="445" y="536" type="line"/>
      <point x="270" y="536" type="line"/>
      <point x="270" y="495" type="line"/>
      <point x="274" y="495" type="line" smooth="yes"/>
      <point x="297" y="495"/>
      <point x="315" y="491"/>
      <point x="315" y="467" type="curve" smooth="yes"/>
      <point x="315" y="449"/>
      <point x="307" y="432"/>
      <point x="295" y="408" type="curve" smooth="yes"/>
      <point x="254" y="325" type="line"/>
      <point x="204" y="420" type="line" smooth="yes"/>
      <point x="192" y="441"/>
      <point x="186" y="452"/>
      <point x="186" y="466" type="curve" smooth="yes"/>
      <point x="186" y="482"/>
      <point x="194" y="495"/>
      <point x="229" y="495" type="curve" smooth="yes"/>
      <point x="231" y="495" type="line"/>
      <point x="231" y="536" type="line"/>
      <point x="19" y="536" type="line"/>
      <point x="19" y="495" type="line"/>
      <point x="30" y="495" type="line" smooth="yes"/>
      <point x="57" y="495"/>
      <point x="77" y="478"/>
      <point x="98" y="442" type="curve" smooth="yes"/>
      <point x="196" y="272" type="line"/>
      <point x="98" y="105" type="line" smooth="yes"/>
      <point x="67" y="53"/>
      <point x="50" y="41"/>
      <point x="12" y="41" type="curve" smooth="yes"/>
      <point x="5" y="41" type="line"/>
    </contour>
  </outline>
</glyph>
<glyph name="y.serif" format="2">
  <advance width="449"/>
  <unicode hex="0079"/>
  <anchor x="115" y="-236" name="bottom"/>
  <anchor x="245" y="536" name="top"/>
  <anchor x="452" y="536" name="topright"/>
  <outline>
    <contour>
      <point x="28" y="-190" type="curve"/>
      <point x="28" y="-236" type="line"/>
      <point x="37" y="-236" type="line" smooth="yes"/>
      <point x="184" y="-236"/>
      <point x="210" y="-190"/>
      <point x="266" y="5" type="curve" smooth="yes"/>
      <point x="386" y="422" type="line" smooth="yes"/>
      <point x="404" y="487"/>
      <point x="417" y="495"/>
      <point x="448" y="495" type="curve" smooth="yes"/>
      <point x="450" y="495" type="line"/>
      <point x="450" y="536" type="line"/>
      <point x="287" y="536" type="line"/>
      <point x="287" y="495" type="line"/>
      <point x="290" y="495" type="line" smooth="yes"/>
      <point x="323" y="494"/>
      <point x="339" y="486"/>
      <point x="339" y="460" type="curve" smooth="yes"/>
      <point x="339" y="441"/>
      <point x="335" y="423"/>
      <point x="329" y="403" type="curve" smooth="yes"/>
      <point x="279" y="205" type="line" smooth="yes"/>
      <point x="266" y="157"/>
      <point x="257" y="119"/>
      <point x="250" y="82" type="curve"/>
      <point x="245" y="116"/>
      <point x="233" y="167"/>
      <point x="213" y="233" type="curve" smooth="yes"/>
      <point x="165" y="394" type="line" smooth="yes"/>
      <point x="156" y="423"/>
      <point x="150" y="445"/>
      <point x="150" y="462" type="curve" smooth="yes"/>
      <point x="150" y="481"/>
      <point x="161" y="495"/>
      <point x="198" y="495" type="curve" smooth="yes"/>
      <point x="201" y="495" type="line"/>
      <point x="201" y="536" type="line"/>
      <point x="3" y="536" type="line"/>
      <point x="3" y="495" type="line"/>
      <point x="6" y="495" type="line" smooth="yes"/>
      <point x="37" y="495"/>
      <point x="46" y="486"/>
      <point x="61" y="442" type="curve" smooth="yes"/>
      <point x="204" y="-3" type="line"/>
      <point x="173" y="-122"/>
      <point x="131" y="-190"/>
    </contour>
  </outline>
</glyph>
<glyph name="z.serif" format="2">
  <advance width="408"/>
  <unicode hex="007A"/>
  <anchor x="204" y="0" name="bottom"/>
  <anchor x="204" y="536" name="top"/>
  <anchor x="379" y="536" name="topright"/>
  <outline>
    <contour>
      <point x="29" y="0" type="line"/>
      <point x="365" y="0" type="line"/>
      <point x="369" y="160" type="line"/>
      <point x="333" y="160" type="line"/>
      <point x="328" y="132" type="line" smooth="yes"/>
      <point x="319" y="75"/>
      <point x="304" y="46"/>
      <point x="262" y="46" type="curve" smooth="yes"/>
      <point x="126" y="46" type="line"/>
      <point x="363" y="495" type="line"/>
      <point x="363" y="536" type="line"/>
      <point x="50" y="536" type="line"/>
      <point x="41" y="397" type="line"/>
      <point x="79" y="397" type="line"/>
      <point x="83" y="411" type="line" smooth="yes"/>
      <point x="95" y="463"/>
      <point x="106" y="490"/>
      <point x="152" y="490" type="curve" smooth="yes"/>
      <point x="265" y="490" type="line"/>
      <point x="29" y="40" type="line"/>
    </contour>
  </outline>
</glyph>
<glyph name="asciitilde.mono" format="2">
  <advance width="500"/>
  <unicode hex="007E"/>
  <outline>
    <contour>
      <point x="67" y="290" type="curve"/>
      <point x="120" y="290" type="line"/>
      <point x="127" y="371"/>
      <point x="140" y="409"/>
      <point x="171" y="409" type="curve" smooth="yes"/>
      <point x="192" y="409"/>
      <point x="207" y="391"/>
      <point x="236" y="355" type="curve" smooth="yes"/>
      <point x="282" y="297"/>
      <point x="306" y="290"/>
      <point x="336" y="290" type="curve" smooth="yes"/>
      <point x="407" y="290"/>
      <point x="429" y="382"/>
      <point x="435" y="464" type="curve"/>
      <point x="381" y="464" type="line"/>
      <point x="375" y="383"/>
      <point x="363" y="345"/>
      <point x="333" y="345" type="curve" smooth="yes"/>
      <point x="311" y="345"/>
      <point x="295" y="364"/>
      <point x="268" y="398" type="curve" smooth="yes"/>
      <point x="233" y="442"/>
      <point x="206" y="464"/>
      <point x="168" y="464" type="curve" smooth="yes"/>
      <point x="93" y="464"/>
      <point x="73" y="374"/>
    </contour>
  </outline>
</glyph>
<glyph name="cent.serif" format="2">
  <advance width="442"/>
  <unicode hex="00A2"/>
  <outline>
    <contour>
      <point x="226" y="88" type="curve"/>
      <point x="226" y="0" type="line"/>
      <point x="267" y="0" type="line"/>
      <point x="267" y="86" type="line"/>
      <point x="350" y="93"/>
      <point x="393" y="140"/>
      <point x="393" y="186" type="curve" smooth="yes"/>
      <point x="393" y="204"/>
      <point x="387" y="217"/>
      <point x="377" y="225" type="curve"/>
      <point x="359" y="184"/>
      <point x="320" y="142"/>
      <point x="267" y="142" type="curve"/>
      <point x="267" y="591" type="line"/>
      <point x="307" y="581"/>
      <point x="322" y="535"/>
      <point x="322" y="480" type="curve"/>
      <point x="379" y="480"/>
      <point x="397" y="502"/>
      <point x="397" y="542" type="curve" smooth="yes"/>
      <point x="397" y="600"/>
      <point x="346" y="635"/>
      <point x="267" y="641" type="curve"/>
      <point x="267" y="714" type="line"/>
      <point x="226" y="714" type="line"/>
      <point x="226" y="641" type="line"/>
      <point x="129" y="631"/>
      <point x="57" y="559"/>
      <point x="57" y="361" type="curve" smooth="yes"/>
      <point x="57" y="177"/>
      <point x="124" y="102"/>
    </contour>
    <contour>
      <point x="226" y="591" type="curve"/>
      <point x="226" y="147" type="line"/>
      <point x="171" y="167"/>
      <point x="146" y="241"/>
      <point x="146" y="362" type="curve" smooth="yes"/>
      <point x="146" y="522"/>
      <point x="177" y="580"/>
    </contour>
  </outline>
</glyph>
<glyph name="sterling.serif" format="2">
  <advance width="442"/>
  <unicode hex="00A3"/>
  <outline>
    <contour>
      <point x="324" y="-10" type="curve" smooth="yes"/>
      <point x="369" y="-10"/>
      <point x="403" y="31"/>
      <point x="422" y="57" type="curve"/>
      <point x="422" y="114" type="line"/>
      <point x="403" y="86"/>
      <point x="374" y="64"/>
      <point x="346" y="64" type="curve" smooth="yes"/>
      <point x="323" y="64"/>
      <point x="297" y="76"/>
      <point x="276" y="83" type="curve" smooth="yes"/>
      <point x="255" y="91"/>
      <point x="225" y="104"/>
      <point x="203" y="104" type="curve" smooth="yes"/>
      <point x="187" y="104"/>
      <point x="166" y="98"/>
      <point x="144" y="82" type="curve"/>
      <point x="143" y="85" type="line"/>
      <point x="186" y="123"/>
      <point x="215" y="181"/>
      <point x="215" y="233" type="curve" smooth="yes"/>
      <point x="215" y="271"/>
      <point x="210" y="300"/>
      <point x="201" y="332" type="curve"/>
      <point x="323" y="332" type="line"/>
      <point x="323" y="377" type="line"/>
      <point x="189" y="377" type="line"/>
      <point x="177" y="417"/>
      <point x="160" y="482"/>
      <point x="160" y="545" type="curve" smooth="yes"/>
      <point x="160" y="628"/>
      <point x="185" y="675"/>
      <point x="240" y="675" type="curve" smooth="yes"/>
      <point x="304" y="675"/>
      <point x="317" y="614"/>
      <point x="317" y="550" type="curve"/>
      <point x="365" y="550"/>
      <point x="390" y="569"/>
      <point x="390" y="612" type="curve" smooth="yes"/>
      <point x="390" y="676"/>
      <point x="344" y="724"/>
      <point x="243" y="724" type="curve" smooth="yes"/>
      <point x="140" y="724"/>
      <point x="78" y="654"/>
      <point x="78" y="540" type="curve" smooth="yes"/>
      <point x="78" y="484"/>
      <point x="93" y="423"/>
      <point x="106" y="377" type="curve"/>
      <point x="34" y="377" type="line"/>
      <point x="34" y="332" type="line"/>
      <point x="121" y="332" type="line"/>
      <point x="131" y="296"/>
      <point x="139" y="257"/>
      <point x="139" y="217" type="curve" smooth="yes"/>
      <point x="139" y="138"/>
      <point x="100" y="83"/>
      <point x="68" y="59" type="curve" smooth="yes"/>
      <point x="49" y="44" type="line"/>
      <point x="49" y="-2" type="line"/>
      <point x="64" y="7" type="line" smooth="yes"/>
      <point x="91" y="23"/>
      <point x="118" y="35"/>
      <point x="150" y="35" type="curve" smooth="yes"/>
      <point x="182" y="35"/>
      <point x="203" y="26"/>
      <point x="229" y="14" type="curve" smooth="yes"/>
      <point x="257" y="3"/>
      <point x="284" y="-10"/>
    </contour>
  </outline>
</glyph>
<glyph name="currency.serif" format="2">
  <advance width="442"/>
  <unicode hex="00A4"/>
  <outline>
    <contour>
      <point x="86" y="143" type="line"/>
      <point x="137" y="209" type="line"/>
      <point x="160" y="187"/>
      <point x="189" y="175"/>
      <point x="220" y="175" type="curve" smooth="yes"/>
      <point x="251" y="175"/>
      <point x="280" y="188"/>
      <point x="304" y="210" type="curve"/>
      <point x="355" y="143" type="line"/>
      <point x="389" y="184" type="line"/>
      <point x="339" y="250" type="line"/>
      <point x="356" y="281"/>
      <point x="366" y="318"/>
      <point x="366" y="358" type="curve" smooth="yes"/>
      <point x="366" y="399"/>
      <point x="356" y="436"/>
      <point x="339" y="466" type="curve"/>
      <point x="389" y="532" type="line"/>
      <point x="355" y="574" type="line"/>
      <point x="303" y="507" type="line"/>
      <point x="279" y="529"/>
      <point x="251" y="542"/>
      <point x="220" y="542" type="curve" smooth="yes"/>
      <point x="189" y="542"/>
      <point x="160" y="529"/>
      <point x="136" y="507" type="curve"/>
      <point x="86" y="573" type="line"/>
      <point x="51" y="532" type="line"/>
      <point x="102" y="465" type="line"/>
      <point x="85" y="436"/>
      <point x="75" y="399"/>
      <point x="75" y="358" type="curve" smooth="yes"/>
      <point x="75" y="318"/>
      <point x="84" y="281"/>
      <point x="101" y="250" type="curve"/>
      <point x="51" y="183" type="line"/>
    </contour>
    <contour>
      <point x="220" y="229" type="curve" smooth="yes"/>
      <point x="166" y="229"/>
      <point x="122" y="287"/>
      <point x="122" y="358" type="curve" smooth="yes"/>
      <point x="122" y="431"/>
      <point x="166" y="489"/>
      <point x="220" y="489" type="curve" smooth="yes"/>
      <point x="276" y="489"/>
      <point x="319" y="431"/>
      <point x="319" y="358" type="curve" smooth="yes"/>
      <point x="319" y="287"/>
      <point x="276" y="229"/>
    </contour>
  </outline>
</glyph>
<glyph name="yen.serif" format="2">
  <advance width="442"/>
  <unicode hex="00A5"/>
  <outline>
    <contour>
      <point x="103" y="0" type="line"/>
      <point x="345" y="0" type="line"/>
      <point x="345" y="41" type="line"/>
      <point x="327" y="41" type="line" smooth="yes"/>
      <point x="291" y="41"/>
      <point x="268" y="57"/>
      <point x="268" y="116" type="curve" smooth="yes"/>
      <point x="268" y="177" type="line"/>
      <point x="379" y="177" type="line"/>
      <point x="379" y="223" type="line"/>
      <point x="268" y="223" type="line"/>
      <point x="268" y="296" type="line"/>
      <point x="379" y="296" type="line"/>
      <point x="379" y="341" type="line"/>
      <point x="277" y="341" type="line"/>
      <point x="376" y="597" type="line" smooth="yes"/>
      <point x="399" y="658"/>
      <point x="407" y="673"/>
      <point x="432" y="673" type="curve" smooth="yes"/>
      <point x="437" y="673" type="line"/>
      <point x="437" y="714" type="line"/>
      <point x="286" y="714" type="line"/>
      <point x="286" y="673" type="line"/>
      <point x="289" y="673" type="line" smooth="yes"/>
      <point x="317" y="673"/>
      <point x="335" y="662"/>
      <point x="335" y="637" type="curve" smooth="yes"/>
      <point x="335" y="615"/>
      <point x="324" y="580"/>
      <point x="313" y="551" type="curve" smooth="yes"/>
      <point x="268" y="429" type="line" smooth="yes"/>
      <point x="257" y="401"/>
      <point x="246" y="369"/>
      <point x="239" y="347" type="curve"/>
      <point x="234" y="376"/>
      <point x="219" y="423"/>
      <point x="204" y="467" type="curve" smooth="yes"/>
      <point x="166" y="575" type="line" smooth="yes"/>
      <point x="158" y="599"/>
      <point x="150" y="622"/>
      <point x="150" y="638" type="curve" smooth="yes"/>
      <point x="150" y="665"/>
      <point x="166" y="673"/>
      <point x="197" y="673" type="curve" smooth="yes"/>
      <point x="201" y="673" type="line"/>
      <point x="201" y="714" type="line"/>
      <point x="3" y="714" type="line"/>
      <point x="3" y="673" type="line"/>
      <point x="7" y="673" type="line" smooth="yes"/>
      <point x="34" y="673"/>
      <point x="44" y="659"/>
      <point x="59" y="620" type="curve" smooth="yes"/>
      <point x="165" y="341" type="line"/>
      <point x="69" y="341" type="line"/>
      <point x="69" y="296" type="line"/>
      <point x="179" y="296" type="line"/>
      <point x="179" y="223" type="line"/>
      <point x="69" y="223" type="line"/>
      <point x="69" y="177" type="line"/>
      <point x="179" y="177" type="line"/>
      <point x="179" y="112" type="line" smooth="yes"/>
      <point x="179" y="57"/>
      <point x="156" y="41"/>
      <point x="121" y="41" type="curve" smooth="yes"/>
      <point x="103" y="41" type="line"/>
    </contour>
  </outline>
</glyph>
<glyph name="section.serif" format="2">
  <advance width="431"/>
  <unicode hex="00A7"/>
  <outline>
    <contour>
      <point x="220" y="-114" type="curve" smooth="yes"/>
      <point x="316" y="-114"/>
      <point x="371" y="-36"/>
      <point x="371" y="59" type="curve" smooth="yes"/>
      <point x="371" y="110"/>
      <point x="359" y="137"/>
      <point x="343" y="163" type="curve"/>
      <point x="368" y="195"/>
      <point x="389" y="237"/>
      <point x="389" y="291" type="curve" smooth="yes"/>
      <point x="389" y="367"/>
      <point x="344" y="409"/>
      <point x="241" y="471" type="curve" smooth="yes"/>
      <point x="171" y="513"/>
      <point x="137" y="542"/>
      <point x="137" y="613" type="curve" smooth="yes"/>
      <point x="137" y="676"/>
      <point x="169" y="714"/>
      <point x="221" y="714" type="curve" smooth="yes"/>
      <point x="276" y="714"/>
      <point x="299" y="662"/>
      <point x="299" y="605" type="curve"/>
      <point x="336" y="605"/>
      <point x="356" y="627"/>
      <point x="356" y="664" type="curve" smooth="yes"/>
      <point x="356" y="713"/>
      <point x="312" y="760"/>
      <point x="225" y="760" type="curve" smooth="yes"/>
      <point x="138" y="760"/>
      <point x="76" y="702"/>
      <point x="76" y="601" type="curve" smooth="yes"/>
      <point x="76" y="554"/>
      <point x="88" y="525"/>
      <point x="106" y="495" type="curve"/>
      <point x="79" y="470"/>
      <point x="58" y="434"/>
      <point x="58" y="384" type="curve" smooth="yes"/>
      <point x="58" y="308"/>
      <point x="92" y="268"/>
      <point x="188" y="204" type="curve" smooth="yes"/>
      <point x="300" y="132"/>
      <point x="315" y="92"/>
      <point x="315" y="39" type="curve" smooth="yes"/>
      <point x="315" y="-22"/>
      <point x="284" y="-70"/>
      <point x="227" y="-70" type="curve" smooth="yes"/>
      <point x="156" y="-70"/>
      <point x="127" y="1"/>
      <point x="127" y="69" type="curve"/>
      <point x="102" y="69"/>
      <point x="72" y="55"/>
      <point x="72" y="1" type="curve" smooth="yes"/>
      <point x="72" y="-68"/>
      <point x="117" y="-114"/>
    </contour>
    <contour>
      <point x="316" y="189" type="curve"/>
      <point x="302" y="203"/>
      <point x="272" y="232"/>
      <point x="229" y="261" type="curve" smooth="yes"/>
      <point x="140" y="320"/>
      <point x="114" y="348"/>
      <point x="114" y="402" type="curve" smooth="yes"/>
      <point x="114" y="434"/>
      <point x="123" y="456"/>
      <point x="132" y="469" type="curve"/>
      <point x="159" y="445"/>
      <point x="192" y="422"/>
      <point x="229" y="398" type="curve" smooth="yes"/>
      <point x="312" y="345"/>
      <point x="329" y="309"/>
      <point x="329" y="263" type="curve" smooth="yes"/>
      <point x="329" y="234"/>
      <point x="322" y="205"/>
    </contour>
  </outline>
</glyph>
<glyph name="dieresis.serif" format="2">
  <advance width="457"/>
  <unicode hex="00A8"/>
  <outline>
    <contour>
      <point x="300" y="640" type="curve" smooth="yes"/>
      <point x="322" y="640"/>
      <point x="342" y="653"/>
      <point x="342" y="692" type="curve" smooth="yes"/>
      <point x="342" y="732"/>
      <point x="322" y="745"/>
      <point x="300" y="745" type="curve" smooth="yes"/>
      <point x="276" y="745"/>
      <point x="257" y="732"/>
      <point x="257" y="692" type="curve" smooth="yes"/>
      <point x="257" y="653"/>
      <point x="276" y="640"/>
    </contour>
    <contour>
      <point x="156" y="640" type="curve" smooth="yes"/>
      <point x="178" y="640"/>
      <point x="199" y="653"/>
      <point x="199" y="692" type="curve" smooth="yes"/>
      <point x="199" y="732"/>
      <point x="178" y="745"/>
      <point x="156" y="745" type="curve" smooth="yes"/>
      <point x="133" y="745"/>
      <point x="115" y="732"/>
      <point x="115" y="692" type="curve" smooth="yes"/>
      <point x="115" y="653"/>
      <point x="133" y="640"/>
    </contour>
  </outline>
</glyph>
<glyph name="copyright.serif" format="2">
  <advance width="669"/>
  <unicode hex="00A9"/>
  <outline>
    <contour>
      <point x="335" y="-10" type="curve" smooth="yes"/>
      <point x="519" y="-10"/>
      <point x="626" y="151"/>
      <point x="626" y="358" type="curve" smooth="yes"/>
      <point x="626" y="563"/>
      <point x="521" y="725"/>
      <point x="336" y="725" type="curve" smooth="yes"/>
      <point x="152" y="725"/>
      <point x="43" y="563"/>
      <point x="43" y="358" type="curve" smooth="yes"/>
      <point x="43" y="156"/>
      <point x="149" y="-10"/>
    </contour>
    <contour>
      <point x="341" y="107" type="curve" smooth="yes"/>
      <point x="425" y="107"/>
      <point x="468" y="165"/>
      <point x="468" y="206" type="curve" smooth="yes"/>
      <point x="468" y="222"/>
      <point x="461" y="228"/>
      <point x="445" y="234" type="curve"/>
      <point x="428" y="185"/>
      <point x="400" y="146"/>
      <point x="344" y="146" type="curve" smooth="yes"/>
      <point x="266" y="146"/>
      <point x="220" y="223"/>
      <point x="220" y="366" type="curve" smooth="yes"/>
      <point x="220" y="492"/>
      <point x="256" y="569"/>
      <point x="344" y="569" type="curve" smooth="yes"/>
      <point x="418" y="569"/>
      <point x="437" y="515"/>
      <point x="437" y="458" type="curve"/>
      <point x="457" y="458"/>
      <point x="473" y="474"/>
      <point x="473" y="505" type="curve" smooth="yes"/>
      <point x="473" y="552"/>
      <point x="434" y="607"/>
      <point x="344" y="607" type="curve" smooth="yes"/>
      <point x="227" y="607"/>
      <point x="172" y="518"/>
      <point x="172" y="364" type="curve" smooth="yes"/>
      <point x="172" y="196"/>
      <point x="237" y="107"/>
    </contour>
    <contour>
      <point x="338" y="33" type="curve" smooth="yes"/>
      <point x="183" y="33"/>
      <point x="88" y="171"/>
      <point x="88" y="359" type="curve" smooth="yes"/>
      <point x="88" y="543"/>
      <point x="180" y="682"/>
      <point x="336" y="682" type="curve" smooth="yes"/>
      <point x="491" y="682"/>
      <point x="580" y="546"/>
      <point x="580" y="358" type="curve" smooth="yes"/>
      <point x="580" y="171"/>
      <point x="492" y="33"/>
    </contour>
  </outline>
</glyph>
<glyph name="ordfeminine.serif" format="2">
  <advance width="310"/>
  <unicode hex="00AA"/>
  <anchor x="152" y="386" name="bottom"/>
  <anchor x="158" y="719" name="top"/>
  <outline>
    <contour>
      <point x="108" y="380" type="curve" smooth="yes"/>
      <point x="151" y="380"/>
      <point x="180" y="405"/>
      <point x="199" y="439" type="curve"/>
      <point x="203" y="439" type="line"/>
      <point x="215" y="386" type="line"/>
      <point x="292" y="386" type="line"/>
      <point x="292" y="419" type="line"/>
      <point x="266" y="419"/>
      <point x="257" y="428"/>
      <point x="257" y="458" type="curve"/>
      <point x="257" y="610" type="line" smooth="yes"/>
      <point x="257" y="690"/>
      <point x="221" y="719"/>
      <point x="152" y="719" type="curve" smooth="yes"/>
      <point x="88" y="719"/>
      <point x="48" y="694"/>
      <point x="48" y="651" type="curve" smooth="yes"/>
      <point x="48" y="624"/>
      <point x="65" y="616"/>
      <point x="103" y="616" type="curve"/>
      <point x="103" y="652"/>
      <point x="108" y="687"/>
      <point x="148" y="687" type="curve"/>
      <point x="183" y="687"/>
      <point x="195" y="656"/>
      <point x="195" y="614" type="curve" smooth="yes"/>
      <point x="195" y="581" type="line"/>
      <point x="153" y="579" type="line"/>
      <point x="66" y="574"/>
      <point x="27" y="543"/>
      <point x="27" y="475" type="curve" smooth="yes"/>
      <point x="27" y="415"/>
      <point x="57" y="380"/>
    </contour>
    <contour>
      <point x="133" y="420" type="curve" smooth="yes"/>
      <point x="108" y="420"/>
      <point x="92" y="434"/>
      <point x="92" y="477" type="curve"/>
      <point x="92" y="524"/>
      <point x="107" y="551"/>
      <point x="165" y="553" type="curve"/>
      <point x="195" y="554" type="line"/>
      <point x="195" y="506" type="line" smooth="yes"/>
      <point x="195" y="451"/>
      <point x="171" y="420"/>
    </contour>
  </outline>
</glyph>
<glyph name="guillemetleft.display" format="2">
  <advance width="450"/>
  <unicode hex="00AB"/>
  <outline>
    <contour>
      <point x="33" y="271" type="line"/>
      <point x="33" y="257" type="line"/>
      <point x="173" y="63" type="line"/>
      <point x="230" y="94" type="line"/>
      <point x="128" y="264" type="line"/>
      <point x="230" y="436" type="line"/>
      <point x="173" y="465" type="line"/>
    </contour>
    <contour>
      <point x="218" y="271" type="line"/>
      <point x="218" y="257" type="line"/>
      <point x="359" y="63" type="line"/>
      <point x="416" y="94" type="line"/>
      <point x="314" y="264" type="line"/>
      <point x="416" y="436" type="line"/>
      <point x="359" y="465" type="line"/>
    </contour>
  </outline>
</glyph>
<glyph name="guillemetleft.mono" format="2">
  <advance width="500"/>
  <unicode hex="00AB"/>
  <outline>
    <contour>
      <point x="389" y="63" type="line"/>
      <point x="445" y="94" type="line"/>
      <point x="340" y="264" type="line"/>
      <point x="445" y="436" type="line"/>
      <point x="389" y="465" type="line"/>
      <point x="244" y="271" type="line"/>
      <point x="244" y="257" type="line"/>
    </contour>
    <contour>
      <point x="199" y="63" type="line"/>
      <point x="256" y="94" type="line"/>
      <point x="150" y="264" type="line"/>
      <point x="256" y="436" type="line"/>
      <point x="199" y="465" type="line"/>
      <point x="55" y="271" type="line"/>
      <point x="55" y="257" type="line"/>
    </contour>
  </outline>
</glyph>
<glyph name="guillemetleft.serif" format="2">
  <advance width="414"/>
  <unicode hex="00AB"/>
  <outline>
    <contour>
      <point x="307" y="81" type="line"/>
      <point x="345" y="81" type="line"/>
      <point x="261" y="270" type="line"/>
      <point x="345" y="459" type="line"/>
      <point x="307" y="459" type="line"/>
      <point x="185" y="285" type="line"/>
      <point x="185" y="255" type="line"/>
    </contour>
    <contour>
      <point x="191" y="81" type="line"/>
      <point x="229" y="81" type="line"/>
      <point x="145" y="270" type="line"/>
      <point x="229" y="459" type="line"/>
      <point x="191" y="459" type="line"/>
      <point x="70" y="285" type="line"/>
      <point x="70" y="255" type="line"/>
    </contour>
  </outline>
</glyph>
<glyph name="guillemotleft" format="2">
  <advance width="460"/>
  <unicode hex="00AB"/>
  <outline>
    <contour>
      <point x="35" y="271" type="line"/>
      <point x="35" y="257" type="line"/>
      <point x="179" y="63" type="line"/>
      <point x="236" y="94" type="line"/>
      <point x="130" y="264" type="line"/>
      <point x="236" y="436" type="line"/>
      <point x="179" y="465" type="line"/>
    </contour>
    <contour>
      <point x="224" y="271" type="line"/>
      <point x="224" y="257" type="line"/>
      <point x="369" y="63" type="line"/>
      <point x="425" y="94" type="line"/>
      <point x="320" y="264" type="line"/>
      <point x="425" y="436" type="line"/>
      <point x="369" y="465" type="line"/>
    </contour>
  </outline>
</glyph>
<glyph name="logicalnot.mono" format="2">
  <advance width="500"/>
  <unicode hex="00AC"/>
  <outline>
    <contour>
      <point x="362" y="120" type="line"/>
      <point x="431" y="120" type="line"/>
      <point x="431" y="387" type="line"/>
      <point x="70" y="387" type="line"/>
      <point x="70" y="319" type="line"/>
      <point x="362" y="319" type="line"/>
    </contour>
  </outline>
</glyph>
<glyph name="registered.display" format="2">
  <advance width="804"/>
  <unicode hex="00AE"/>
  <outline>
    <contour>
      <point x="383" y="369" type="curve" smooth="yes"/>
      <point x="343" y="369" type="line"/>
      <point x="343" y="516" type="line"/>
      <point x="384" y="516" type="line" smooth="yes"/>
      <point x="440" y="516"/>
      <point x="466" y="494"/>
      <point x="466" y="445" type="curve" smooth="yes"/>
      <point x="466" y="393"/>
      <point x="434" y="369"/>
    </contour>
    <contour>
      <point x="540" y="448" type="curve" smooth="yes"/>
      <point x="540" y="533"/>
      <point x="485" y="574"/>
      <point x="387" y="574" type="curve" smooth="yes"/>
      <point x="273" y="574" type="line"/>
      <point x="273" y="145" type="line"/>
      <point x="344" y="145" type="line"/>
      <point x="344" y="315" type="line"/>
      <point x="407" y="315" type="line"/>
      <point x="486" y="145" type="line"/>
      <point x="564" y="145" type="line"/>
      <point x="471" y="331" type="line"/>
      <point x="517" y="353"/>
      <point x="540" y="391"/>
    </contour>
    <contour>
      <point x="46" y="357" type="curve" smooth="yes"/>
      <point x="46" y="168"/>
      <point x="192" y="-10"/>
      <point x="402" y="-10" type="curve" smooth="yes"/>
      <point x="597" y="-10"/>
      <point x="758" y="154"/>
      <point x="758" y="357" type="curve" smooth="yes"/>
      <point x="758" y="553"/>
      <point x="603" y="724"/>
      <point x="402" y="724" type="curve" smooth="yes"/>
      <point x="214" y="724"/>
      <point x="46" y="565"/>
    </contour>
    <contour>
      <point x="98" y="357" type="curve" smooth="yes"/>
      <point x="98" y="523"/>
      <point x="231" y="671"/>
      <point x="402" y="671" type="curve" smooth="yes"/>
      <point x="566" y="671"/>
      <point x="705" y="529"/>
      <point x="705" y="357" type="curve" smooth="yes"/>
      <point x="705" y="191"/>
      <point x="573" y="43"/>
      <point x="402" y="43" type="curve" smooth="yes"/>
      <point x="240" y="43"/>
      <point x="98" y="179"/>
    </contour>
  </outline>
</glyph>
<glyph name="overscore.mono" format="2">
  <advance width="500"/>
  <unicode hex="00AF"/>
  <outline>
    <contour>
      <point x="128" y="634" type="line"/>
      <point x="371" y="634" type="line"/>
      <point x="371" y="696" type="line"/>
      <point x="128" y="696" type="line"/>
    </contour>
  </outline>
</glyph>
<glyph name="degree.serif" format="2">
  <advance width="316"/>
  <unicode hex="00B0"/>
  <outline>
    <contour>
      <point x="157" y="434" type="curve" smooth="yes"/>
      <point x="232" y="434"/>
      <point x="277" y="495"/>
      <point x="277" y="581" type="curve" smooth="yes"/>
      <point x="277" y="668"/>
      <point x="232" y="730"/>
      <point x="157" y="730" type="curve" smooth="yes"/>
      <point x="82" y="730"/>
      <point x="39" y="668"/>
      <point x="39" y="581" type="curve" smooth="yes"/>
      <point x="39" y="495"/>
      <point x="82" y="434"/>
    </contour>
    <contour>
      <point x="159" y="472" type="curve" smooth="yes"/>
      <point x="106" y="472"/>
      <point x="79" y="519"/>
      <point x="79" y="583" type="curve" smooth="yes"/>
      <point x="79" y="649"/>
      <point x="107" y="693"/>
      <point x="159" y="693" type="curve" smooth="yes"/>
      <point x="209" y="693"/>
      <point x="237" y="649"/>
      <point x="237" y="583" type="curve" smooth="yes"/>
      <point x="237" y="519"/>
      <point x="210" y="472"/>
    </contour>
  </outline>
</glyph>
<glyph name="twosuperior.serif" format="2">
  <advance width="313"/>
  <unicode hex="00B2"/>
  <outline>
    <contour>
      <point x="29" y="387" type="line"/>
      <point x="275" y="387" type="line"/>
      <point x="277" y="507" type="line"/>
      <point x="255" y="507" type="line"/>
      <point x="251" y="487" type="line"/>
      <point x="248" y="464"/>
      <point x="241" y="445"/>
      <point x="217" y="445" type="curve"/>
      <point x="84" y="445" type="line"/>
      <point x="156" y="528" type="line" smooth="yes"/>
      <point x="232" y="602"/>
      <point x="267" y="641"/>
      <point x="267" y="710" type="curve" smooth="yes"/>
      <point x="267" y="782"/>
      <point x="227" y="824"/>
      <point x="151" y="824" type="curve" smooth="yes"/>
      <point x="73" y="824"/>
      <point x="36" y="785"/>
      <point x="36" y="739" type="curve" smooth="yes"/>
      <point x="36" y="712"/>
      <point x="53" y="699"/>
      <point x="89" y="699" type="curve"/>
      <point x="89" y="759"/>
      <point x="106" y="790"/>
      <point x="145" y="790" type="curve" smooth="yes"/>
      <point x="181" y="790"/>
      <point x="199" y="759"/>
      <point x="199" y="710" type="curve" smooth="yes"/>
      <point x="199" y="644"/>
      <point x="171" y="603"/>
      <point x="126" y="548" type="curve" smooth="yes"/>
      <point x="29" y="431" type="line"/>
    </contour>
  </outline>
</glyph>
<glyph name="acute.mono" format="2">
  <advance width="500"/>
  <unicode hex="00B4"/>
  <outline>
    <contour>
      <point x="217" y="617" type="curve"/>
      <point x="217" y="606" type="line"/>
      <point x="269" y="606" type="line"/>
      <point x="310" y="642"/>
      <point x="378" y="715"/>
      <point x="403" y="757" type="curve"/>
      <point x="403" y="766" type="line"/>
      <point x="306" y="766" type="line"/>
      <point x="285" y="721"/>
      <point x="255" y="671"/>
    </contour>
  </outline>
</glyph>
<glyph name="acute.serif" format="2">
  <advance width="251"/>
  <unicode hex="00B4"/>
  <outline>
    <contour>
      <point x="40" y="619" type="curve"/>
      <point x="40" y="606" type="line"/>
      <point x="75" y="606" type="line"/>
      <point x="123" y="649"/>
      <point x="191" y="721"/>
      <point x="211" y="756" type="curve"/>
      <point x="211" y="766" type="line"/>
      <point x="115" y="766" type="line"/>
      <point x="100" y="721"/>
      <point x="68" y="670"/>
    </contour>
  </outline>
</glyph>
<glyph name="micro.serif" format="2">
  <advance width="497"/>
  <unicode hex="00B5"/>
  <outline>
    <contour>
      <point x="134" y="-240" type="curve" smooth="yes"/>
      <point x="173" y="-240"/>
      <point x="194" y="-212"/>
      <point x="194" y="-177" type="curve"/>
      <point x="131" y="-163"/>
      <point x="114" y="-105"/>
      <point x="115" y="58" type="curve"/>
      <point x="135" y="13"/>
      <point x="172" y="-10"/>
      <point x="216" y="-10" type="curve" smooth="yes"/>
      <point x="272" y="-10"/>
      <point x="306" y="36"/>
      <point x="330" y="95" type="curve"/>
      <point x="334" y="95" type="line"/>
      <point x="342" y="35"/>
      <point x="381" y="0"/>
      <point x="428" y="0" type="curve" smooth="yes"/>
      <point x="473" y="0" type="line"/>
      <point x="473" y="41" type="line"/>
      <point x="467" y="41" type="line" smooth="yes"/>
      <point x="429" y="41"/>
      <point x="413" y="61"/>
      <point x="413" y="119" type="curve" smooth="yes"/>
      <point x="413" y="536" type="line"/>
      <point x="326" y="536" type="line"/>
      <point x="326" y="214" type="line" smooth="yes"/>
      <point x="326" y="117"/>
      <point x="292" y="52"/>
      <point x="238" y="52" type="curve" smooth="yes"/>
      <point x="187" y="52"/>
      <point x="163" y="100"/>
      <point x="163" y="185" type="curve" smooth="yes"/>
      <point x="163" y="536" type="line"/>
      <point x="76" y="536" type="line"/>
      <point x="76" y="225" type="line" smooth="yes"/>
      <point x="76" y="58"/>
      <point x="67" y="-43"/>
      <point x="67" y="-123" type="curve" smooth="yes"/>
      <point x="67" y="-212"/>
      <point x="99" y="-240"/>
    </contour>
  </outline>
</glyph>
<glyph name="paragraph.serif" format="2">
  <advance width="490"/>
  <unicode hex="00B6"/>
  <outline>
    <contour>
      <point x="134" y="-111" type="line"/>
      <point x="259" y="-111" type="line"/>
      <point x="259" y="710" type="line"/>
      <point x="332" y="710" type="line"/>
      <point x="332" y="-111" type="line"/>
      <point x="458" y="-111" type="line"/>
      <point x="458" y="-70" type="line"/>
      <point x="448" y="-70" type="line" smooth="yes"/>
      <point x="412" y="-70"/>
      <point x="383" y="-61"/>
      <point x="383" y="2" type="curve" smooth="yes"/>
      <point x="383" y="647" type="line" smooth="yes"/>
      <point x="383" y="710"/>
      <point x="412" y="719"/>
      <point x="448" y="719" type="curve" smooth="yes"/>
      <point x="458" y="719" type="line"/>
      <point x="458" y="760" type="line"/>
      <point x="155" y="760" type="line" smooth="yes"/>
      <point x="64" y="760"/>
      <point x="32" y="689"/>
      <point x="32" y="582" type="curve" smooth="yes"/>
      <point x="32" y="478"/>
      <point x="60" y="386"/>
      <point x="153" y="386" type="curve" smooth="yes"/>
      <point x="209" y="386" type="line"/>
      <point x="209" y="2" type="line" smooth="yes"/>
      <point x="209" y="-61"/>
      <point x="180" y="-70"/>
      <point x="144" y="-70" type="curve" smooth="yes"/>
      <point x="134" y="-70" type="line"/>
    </contour>
  </outline>
</glyph>
<glyph name="periodcentered.serif" format="2">
  <advance width="207"/>
  <unicode hex="00B7"/>
  <outline>
    <contour>
      <point x="104" y="294" type="curve" smooth="yes"/>
      <point x="131" y="294"/>
      <point x="155" y="310"/>
      <point x="155" y="356" type="curve" smooth="yes"/>
      <point x="155" y="403"/>
      <point x="131" y="418"/>
      <point x="104" y="418" type="curve" smooth="yes"/>
      <point x="75" y="418"/>
      <point x="52" y="403"/>
      <point x="52" y="356" type="curve" smooth="yes"/>
      <point x="52" y="310"/>
      <point x="75" y="294"/>
    </contour>
  </outline>
</glyph>
<glyph name="cedilla.serif" format="2">
  <advance width="263"/>
  <unicode hex="00B8"/>
  <outline>
    <contour>
      <point x="106" y="-232" type="curve" smooth="yes"/>
      <point x="168" y="-232"/>
      <point x="210" y="-197"/>
      <point x="210" y="-128" type="curve" smooth="yes"/>
      <point x="210" y="-74"/>
      <point x="178" y="-44"/>
      <point x="132" y="-37" type="curve"/>
      <point x="141" y="9" type="line"/>
      <point x="104" y="9" type="line"/>
      <point x="88" y="-71" type="line"/>
      <point x="125" y="-77"/>
      <point x="150" y="-90"/>
      <point x="150" y="-130" type="curve" smooth="yes"/>
      <point x="150" y="-172"/>
      <point x="129" y="-187"/>
      <point x="96" y="-187" type="curve" smooth="yes"/>
      <point x="82" y="-187"/>
      <point x="64" y="-184"/>
      <point x="45" y="-179" type="curve"/>
      <point x="45" y="-222" type="line"/>
      <point x="64" y="-229"/>
      <point x="90" y="-232"/>
    </contour>
  </outline>
</glyph>
<glyph name="onesuperior.serif" format="2">
  <advance width="313"/>
  <unicode hex="00B9"/>
  <outline>
    <contour>
      <point x="50" y="387" type="line"/>
      <point x="271" y="387" type="line"/>
      <point x="271" y="422" type="line"/>
      <point x="231" y="422" type="line" smooth="yes"/>
      <point x="212" y="422"/>
      <point x="197" y="428"/>
      <point x="197" y="462" type="curve" smooth="yes"/>
      <point x="197" y="819" type="line"/>
      <point x="152" y="819" type="line"/>
      <point x="130" y="804" type="line" smooth="yes"/>
      <point x="98" y="768"/>
      <point x="65" y="745"/>
      <point x="34" y="741" type="curve"/>
      <point x="34" y="715"/>
      <point x="47" y="702"/>
      <point x="65" y="702" type="curve" smooth="yes"/>
      <point x="86" y="702"/>
      <point x="108" y="728"/>
      <point x="131" y="757" type="curve"/>
      <point x="131" y="462" type="line" smooth="yes"/>
      <point x="131" y="428"/>
      <point x="115" y="422"/>
      <point x="96" y="422" type="curve" smooth="yes"/>
      <point x="50" y="422" type="line"/>
    </contour>
  </outline>
</glyph>
<glyph name="ordmasculine.mono" format="2">
  <advance width="500"/>
  <unicode hex="00BA"/>
  <anchor x="249" y="378" name="bottom"/>
  <anchor x="250" y="722" name="top"/>
  <outline>
    <contour>
      <point x="258" y="382" type="curve" smooth="yes"/>
      <point x="344" y="382"/>
      <point x="390" y="444"/>
      <point x="390" y="553" type="curve" smooth="yes"/>
      <point x="390" y="665"/>
      <point x="341" y="722"/>
      <point x="258" y="722" type="curve" smooth="yes"/>
      <point x="173" y="722"/>
      <point x="123" y="660"/>
      <point x="123" y="553" type="curve" smooth="yes"/>
      <point x="123" y="445"/>
      <point x="170" y="382"/>
    </contour>
    <contour>
      <point x="257" y="436" type="curve" smooth="yes"/>
      <point x="211" y="436"/>
      <point x="188" y="473"/>
      <point x="188" y="553" type="curve" smooth="yes"/>
      <point x="188" y="635"/>
      <point x="212" y="669"/>
      <point x="257" y="669" type="curve" smooth="yes"/>
      <point x="305" y="669"/>
      <point x="327" y="635"/>
      <point x="327" y="553" type="curve" smooth="yes"/>
      <point x="327" y="473"/>
      <point x="307" y="436"/>
    </contour>
  </outline>
</glyph>
<glyph name="ordmasculine.serif" format="2">
  <advance width="322"/>
  <unicode hex="00BA"/>
  <anchor x="165" y="383" name="bottom"/>
  <anchor x="167" y="719" name="top"/>
  <outline>
    <contour>
      <point x="160" y="380" type="curve" smooth="yes"/>
      <point x="244" y="380"/>
      <point x="290" y="436"/>
      <point x="290" y="550" type="curve"/>
      <point x="290" y="664"/>
      <point x="241" y="719"/>
      <point x="162" y="719" type="curve" smooth="yes"/>
      <point x="77" y="719"/>
      <point x="33" y="664"/>
      <point x="33" y="550" type="curve" smooth="yes"/>
      <point x="33" y="436"/>
      <point x="80" y="380"/>
    </contour>
    <contour>
      <point x="161" y="415" type="curve" smooth="yes"/>
      <point x="114" y="415"/>
      <point x="98" y="462"/>
      <point x="98" y="550" type="curve"/>
      <point x="98" y="637"/>
      <point x="114" y="682"/>
      <point x="160" y="682" type="curve" smooth="yes"/>
      <point x="207" y="682"/>
      <point x="225" y="637"/>
      <point x="225" y="550" type="curve" smooth="yes"/>
      <point x="225" y="462"/>
      <point x="208" y="415"/>
    </contour>
  </outline>
</glyph>
<glyph name="guillemetright.display" format="2">
  <advance width="451"/>
  <unicode hex="00BB"/>
  <outline>
    <contour>
      <point x="418" y="257" type="line"/>
      <point x="418" y="271" type="line"/>
      <point x="277" y="465" type="line"/>
      <point x="220" y="436" type="line"/>
      <point x="322" y="264" type="line"/>
      <point x="220" y="94" type="line"/>
      <point x="277" y="63" type="line"/>
    </contour>
    <contour>
      <point x="232" y="257" type="line"/>
      <point x="232" y="271" type="line"/>
      <point x="91" y="465" type="line"/>
      <point x="35" y="436" type="line"/>
      <point x="136" y="264" type="line"/>
      <point x="35" y="94" type="line"/>
      <point x="91" y="63" type="line"/>
    </contour>
  </outline>
</glyph>
<glyph name="guillemetright.serif" format="2">
  <advance width="414"/>
  <unicode hex="00BB"/>
  <outline>
    <contour>
      <point x="201" y="81" type="line"/>
      <point x="240" y="81" type="line"/>
      <point x="361" y="255" type="line"/>
      <point x="361" y="285" type="line"/>
      <point x="240" y="459" type="line"/>
      <point x="201" y="459" type="line"/>
      <point x="285" y="270" type="line"/>
    </contour>
    <contour>
      <point x="53" y="81" type="line"/>
      <point x="92" y="81" type="line"/>
      <point x="213" y="255" type="line"/>
      <point x="213" y="285" type="line"/>
      <point x="92" y="459" type="line"/>
      <point x="53" y="459" type="line"/>
      <point x="138" y="270" type="line"/>
    </contour>
  </outline>
</glyph>
<glyph name="onequarter.mono" format="2">
  <advance width="500"/>
  <unicode hex="00BC"/>
  <outline>
    <contour>
      <point x="60" y="0" type="line"/>
      <point x="131" y="0" type="line"/>
      <point x="448" y="714" type="line"/>
      <point x="377" y="714" type="line"/>
    </contour>
    <contour>
      <point x="27" y="367" type="line"/>
      <point x="214" y="367" type="line"/>
      <point x="214" y="417" type="line"/>
      <point x="140" y="424" type="line"/>
      <point x="98" y="424" type="line"/>
      <point x="27" y="417" type="line"/>
    </contour>
    <contour>
      <point x="378" y="0" type="line"/>
      <point x="434" y="0" type="line"/>
      <point x="434" y="79" type="line"/>
      <point x="477" y="79" type="line"/>
      <point x="477" y="134" type="line"/>
      <point x="434" y="134" type="line"/>
      <point x="434" y="349" type="line"/>
      <point x="375" y="349" type="line"/>
      <point x="249" y="130" type="line"/>
      <point x="249" y="79" type="line"/>
      <point x="378" y="79" type="line"/>
    </contour>
    <contour>
      <point x="307" y="134" type="line"/>
      <point x="357" y="227" type="line" smooth="yes"/>
      <point x="366" y="243"/>
      <point x="375" y="260"/>
      <point x="380" y="273" type="curve"/>
      <point x="379" y="248"/>
      <point x="378" y="235"/>
      <point x="378" y="209" type="curve" smooth="yes"/>
      <point x="378" y="134" type="line"/>
    </contour>
    <contour>
      <point x="91" y="562" type="curve" smooth="yes"/>
      <point x="91" y="367" type="line"/>
      <point x="148" y="367" type="line"/>
      <point x="148" y="714" type="line"/>
      <point x="93" y="714" type="line"/>
      <point x="5" y="655" type="line"/>
      <point x="34" y="600" type="line"/>
      <point x="58" y="616" type="line" smooth="yes"/>
      <point x="71" y="625"/>
      <point x="83" y="636"/>
      <point x="93" y="648" type="curve"/>
      <point x="92" y="620"/>
      <point x="91" y="596"/>
    </contour>
  </outline>
</glyph>
<glyph name="onehalf.mono" format="2">
  <advance width="500"/>
  <unicode hex="00BD"/>
  <outline>
    <contour>
      <point x="60" y="0" type="line"/>
      <point x="131" y="0" type="line"/>
      <point x="448" y="714" type="line"/>
      <point x="377" y="714" type="line"/>
    </contour>
    <contour>
      <point x="27" y="367" type="line"/>
      <point x="214" y="367" type="line"/>
      <point x="214" y="417" type="line"/>
      <point x="140" y="424" type="line"/>
      <point x="98" y="424" type="line"/>
      <point x="27" y="417" type="line"/>
    </contour>
    <contour>
      <point x="279" y="0" type="line"/>
      <point x="479" y="0" type="line"/>
      <point x="479" y="61" type="line"/>
      <point x="352" y="61" type="line"/>
      <point x="393" y="110" type="line" smooth="yes"/>
      <point x="443" y="169"/>
      <point x="471" y="200"/>
      <point x="471" y="252" type="curve" smooth="yes"/>
      <point x="471" y="316"/>
      <point x="436" y="355"/>
      <point x="375" y="355" type="curve" smooth="yes"/>
      <point x="336" y="355"/>
      <point x="306" y="336"/>
      <point x="281" y="309" type="curve"/>
      <point x="311" y="264" type="line"/>
      <point x="331" y="284"/>
      <point x="349" y="298"/>
      <point x="371" y="298" type="curve" smooth="yes"/>
      <point x="396" y="298"/>
      <point x="412" y="281"/>
      <point x="412" y="248" type="curve" smooth="yes"/>
      <point x="412" y="214"/>
      <point x="399" y="196"/>
      <point x="350" y="138" type="curve" smooth="yes"/>
      <point x="278" y="53" type="line"/>
    </contour>
    <contour>
      <point x="91" y="562" type="curve" smooth="yes"/>
      <point x="91" y="367" type="line"/>
      <point x="148" y="367" type="line"/>
      <point x="148" y="714" type="line"/>
      <point x="93" y="714" type="line"/>
      <point x="5" y="655" type="line"/>
      <point x="34" y="600" type="line"/>
      <point x="58" y="616" type="line" smooth="yes"/>
      <point x="71" y="625"/>
      <point x="83" y="636"/>
      <point x="93" y="648" type="curve"/>
      <point x="92" y="620"/>
      <point x="91" y="596"/>
    </contour>
  </outline>
</glyph>
<glyph name="threequarters.mono" format="2">
  <advance width="500"/>
  <unicode hex="00BE"/>
  <outline>
    <contour>
      <point x="60" y="0" type="line"/>
      <point x="130" y="0" type="line"/>
      <point x="447" y="714" type="line"/>
      <point x="377" y="714" type="line"/>
    </contour>
    <contour>
      <point x="377" y="0" type="line"/>
      <point x="434" y="0" type="line"/>
      <point x="434" y="79" type="line"/>
      <point x="477" y="79" type="line"/>
      <point x="477" y="134" type="line"/>
      <point x="434" y="134" type="line"/>
      <point x="434" y="349" type="line"/>
      <point x="374" y="349" type="line"/>
      <point x="249" y="130" type="line"/>
      <point x="249" y="79" type="line"/>
      <point x="377" y="79" type="line"/>
    </contour>
    <contour>
      <point x="307" y="134" type="line"/>
      <point x="357" y="227" type="line" smooth="yes"/>
      <point x="365" y="243"/>
      <point x="374" y="260"/>
      <point x="379" y="273" type="curve"/>
      <point x="379" y="248"/>
      <point x="377" y="235"/>
      <point x="377" y="209" type="curve" smooth="yes"/>
      <point x="377" y="134" type="line"/>
    </contour>
    <contour>
      <point x="103" y="361" type="curve" smooth="yes"/>
      <point x="182" y="361"/>
      <point x="219" y="406"/>
      <point x="219" y="471" type="curve" smooth="yes"/>
      <point x="219" y="513"/>
      <point x="202" y="538"/>
      <point x="169" y="549" type="curve"/>
      <point x="169" y="552" type="line"/>
      <point x="194" y="560"/>
      <point x="212" y="586"/>
      <point x="212" y="627" type="curve" smooth="yes"/>
      <point x="212" y="684"/>
      <point x="177" y="723"/>
      <point x="114" y="723" type="curve" smooth="yes"/>
      <point x="75" y="723"/>
      <point x="47" y="707"/>
      <point x="19" y="683" type="curve"/>
      <point x="49" y="638" type="line"/>
      <point x="70" y="655"/>
      <point x="90" y="667"/>
      <point x="111" y="667" type="curve" smooth="yes"/>
      <point x="135" y="667"/>
      <point x="151" y="653"/>
      <point x="151" y="622" type="curve" smooth="yes"/>
      <point x="151" y="592"/>
      <point x="134" y="573"/>
      <point x="97" y="573" type="curve" smooth="yes"/>
      <point x="61" y="573" type="line"/>
      <point x="61" y="519" type="line"/>
      <point x="98" y="519" type="line" smooth="yes"/>
      <point x="137" y="519"/>
      <point x="158" y="505"/>
      <point x="158" y="471" type="curve" smooth="yes"/>
      <point x="158" y="438"/>
      <point x="141" y="417"/>
      <point x="104" y="417" type="curve" smooth="yes"/>
      <point x="78" y="417"/>
      <point x="52" y="426"/>
      <point x="25" y="442" type="curve"/>
      <point x="25" y="380" type="line"/>
      <point x="48" y="366"/>
      <point x="74" y="361"/>
    </contour>
  </outline>
</glyph>
<glyph name="Aring.serif" format="2">
  <advance width="568"/>
  <unicode hex="00C5"/>
  <anchor x="284" y="0" name="bottom"/>
  <anchor x="284" y="884" name="top"/>
  <outline>
    <contour>
      <point x="2" y="0" type="line"/>
      <point x="198" y="0" type="line"/>
      <point x="198" y="41" type="line"/>
      <point x="176" y="41" type="line" smooth="yes"/>
      <point x="146" y="41"/>
      <point x="127" y="59"/>
      <point x="127" y="86" type="curve" smooth="yes"/>
      <point x="127" y="104"/>
      <point x="134" y="129"/>
      <point x="138" y="145" type="curve" smooth="yes"/>
      <point x="163" y="240" type="line"/>
      <point x="367" y="240" type="line"/>
      <point x="394" y="138" type="line" smooth="yes"/>
      <point x="399" y="118"/>
      <point x="404" y="93"/>
      <point x="404" y="81" type="curve" smooth="yes"/>
      <point x="404" y="57"/>
      <point x="387" y="41"/>
      <point x="361" y="41" type="curve" smooth="yes"/>
      <point x="339" y="41" type="line"/>
      <point x="339" y="0" type="line"/>
      <point x="568" y="0" type="line"/>
      <point x="568" y="41" type="line"/>
      <point x="556" y="41" type="line" smooth="yes"/>
      <point x="527" y="41"/>
      <point x="512" y="51"/>
      <point x="499" y="92" type="curve" smooth="yes"/>
      <point x="334" y="677" type="line"/>
      <point x="363" y="692"/>
      <point x="381" y="724"/>
      <point x="381" y="775" type="curve" smooth="yes"/>
      <point x="381" y="846"/>
      <point x="339" y="884"/>
      <point x="286" y="884" type="curve" smooth="yes"/>
      <point x="233" y="884"/>
      <point x="191" y="846"/>
      <point x="191" y="775" type="curve" smooth="yes"/>
      <point x="191" y="722"/>
      <point x="210" y="689"/>
      <point x="240" y="677" type="curve"/>
      <point x="76" y="119" type="line" smooth="yes"/>
      <point x="57" y="55"/>
      <point x="44" y="41"/>
      <point x="15" y="41" type="curve" smooth="yes"/>
      <point x="2" y="41" type="line"/>
    </contour>
    <contour>
      <point x="179" y="289" type="line"/>
      <point x="230" y="483" type="line" smooth="yes"/>
      <point x="243" y="532"/>
      <point x="260" y="587"/>
      <point x="267" y="623" type="curve"/>
      <point x="276" y="586"/>
      <point x="290" y="533"/>
      <point x="306" y="472" type="curve" smooth="yes"/>
      <point x="352" y="289" type="line"/>
    </contour>
    <contour>
      <point x="286" y="710" type="curve" smooth="yes"/>
      <point x="254" y="710"/>
      <point x="232" y="728"/>
      <point x="232" y="775" type="curve" smooth="yes"/>
      <point x="232" y="823"/>
      <point x="256" y="840"/>
      <point x="286" y="840" type="curve" smooth="yes"/>
      <point x="315" y="840"/>
      <point x="340" y="823"/>
      <point x="340" y="775" type="curve" smooth="yes"/>
      <point x="340" y="727"/>
      <point x="315" y="710"/>
    </contour>
  </outline>
</glyph>
<glyph name="AE.serif" format="2">
  <advance width="760"/>
  <unicode hex="00C6"/>
  <anchor x="380" y="0" name="bottom"/>
  <anchor x="380" y="714" name="top"/>
  <outline>
    <contour>
      <point x="-1" y="0" type="line"/>
      <point x="193" y="0" type="line"/>
      <point x="193" y="41" type="line"/>
      <point x="175" y="41" type="line" smooth="yes"/>
      <point x="145" y="41"/>
      <point x="128" y="53"/>
      <point x="128" y="80" type="curve" smooth="yes"/>
      <point x="128" y="92"/>
      <point x="133" y="111"/>
      <point x="141" y="133" type="curve" smooth="yes"/>
      <point x="182" y="240" type="line"/>
      <point x="364" y="240" type="line"/>
      <point x="364" y="110" type="line" smooth="yes"/>
      <point x="364" y="50"/>
      <point x="337" y="41"/>
      <point x="302" y="41" type="curve" smooth="yes"/>
      <point x="289" y="41" type="line"/>
      <point x="289" y="0" type="line"/>
      <point x="724" y="0" type="line"/>
      <point x="729" y="174" type="line"/>
      <point x="684" y="174" type="line"/>
      <point x="679" y="132" type="line" smooth="yes"/>
      <point x="673" y="88"/>
      <point x="652" y="49"/>
      <point x="601" y="49" type="curve" smooth="yes"/>
      <point x="455" y="49" type="line"/>
      <point x="455" y="350" type="line"/>
      <point x="646" y="350" type="line"/>
      <point x="646" y="398" type="line"/>
      <point x="455" y="398" type="line"/>
      <point x="455" y="665" type="line"/>
      <point x="582" y="665" type="line" smooth="yes"/>
      <point x="632" y="665"/>
      <point x="650" y="626"/>
      <point x="653" y="582" type="curve" smooth="yes"/>
      <point x="657" y="540" type="line"/>
      <point x="702" y="540" type="line"/>
      <point x="699" y="714" type="line"/>
      <point x="248" y="714" type="line"/>
      <point x="248" y="673" type="line"/>
      <point x="306" y="668" type="line"/>
      <point x="81" y="119" type="line" smooth="yes"/>
      <point x="59" y="65"/>
      <point x="39" y="41"/>
      <point x="11" y="41" type="curve" smooth="yes"/>
      <point x="-1" y="41" type="line"/>
    </contour>
    <contour>
      <point x="204" y="289" type="line"/>
      <point x="355" y="665" type="line"/>
      <point x="364" y="665" type="line"/>
      <point x="364" y="289" type="line"/>
    </contour>
  </outline>
</glyph>
<glyph name="Eth.serif" format="2">
  <advance width="584"/>
  <unicode hex="00D0"/>
  <anchor x="292" y="0" name="bottom"/>
  <anchor x="292" y="714" name="top"/>
  <outline>
    <contour>
      <point x="28" y="0" type="line"/>
      <point x="275" y="0" type="line" smooth="yes"/>
      <point x="451" y="0"/>
      <point x="539" y="137"/>
      <point x="539" y="356" type="curve" smooth="yes"/>
      <point x="539" y="583"/>
      <point x="442" y="714"/>
      <point x="275" y="714" type="curve" smooth="yes"/>
      <point x="28" y="714" type="line"/>
      <point x="28" y="673" type="line"/>
      <point x="44" y="673" type="line" smooth="yes"/>
      <point x="79" y="673"/>
      <point x="104" y="662"/>
      <point x="104" y="605" type="curve"/>
      <point x="104" y="397" type="line"/>
      <point x="31" y="397" type="line"/>
      <point x="31" y="350" type="line"/>
      <point x="104" y="350" type="line"/>
      <point x="104" y="112" type="line" smooth="yes"/>
      <point x="104" y="54"/>
      <point x="81" y="41"/>
      <point x="47" y="41" type="curve" smooth="yes"/>
      <point x="28" y="41" type="line"/>
    </contour>
    <contour>
      <point x="258" y="50" type="curve" smooth="yes"/>
      <point x="195" y="50" type="line"/>
      <point x="195" y="350" type="line"/>
      <point x="319" y="350" type="line"/>
      <point x="319" y="397" type="line"/>
      <point x="195" y="397" type="line"/>
      <point x="195" y="665" type="line"/>
      <point x="258" y="665" type="line" smooth="yes"/>
      <point x="378" y="665"/>
      <point x="439" y="556"/>
      <point x="439" y="356" type="curve" smooth="yes"/>
      <point x="439" y="158"/>
      <point x="378" y="50"/>
    </contour>
  </outline>
</glyph>
<glyph name="Oslash.mono" format="2">
  <advance width="500"/>
  <unicode hex="00D8"/>
  <anchor x="250" y="0" name="bottom"/>
  <anchor x="250" y="714" name="top"/>
  <outline>
    <contour>
      <point x="46" y="-40" type="line"/>
      <point x="500" y="717" type="line"/>
      <point x="444" y="750" type="line"/>
      <point x="-10" y="-8" type="line"/>
    </contour>
    <component base="O"/>
  </outline>
</glyph>
<glyph name="Oslash.serif" format="2">
  <advance width="596"/>
  <unicode hex="00D8"/>
  <anchor x="298" y="0" name="bottom"/>
  <anchor x="298" y="714" name="top"/>
  <outline>
    <contour>
      <point x="142" y="51" type="curve"/>
      <point x="102" y="-40" type="line"/>
      <point x="151" y="-40" type="line"/>
      <point x="178" y="23" type="line"/>
      <point x="212" y="1"/>
      <point x="251" y="-10"/>
      <point x="298" y="-10" type="curve" smooth="yes"/>
      <point x="461" y="-10"/>
      <point x="552" y="137"/>
      <point x="552" y="358" type="curve" smooth="yes"/>
      <point x="552" y="493"/>
      <point x="519" y="599"/>
      <point x="456" y="662" type="curve"/>
      <point x="496" y="755" type="line"/>
      <point x="447" y="755" type="line"/>
      <point x="419" y="691" type="line"/>
      <point x="385" y="713"/>
      <point x="346" y="725"/>
      <point x="299" y="725" type="curve" smooth="yes"/>
      <point x="127" y="725"/>
      <point x="44" y="580"/>
      <point x="44" y="359" type="curve" smooth="yes"/>
      <point x="44" y="222"/>
      <point x="77" y="114"/>
    </contour>
    <contour>
      <point x="298" y="43" type="curve" smooth="yes"/>
      <point x="259" y="43"/>
      <point x="229" y="58"/>
      <point x="206" y="86" type="curve"/>
      <point x="420" y="580" type="line"/>
      <point x="442" y="527"/>
      <point x="452" y="452"/>
      <point x="452" y="358" type="curve" smooth="yes"/>
      <point x="452" y="160"/>
      <point x="412" y="43"/>
    </contour>
    <contour>
      <point x="393" y="630" type="curve"/>
      <point x="179" y="136" type="line"/>
      <point x="155" y="188"/>
      <point x="144" y="264"/>
      <point x="144" y="358" type="curve" smooth="yes"/>
      <point x="144" y="557"/>
      <point x="190" y="672"/>
      <point x="299" y="672" type="curve" smooth="yes"/>
      <point x="339" y="672"/>
      <point x="369" y="658"/>
    </contour>
  </outline>
</glyph>
<glyph name="Thorn.mono" format="2">
  <advance width="500"/>
  <unicode hex="00DE"/>
  <anchor x="250" y="0" name="bottom"/>
  <anchor x="250" y="714" name="top"/>
  <outline>
    <contour>
      <point x="65" y="0" type="line"/>
      <point x="147" y="0" type="line"/>
      <point x="147" y="158" type="line"/>
      <point x="239" y="158" type="line" smooth="yes"/>
      <point x="395" y="158"/>
      <point x="455" y="254"/>
      <point x="455" y="385" type="curve" smooth="yes"/>
      <point x="455" y="518"/>
      <point x="390" y="594"/>
      <point x="249" y="594" type="curve" smooth="yes"/>
      <point x="147" y="594" type="line"/>
      <point x="147" y="714" type="line"/>
      <point x="65" y="714" type="line"/>
    </contour>
    <contour>
      <point x="231" y="235" type="curve" smooth="yes"/>
      <point x="147" y="235" type="line"/>
      <point x="147" y="517" type="line"/>
      <point x="246" y="517" type="line" smooth="yes"/>
      <point x="331" y="517"/>
      <point x="369" y="473"/>
      <point x="369" y="380" type="curve" smooth="yes"/>
      <point x="369" y="274"/>
      <point x="325" y="235"/>
    </contour>
  </outline>
</glyph>
<glyph name="Thorn.serif" format="2">
  <advance width="486"/>
  <unicode hex="00DE"/>
  <anchor x="243" y="0" name="bottom"/>
  <anchor x="243" y="714" name="top"/>
  <outline>
    <contour>
      <point x="28" y="0" type="line"/>
      <point x="278" y="0" type="line"/>
      <point x="278" y="41" type="line"/>
      <point x="256" y="41" type="line" smooth="yes"/>
      <point x="222" y="41"/>
      <point x="196" y="53"/>
      <point x="196" y="114" type="curve" smooth="yes"/>
      <point x="196" y="156" type="line"/>
      <point x="239" y="156" type="line" smooth="yes"/>
      <point x="398" y="156"/>
      <point x="457" y="252"/>
      <point x="457" y="371" type="curve" smooth="yes"/>
      <point x="457" y="501"/>
      <point x="392" y="569"/>
      <point x="255" y="569" type="curve" smooth="yes"/>
      <point x="196" y="569" type="line"/>
      <point x="196" y="600" type="line" smooth="yes"/>
      <point x="196" y="662"/>
      <point x="221" y="673"/>
      <point x="256" y="673" type="curve" smooth="yes"/>
      <point x="278" y="673" type="line"/>
      <point x="278" y="714" type="line"/>
      <point x="28" y="714" type="line"/>
      <point x="28" y="673" type="line"/>
      <point x="47" y="673" type="line" smooth="yes"/>
      <point x="78" y="673"/>
      <point x="103" y="662"/>
      <point x="103" y="602" type="curve" smooth="yes"/>
      <point x="103" y="110" type="line" smooth="yes"/>
      <point x="103" y="52"/>
      <point x="78" y="41"/>
      <point x="47" y="41" type="curve" smooth="yes"/>
      <point x="28" y="41" type="line"/>
    </contour>
    <contour>
      <point x="234" y="201" type="curve" smooth="yes"/>
      <point x="196" y="201" type="line"/>
      <point x="196" y="522" type="line"/>
      <point x="242" y="522" type="line" smooth="yes"/>
      <point x="327" y="522"/>
      <point x="358" y="479"/>
      <point x="358" y="367" type="curve" smooth="yes"/>
      <point x="358" y="240"/>
      <point x="322" y="201"/>
    </contour>
  </outline>
</glyph>
<glyph name="germandbls.serif" format="2">
  <advance width="525"/>
  <unicode hex="00DF"/>
  <anchor x="263" y="0" name="bottom"/>
  <anchor x="263" y="762" name="top"/>
  <outline>
    <contour>
      <point x="351" y="-10" type="curve" smooth="yes"/>
      <point x="437" y="-10"/>
      <point x="490" y="44"/>
      <point x="490" y="143" type="curve" smooth="yes"/>
      <point x="490" y="213"/>
      <point x="456" y="263"/>
      <point x="389" y="307" type="curve" smooth="yes"/>
      <point x="330" y="346"/>
      <point x="312" y="370"/>
      <point x="312" y="412" type="curve" smooth="yes"/>
      <point x="312" y="461"/>
      <point x="337" y="495"/>
      <point x="403" y="495" type="curve" smooth="yes"/>
      <point x="450" y="495" type="line"/>
      <point x="449" y="665"/>
      <point x="407" y="762"/>
      <point x="270" y="762" type="curve" smooth="yes"/>
      <point x="169" y="762"/>
      <point x="90" y="713"/>
      <point x="90" y="569" type="curve" smooth="yes"/>
      <point x="90" y="536" type="line"/>
      <point x="20" y="536" type="line"/>
      <point x="20" y="487" type="line"/>
      <point x="90" y="487" type="line"/>
      <point x="90" y="113" type="line" smooth="yes"/>
      <point x="90" y="50"/>
      <point x="70" y="41"/>
      <point x="36" y="41" type="curve" smooth="yes"/>
      <point x="14" y="41" type="line"/>
      <point x="14" y="0" type="line"/>
      <point x="176" y="0" type="line"/>
      <point x="176" y="581" type="line" smooth="yes"/>
      <point x="176" y="663"/>
      <point x="207" y="719"/>
      <point x="269" y="719" type="curve" smooth="yes"/>
      <point x="340" y="719"/>
      <point x="366" y="656"/>
      <point x="366" y="536" type="curve"/>
      <point x="283" y="534"/>
      <point x="236" y="482"/>
      <point x="236" y="399" type="curve" smooth="yes"/>
      <point x="236" y="320"/>
      <point x="273" y="286"/>
      <point x="336" y="246" type="curve" smooth="yes"/>
      <point x="395" y="209"/>
      <point x="413" y="176"/>
      <point x="413" y="127" type="curve" smooth="yes"/>
      <point x="413" y="67"/>
      <point x="390" y="33"/>
      <point x="353" y="33" type="curve" smooth="yes"/>
      <point x="296" y="33"/>
      <point x="276" y="89"/>
      <point x="271" y="164" type="curve"/>
      <point x="247" y="164"/>
      <point x="222" y="152"/>
      <point x="222" y="103" type="curve" smooth="yes"/>
      <point x="222" y="35"/>
      <point x="275" y="-10"/>
    </contour>
  </outline>
</glyph>
<glyph name="ae.serif" format="2">
  <advance width="671"/>
  <unicode hex="00E6"/>
  <anchor x="336" y="0" name="bottom"/>
  <anchor x="336" y="536" name="top"/>
  <outline>
    <contour>
      <point x="165" y="-10" type="curve" smooth="yes"/>
      <point x="244" y="-10"/>
      <point x="293" y="57"/>
      <point x="313" y="116" type="curve"/>
      <point x="339" y="34"/>
      <point x="394" y="-10"/>
      <point x="472" y="-10" type="curve" smooth="yes"/>
      <point x="571" y="-10"/>
      <point x="618" y="48"/>
      <point x="618" y="91" type="curve" smooth="yes"/>
      <point x="618" y="107"/>
      <point x="609" y="118"/>
      <point x="598" y="124" type="curve"/>
      <point x="577" y="77"/>
      <point x="540" y="45"/>
      <point x="489" y="45" type="curve" smooth="yes"/>
      <point x="412" y="45"/>
      <point x="370" y="116"/>
      <point x="369" y="264" type="curve"/>
      <point x="633" y="264" type="line"/>
      <point x="633" y="307" type="line" smooth="yes"/>
      <point x="633" y="459"/>
      <point x="569" y="546"/>
      <point x="469" y="546" type="curve" smooth="yes"/>
      <point x="410" y="546"/>
      <point x="369" y="518"/>
      <point x="341" y="471" type="curve"/>
      <point x="316" y="522"/>
      <point x="276" y="546"/>
      <point x="216" y="546" type="curve" smooth="yes"/>
      <point x="137" y="546"/>
      <point x="71" y="516"/>
      <point x="71" y="450" type="curve" smooth="yes"/>
      <point x="71" y="408"/>
      <point x="93" y="388"/>
      <point x="145" y="388" type="curve"/>
      <point x="145" y="451"/>
      <point x="156" y="497"/>
      <point x="214" y="497" type="curve" smooth="yes"/>
      <point x="273" y="497"/>
      <point x="283" y="446"/>
      <point x="283" y="373" type="curve" smooth="yes"/>
      <point x="283" y="312" type="line"/>
      <point x="218" y="309" type="line" smooth="yes"/>
      <point x="97" y="304"/>
      <point x="38" y="256"/>
      <point x="38" y="150" type="curve" smooth="yes"/>
      <point x="38" y="40"/>
      <point x="92" y="-10"/>
    </contour>
    <contour>
      <point x="188" y="42" type="curve" smooth="yes"/>
      <point x="149" y="42"/>
      <point x="128" y="77"/>
      <point x="128" y="144" type="curve" smooth="yes"/>
      <point x="128" y="223"/>
      <point x="155" y="265"/>
      <point x="238" y="270" type="curve" smooth="yes"/>
      <point x="284" y="273" type="line"/>
      <point x="284" y="192" type="line" smooth="yes"/>
      <point x="284" y="101"/>
      <point x="243" y="42"/>
    </contour>
    <contour>
      <point x="546" y="313" type="curve"/>
      <point x="371" y="313" type="line"/>
      <point x="373" y="435"/>
      <point x="407" y="496"/>
      <point x="464" y="496" type="curve" smooth="yes"/>
      <point x="524" y="496"/>
      <point x="546" y="422"/>
    </contour>
  </outline>
</glyph>
<glyph name="eth.serif" format="2">
  <advance width="464"/>
  <unicode hex="00F0"/>
  <anchor x="232" y="0" name="bottom"/>
  <anchor x="232" y="762" name="top"/>
  <outline>
    <contour>
      <point x="231" y="-10" type="curve" smooth="yes"/>
      <point x="358" y="-10"/>
      <point x="422" y="83"/>
      <point x="422" y="282" type="curve" smooth="yes"/>
      <point x="422" y="449"/>
      <point x="371" y="577"/>
      <point x="296" y="655" type="curve"/>
      <point x="360" y="706" type="line"/>
      <point x="360" y="762" type="line"/>
      <point x="258" y="686" type="line"/>
      <point x="211" y="722"/>
      <point x="166" y="743"/>
      <point x="118" y="761" type="curve"/>
      <point x="118" y="708" type="line"/>
      <point x="146" y="695"/>
      <point x="180" y="675"/>
      <point x="205" y="652" type="curve"/>
      <point x="140" y="604" type="line"/>
      <point x="140" y="549" type="line"/>
      <point x="239" y="620" type="line"/>
      <point x="277" y="580"/>
      <point x="302" y="526"/>
      <point x="319" y="462" type="curve"/>
      <point x="296" y="487"/>
      <point x="259" y="505"/>
      <point x="221" y="505" type="curve" smooth="yes"/>
      <point x="106" y="505"/>
      <point x="42" y="421"/>
      <point x="42" y="248" type="curve" smooth="yes"/>
      <point x="42" y="86"/>
      <point x="107" y="-10"/>
    </contour>
    <contour>
      <point x="233" y="41" type="curve" smooth="yes"/>
      <point x="161" y="41"/>
      <point x="131" y="112"/>
      <point x="131" y="249" type="curve" smooth="yes"/>
      <point x="131" y="384"/>
      <point x="157" y="453"/>
      <point x="232" y="453" type="curve" smooth="yes"/>
      <point x="307" y="453"/>
      <point x="334" y="385"/>
      <point x="334" y="249" type="curve" smooth="yes"/>
      <point x="334" y="112"/>
      <point x="303" y="41"/>
    </contour>
  </outline>
</glyph>
<glyph name="oslash.mono" format="2">
  <advance width="500"/>
  <unicode hex="00F8"/>
  <anchor x="250" y="0" name="bottom"/>
  <anchor x="250" y="536" name="top"/>
  <outline>
    <contour>
      <point x="111" y="-50" type="line"/>
      <point x="467" y="545" type="line"/>
      <point x="413" y="576" type="line"/>
      <point x="58" y="-18" type="line"/>
    </contour>
    <component base="o"/>
  </outline>
</glyph>
<glyph name="oslash.serif" format="2">
  <advance width="464"/>
  <unicode hex="00F8"/>
  <anchor x="232" y="0" name="bottom"/>
  <anchor x="232" y="536" name="top"/>
  <outline>
    <contour>
      <point x="102" y="50" type="curve"/>
      <point x="60" y="-40" type="line"/>
      <point x="109" y="-40" type="line"/>
      <point x="137" y="20" type="line"/>
      <point x="163" y="1"/>
      <point x="194" y="-10"/>
      <point x="231" y="-10" type="curve" smooth="yes"/>
      <point x="356" y="-10"/>
      <point x="422" y="81"/>
      <point x="422" y="269" type="curve" smooth="yes"/>
      <point x="422" y="366"/>
      <point x="401" y="438"/>
      <point x="365" y="482" type="curve"/>
      <point x="409" y="576" type="line"/>
      <point x="360" y="576" type="line"/>
      <point x="331" y="513" type="line"/>
      <point x="304" y="535"/>
      <point x="271" y="546"/>
      <point x="234" y="546" type="curve" smooth="yes"/>
      <point x="107" y="546"/>
      <point x="42" y="456"/>
      <point x="42" y="269" type="curve" smooth="yes"/>
      <point x="42" y="167"/>
      <point x="63" y="96"/>
    </contour>
    <contour>
      <point x="233" y="41" type="curve" smooth="yes"/>
      <point x="202" y="41"/>
      <point x="181" y="52"/>
      <point x="166" y="73" type="curve"/>
      <point x="320" y="411" type="line"/>
      <point x="328" y="375"/>
      <point x="334" y="328"/>
      <point x="334" y="268" type="curve" smooth="yes"/>
      <point x="334" y="119"/>
      <point x="307" y="41"/>
    </contour>
    <contour>
      <point x="300" y="458" type="curve"/>
      <point x="146" y="118" type="line"/>
      <point x="136" y="157"/>
      <point x="130" y="206"/>
      <point x="130" y="269" type="curve" smooth="yes"/>
      <point x="130" y="418"/>
      <point x="158" y="494"/>
      <point x="232" y="494" type="curve" smooth="yes"/>
      <point x="262" y="494"/>
      <point x="284" y="483"/>
    </contour>
  </outline>
</glyph>
<glyph name="thorn.serif" format="2">
  <advance width="492"/>
  <unicode hex="00FE"/>
  <anchor x="246" y="-240" name="bottom"/>
  <anchor x="246" y="760" name="top"/>
  <outline>
    <contour>
      <point x="13" y="-240" type="line"/>
      <point x="245" y="-240" type="line"/>
      <point x="245" y="-199" type="line"/>
      <point x="232" y="-199" type="line" smooth="yes"/>
      <point x="194" y="-199"/>
      <point x="170" y="-191"/>
      <point x="170" y="-131" type="curve" smooth="yes"/>
      <point x="170" y="-33" type="line" smooth="yes"/>
      <point x="170" y="23"/>
      <point x="168" y="75"/>
      <point x="167" y="84" type="curve"/>
      <point x="170" y="84" type="line"/>
      <point x="192" y="26"/>
      <point x="228" y="-11"/>
      <point x="289" y="-11" type="curve" smooth="yes"/>
      <point x="393" y="-11"/>
      <point x="450" y="76"/>
      <point x="450" y="269" type="curve" smooth="yes"/>
      <point x="450" y="461"/>
      <point x="393" y="546"/>
      <point x="289" y="546" type="curve" smooth="yes"/>
      <point x="227" y="546"/>
      <point x="190" y="505"/>
      <point x="167" y="441" type="curve"/>
      <point x="165" y="441" type="line"/>
      <point x="167" y="448"/>
      <point x="170" y="526"/>
      <point x="170" y="570" type="curve" smooth="yes"/>
      <point x="170" y="760" type="line"/>
      <point x="18" y="760" type="line"/>
      <point x="18" y="719" type="line"/>
      <point x="25" y="719" type="line" smooth="yes"/>
      <point x="57" y="719"/>
      <point x="82" y="711"/>
      <point x="82" y="650" type="curve" smooth="yes"/>
      <point x="82" y="-126" type="line" smooth="yes"/>
      <point x="82" y="-189"/>
      <point x="58" y="-199"/>
      <point x="20" y="-199" type="curve" smooth="yes"/>
      <point x="13" y="-199" type="line"/>
    </contour>
    <contour>
      <point x="270" y="44" type="curve" smooth="yes"/>
      <point x="193" y="44"/>
      <point x="170" y="128"/>
      <point x="170" y="272" type="curve" smooth="yes"/>
      <point x="170" y="409"/>
      <point x="193" y="492"/>
      <point x="270" y="492" type="curve" smooth="yes"/>
      <point x="335" y="492"/>
      <point x="362" y="416"/>
      <point x="362" y="273" type="curve" smooth="yes"/>
      <point x="362" y="128"/>
      <point x="335" y="44"/>
    </contour>
  </outline>
</glyph>
<glyph name="dcroat.serif" format="2">
  <advance width="493"/>
  <unicode hex="0111"/>
  <anchor x="247" y="0" name="bottom"/>
  <anchor x="247" y="760" name="top"/>
  <outline>
    <contour>
      <point x="203" y="-10" type="curve" smooth="yes"/>
      <point x="264" y="-10"/>
      <point x="300" y="29"/>
      <point x="325" y="92" type="curve"/>
      <point x="327" y="92" type="line"/>
      <point x="337" y="0" type="line"/>
      <point x="479" y="0" type="line"/>
      <point x="479" y="41" type="line"/>
      <point x="471" y="41" type="line" smooth="yes"/>
      <point x="434" y="41"/>
      <point x="409" y="52"/>
      <point x="409" y="111" type="curve" smooth="yes"/>
      <point x="409" y="597" type="line"/>
      <point x="479" y="597" type="line"/>
      <point x="479" y="637" type="line"/>
      <point x="409" y="637" type="line"/>
      <point x="409" y="760" type="line"/>
      <point x="252" y="760" type="line"/>
      <point x="252" y="719" type="line"/>
      <point x="258" y="719" type="line" smooth="yes"/>
      <point x="293" y="719"/>
      <point x="323" y="708"/>
      <point x="323" y="650" type="curve" smooth="yes"/>
      <point x="323" y="637" type="line"/>
      <point x="191" y="637" type="line"/>
      <point x="191" y="597" type="line"/>
      <point x="323" y="597" type="line"/>
      <point x="323" y="542" type="line" smooth="yes"/>
      <point x="323" y="512"/>
      <point x="325" y="445"/>
      <point x="325" y="439" type="curve"/>
      <point x="321" y="439" type="line"/>
      <point x="298" y="491"/>
      <point x="264" y="526"/>
      <point x="203" y="526" type="curve" smooth="yes"/>
      <point x="98" y="526"/>
      <point x="41" y="442"/>
      <point x="41" y="257" type="curve" smooth="yes"/>
      <point x="41" y="74"/>
      <point x="98" y="-10"/>
    </contour>
    <contour>
      <point x="222" y="45" type="curve" smooth="yes"/>
      <point x="156" y="45"/>
      <point x="130" y="116"/>
      <point x="130" y="256" type="curve" smooth="yes"/>
      <point x="130" y="398"/>
      <point x="156" y="474"/>
      <point x="221" y="474" type="curve" smooth="yes"/>
      <point x="298" y="474"/>
      <point x="323" y="390"/>
      <point x="323" y="257" type="curve" smooth="yes"/>
      <point x="323" y="131"/>
      <point x="298" y="45"/>
    </contour>
  </outline>
</glyph>
<glyph name="eogonek.display" format="2">
  <advance width="407"/>
  <unicode hex="0119"/>
  <anchor x="224" y="-223" name="bottom"/>
  <anchor x="207" y="537" name="top"/>
  <outline>
    <contour>
      <point x="267" y="-117" type="curve" smooth="yes"/>
      <point x="267" y="-78"/>
      <point x="296" y="-27"/>
      <point x="348" y="24" type="curve"/>
      <point x="273" y="1" type="line"/>
      <point x="231" y="-31"/>
      <point x="200" y="-79"/>
      <point x="200" y="-129" type="curve" smooth="yes"/>
      <point x="200" y="-190"/>
      <point x="230" y="-223"/>
      <point x="294" y="-223" type="curve" smooth="yes"/>
      <point x="312" y="-223"/>
      <point x="331" y="-220"/>
      <point x="345" y="-215" type="curve"/>
      <point x="345" y="-158" type="line"/>
      <point x="337" y="-161"/>
      <point x="324" y="-164"/>
      <point x="311" y="-164" type="curve" smooth="yes"/>
      <point x="283" y="-164"/>
      <point x="267" y="-148"/>
    </contour>
    <component base="e"/>
  </outline>
</glyph>
<glyph name="eogonek.serif" format="2">
  <advance width="431"/>
  <unicode hex="0119"/>
  <anchor x="216" y="-232" name="bottom"/>
  <anchor x="216" y="536" name="top"/>
  <outline>
    <contour>
      <point x="298" y="-232" type="curve" smooth="yes"/>
      <point x="316" y="-232"/>
      <point x="342" y="-228"/>
      <point x="357" y="-219" type="curve"/>
      <point x="357" y="-173" type="line"/>
      <point x="339" y="-182"/>
      <point x="324" y="-185"/>
      <point x="308" y="-185" type="curve" smooth="yes"/>
      <point x="276" y="-185"/>
      <point x="256" y="-166"/>
      <point x="256" y="-123" type="curve" smooth="yes"/>
      <point x="256" y="-66"/>
      <point x="276" y="-26"/>
      <point x="319" y="10" type="curve"/>
      <point x="360" y="31"/>
      <point x="378" y="64"/>
      <point x="378" y="91" type="curve" smooth="yes"/>
      <point x="378" y="109"/>
      <point x="369" y="119"/>
      <point x="358" y="124" type="curve"/>
      <point x="339" y="81"/>
      <point x="304" y="45"/>
      <point x="249" y="45" type="curve" smooth="yes"/>
      <point x="173" y="45"/>
      <point x="131" y="114"/>
      <point x="130" y="264" type="curve"/>
      <point x="393" y="264" type="line"/>
      <point x="393" y="304" type="line" smooth="yes"/>
      <point x="393" y="462"/>
      <point x="329" y="546"/>
      <point x="223" y="546" type="curve" smooth="yes"/>
      <point x="108" y="546"/>
      <point x="42" y="452"/>
      <point x="42" y="264" type="curve" smooth="yes"/>
      <point x="42" y="90"/>
      <point x="109" y="-10"/>
      <point x="231" y="-10" type="curve" smooth="yes"/>
      <point x="241" y="-10"/>
      <point x="250" y="-9"/>
      <point x="259" y="-8" type="curve"/>
      <point x="225" y="-32"/>
      <point x="195" y="-77"/>
      <point x="195" y="-130" type="curve" smooth="yes"/>
      <point x="195" y="-202"/>
      <point x="234" y="-232"/>
    </contour>
    <contour>
      <point x="307" y="313" type="curve"/>
      <point x="131" y="313" type="line"/>
      <point x="134" y="430"/>
      <point x="165" y="496"/>
      <point x="225" y="496" type="curve" smooth="yes"/>
      <point x="284" y="496"/>
      <point x="306" y="422"/>
    </contour>
  </outline>
</glyph>
<glyph name="Hbar.mono" format="2">
  <advance width="500"/>
  <unicode hex="0126"/>
  <anchor x="250" y="0" name="bottom"/>
  <anchor x="250" y="357" name="center"/>
  <anchor x="250" y="714" name="top"/>
  <anchor x="20" y="714" name="topleft"/>
  <outline>
    <contour>
      <point x="0" y="527" type="line"/>
      <point x="500" y="527" type="line"/>
      <point x="500" y="595" type="line"/>
      <point x="0" y="595" type="line"/>
    </contour>
    <contour>
      <point x="45" y="0" type="line"/>
      <point x="129" y="0" type="line"/>
      <point x="129" y="330" type="line"/>
      <point x="371" y="330" type="line"/>
      <point x="371" y="0" type="line"/>
      <point x="455" y="0" type="line"/>
      <point x="455" y="714" type="line"/>
      <point x="371" y="714" type="line"/>
      <point x="371" y="408" type="line"/>
      <point x="129" y="408" type="line"/>
      <point x="129" y="714" type="line"/>
      <point x="45" y="714" type="line"/>
    </contour>
  </outline>
</glyph>
<glyph name="hbar.serif" format="2">
  <advance width="509"/>
  <unicode hex="0127"/>
  <anchor x="254" y="0" name="bottom"/>
  <anchor x="254" y="760" name="top"/>
  <outline>
    <contour>
      <point x="14" y="0" type="line"/>
      <point x="235" y="0" type="line"/>
      <point x="235" y="41" type="line"/>
      <point x="233" y="41" type="line"/>
      <point x="198" y="41"/>
      <point x="170" y="48"/>
      <point x="170" y="108" type="curve" smooth="yes"/>
      <point x="170" y="302" type="line" smooth="yes"/>
      <point x="170" y="401"/>
      <point x="196" y="464"/>
      <point x="259" y="464" type="curve" smooth="yes"/>
      <point x="318" y="464"/>
      <point x="339" y="414"/>
      <point x="339" y="327" type="curve" smooth="yes"/>
      <point x="339" y="0" type="line"/>
      <point x="487" y="0" type="line"/>
      <point x="487" y="41" type="line"/>
      <point x="485" y="41" type="line" smooth="yes"/>
      <point x="448" y="41"/>
      <point x="426" y="50"/>
      <point x="426" y="113" type="curve" smooth="yes"/>
      <point x="426" y="330" type="line" smooth="yes"/>
      <point x="426" y="467"/>
      <point x="380" y="526"/>
      <point x="293" y="526" type="curve" smooth="yes"/>
      <point x="231" y="526"/>
      <point x="190" y="482"/>
      <point x="172" y="434" type="curve"/>
      <point x="169" y="434" type="line"/>
      <point x="169" y="442"/>
      <point x="170" y="475"/>
      <point x="170" y="503" type="curve" smooth="yes"/>
      <point x="170" y="597" type="line"/>
      <point x="302" y="597" type="line"/>
      <point x="302" y="637" type="line"/>
      <point x="170" y="637" type="line"/>
      <point x="170" y="760" type="line"/>
      <point x="14" y="760" type="line"/>
      <point x="14" y="719" type="line"/>
      <point x="21" y="719" type="line" smooth="yes"/>
      <point x="55" y="719"/>
      <point x="83" y="710"/>
      <point x="83" y="651" type="curve" smooth="yes"/>
      <point x="83" y="637" type="line"/>
      <point x="12" y="637" type="line"/>
      <point x="12" y="597" type="line"/>
      <point x="83" y="597" type="line"/>
      <point x="83" y="113" type="line" smooth="yes"/>
      <point x="83" y="50"/>
      <point x="55" y="41"/>
      <point x="21" y="41" type="curve" smooth="yes"/>
      <point x="14" y="41" type="line"/>
    </contour>
  </outline>
</glyph>
<glyph name="idotless.mono" format="2">
  <advance width="500"/>
  <unicode hex="0131"/>
  <anchor x="250" y="0" name="bottom"/>
  <anchor x="256" y="287" name="center"/>
  <anchor x="250" y="536" name="top"/>
  <outline>
    <contour>
      <point x="75" y="0" type="line"/>
      <point x="425" y="0" type="line"/>
      <point x="425" y="59" type="line"/>
      <point x="298" y="69" type="line"/>
      <point x="298" y="536" type="line"/>
      <point x="80" y="536" type="line"/>
      <point x="80" y="477" type="line"/>
      <point x="216" y="463" type="line"/>
      <point x="216" y="69" type="line"/>
      <point x="75" y="59" type="line"/>
    </contour>
  </outline>
</glyph>
<glyph name="kgreenlandic.serif" format="2">
  <advance width="474"/>
  <unicode hex="0138"/>
  <anchor x="237" y="0" name="bottom"/>
  <anchor x="237" y="536" name="top"/>
  <outline>
    <contour>
      <point x="14" y="0" type="line"/>
      <point x="237" y="0" type="line"/>
      <point x="237" y="41" type="line"/>
      <point x="233" y="41" type="line" smooth="yes"/>
      <point x="202" y="41"/>
      <point x="171" y="49"/>
      <point x="171" y="108" type="curve" smooth="yes"/>
      <point x="171" y="192" type="line"/>
      <point x="219" y="261" type="line"/>
      <point x="299" y="98" type="line" smooth="yes"/>
      <point x="342" y="8"/>
      <point x="365" y="0"/>
      <point x="463" y="0" type="curve" smooth="yes"/>
      <point x="475" y="0" type="line"/>
      <point x="475" y="41" type="line"/>
      <point x="472" y="41" type="line" smooth="yes"/>
      <point x="439" y="41"/>
      <point x="413" y="71"/>
      <point x="386" y="124" type="curve" smooth="yes"/>
      <point x="281" y="325" type="line"/>
      <point x="335" y="401" type="line" smooth="yes"/>
      <point x="376" y="460"/>
      <point x="408" y="495"/>
      <point x="446" y="495" type="curve"/>
      <point x="446" y="536" type="line"/>
      <point x="269" y="536" type="line"/>
      <point x="269" y="495" type="line"/>
      <point x="295" y="495"/>
      <point x="308" y="488"/>
      <point x="308" y="471" type="curve" smooth="yes"/>
      <point x="308" y="456"/>
      <point x="300" y="432"/>
      <point x="266" y="385" type="curve" smooth="yes"/>
      <point x="167" y="245" type="line"/>
      <point x="167" y="245"/>
      <point x="171" y="338"/>
      <point x="171" y="374" type="curve" smooth="yes"/>
      <point x="171" y="536" type="line"/>
      <point x="14" y="536" type="line"/>
      <point x="14" y="495" type="line"/>
      <point x="22" y="495" type="line" smooth="yes"/>
      <point x="53" y="495"/>
      <point x="84" y="486"/>
      <point x="84" y="427" type="curve" smooth="yes"/>
      <point x="84" y="113" type="line" smooth="yes"/>
      <point x="84" y="50"/>
      <point x="54" y="41"/>
      <point x="22" y="41" type="curve" smooth="yes"/>
      <point x="14" y="41" type="line"/>
    </contour>
  </outline>
</glyph>
<glyph name="Lslash.mono" format="2">
  <advance width="500"/>
  <unicode hex="0141"/>
  <anchor x="287" y="0" name="bottom"/>
  <anchor x="150" y="714" name="top"/>
  <outline>
    <contour>
      <point x="59" y="255" type="line"/>
      <point x="355" y="439" type="line"/>
      <point x="318" y="498" type="line"/>
      <point x="23" y="314" type="line"/>
    </contour>
    <component base="L" xOffset="30"/>
  </outline>
</glyph>
